<?xml version="1.0" encoding="utf-8"?>
<!-- Generator: Adobe Illustrator 16.0.0, SVG Export Plug-In . SVG Version: 6.00 Build 0)  -->
<!DOCTYPE svg PUBLIC "-//W3C//DTD SVG 1.1//EN" "http://www.w3.org/Graphics/SVG/1.1/DTD/svg11.dtd">
<svg version="1.1" id="Calque_1" xmlns="http://www.w3.org/2000/svg" xmlns:xlink="http://www.w3.org/1999/xlink" x="0px" y="0px"
	 width="481.08px" height="297.638px" viewBox="0 0 481.08 297.638" enable-background="new 0 0 481.08 297.638"
	 xml:space="preserve">
<path fill-rule="evenodd" clip-rule="evenodd" fill="#454545" d="M334.406,210.549c-5.415,9.924-11.629,11.975-22.062,7.155
	c-2.443-1.128-4.479-0.891-6.104,1.221c-3.86,5.016-8.981,6.505-15.176,6.805c-6.402,0.31-12.726,1.782-19.221,2.037
	c-5.656,0.223-10.593-0.758-14.724-4.57c-1.668-1.54-3.543-2.644-5.289-1.337c-5.402,4.039-7.693-0.587-10.54-3.508
	c-1.005-1.032-1.47-2.577-2.255-3.842c-0.558-0.9-2.066-1.714-0.45-2.779c1.026-0.677,1.896,0.234,2.494,1.033
	c0.794,1.062,1.462,2.217,2.179,3.336c1.988,3.108,3.982,5.741,8.254,2.926c2.113-1.394,4.363-0.848,6.326,1.03
	c4.461,4.266,9.468,5.333,15.873,4.737c6.748-0.628,13.393-2.271,20.217-2.233c4.027,0.022,7.334-1.808,9.779-4.996
	c2.92-3.808,6.382-4.316,10.479-2.073c6.208,3.397,12.677,2.824,15.528-3.129c3.111-6.494,8.24-10.451,13.263-14.785
	c2.709-2.337,3.204-4.779,1.813-7.885c-1.144-2.552-2.068-5.215-3.374-7.679c-1.442-2.722-2.21-5.142-1.204-8.437
	c1.601-5.246-1.426-9.651-6.926-11.118c-3.679-0.98-6.222-2.713-6.615-6.934c-0.341-3.66-5.888-8.076-9.604-8.053
	c-7.679,0.049-14.241-6.323-14.525-14.102c-0.19-5.237-3.263-8.115-7.945-10.077c-3.93-1.646-6.366-6.072-12.085-4.178
	c-1.8,0.596-4.712-3.757-8.147-4.677c2.494-2.113,4.841-1.074,5.889,0.309c2.646,3.488,4.686,1.874,7.249,0.126
	c1.977-1.348,4.01-2.604,6.76-2.501c3.051,0.115,4.714-2.048,5.365-4.938c0.222-0.981,0.541-2.231,1.717-1.937
	c1.499,0.375,1.164,1.724,0.828,2.904c-1.609,5.655-6.675,6.066-11.146,7.374c1.477,3.181,3.703,5.016,7.395,5.636
	c4.393,0.736,7.195,5.896,7.174,11.876c-0.023,6.242,5.374,11.63,11.347,11.15c2.493-0.2,4.335,0.393,6.229,2.208
	c1.668,1.599,3.333,4.697,6.367,3.019c3.023-1.673,4.616-4.282,2.774-7.984c-2.378-4.778-1.867-8.543,4.023-10.104
	c1.724-0.456,1.41-1.552,0.754-2.675c-1.439-2.462-3.319-5.073-0.759-7.68c2.508-2.553,5.668-2.311,8.796-0.886
	c0.559,0.254,1.259,0.194,2.489,0.359c-1.075-3.105-1.792-6.268,1.587-7.774c3.223-1.437,6.536-0.887,9.36,1.373
	c1.381,1.105,2.56,3.322,4.55,1.889c2.033-1.465,4.52-2.762,4.676-5.984c0.3-6.172,0.116-12.317-0.396-18.462
	c-0.105-1.267-0.864-2.604,0.8-3.944c2.094,3.621,1.802,7.604,2.211,11.376c0.304,2.801,0.259,5.669,0.067,8.487
	c-0.352,5.181,6.28,7.514,5.222,13.219c-0.161,0.867,3.651,0.728,5.32-0.398c4.09-2.76,7.409-1.485,10.716,1.438
	c2.235,1.977,4.725,4.032,4.781-1.536c0.032-3.174,2.667-2.249,4.055-1.771c3.87,1.334,6.917,1.176,10.532-1.468
	c4.829-3.532,14.528,0.123,16.281,5.596c0.63,1.967,1.384,1.95,2.784,1.038c0.419-0.272,0.854-0.521,1.259-0.813
	c2.177-1.577,4.554-2.243,6.984-0.84c2.754,1.591,0.181,3.859,0.451,6.229c2.417-0.162,4.609-1.226,6.132-2.594
	c2.591-2.328,4.98-2.03,8.119-1.538c4.233,0.664,5.62,2.138,4.175,6.235c-1.1,3.114,1.351,4.422,3.394,5.803
	c2.571,1.737,4.225,3.558,0.947,6.158c-2.155,1.711,0.024,1.981,0.89,2.645c1.134,0.869,2.262,1.94,1.052,3.269
	c-1.834,2.012-1.952-0.657-2.719-1.298c-4.214-3.521-4.189-3.551-0.269-7.354c-3.491-2.938-7.833-5.464-5.466-11.36
	c0.559-1.392-4.735-2.536-7.191-1.301c-2.217,1.114-4.344,2.427-6.619,3.396c-2.979,1.269-5.181,0.439-4.839-3.117
	c0.448-4.661-1.764-3.199-3.988-2.023c-5.377,2.842-5.516,2.796-7.875-3.174c-1.175-2.974-10.324-4.716-13.248-2.163
	c-2.868,2.505-5.687,3.144-9.126,1.678c-1.285-0.548-2.103-0.576-3.015,1.147c-2.288,4.324-5.045,4.822-8.667,1.588
	c-2.794-2.495-4.998-3.302-8.79-1.385c-5.965,3.016-8.816,1.025-9.255-5.598c-0.183-2.758-1.563-3.115-3.594-2.203
	c-1.165,0.523-2.092,1.589-3.109,2.432c-2.688,2.227-5.399,2.757-7.786-0.284c-1.39-1.771-3.347-2.156-5.229-2.518
	c-2.208-0.423-3.389,0.532-2.98,3.105c0.884,5.563-0.147,6.379-5.614,4.916c-1.255-0.336-2.617-0.595-3.89-0.471
	c-1.896,0.185-3.455,1.1-1.881,3.25c3.327,4.547,3.267,7.809-2.926,9.377c-1.688,0.428-1.903,1.486-1.394,3.403
	c1.132,4.26,4.282,8.926-1.928,12.407c-2.438,1.366,0.867,4.059-0.232,6.412c-1.68,3.599,2.061,2.036,3.179,2.475
	c5.645,2.214,8.99,7.267,7.88,13.313c-0.646,3.513-0.184,6.547,1.838,9.425c0.475,0.676,0.858,1.431,1.18,2.193
	c4.55,10.793,2.861,12.297-6.111,19.463c-2.112,1.688-4.261,2.983-5.208,5.607C334.596,209.959,334.501,210.254,334.406,210.549z"/>
<path fill-rule="evenodd" clip-rule="evenodd" fill="#727272" d="M372.721,31.805c-8.067,3.261-16.702,1.948-26.039,3.684
	c7.365,3.853,14.561,4.708,21.359,6.74c5.372,1.604,11.191,1.672,16.146,4.756c0.497,0.309,1.281,0.249,1.925,0.216
	c13.624-0.688,27.248-1.397,40.987-2.471c-12.044-4.413-24.87-5.991-38.021-9.243c7.095-2.462,46.132,6.583,51.232,11.798
	c-38.38,0.857-76.141,4.063-113.965,5.922c-0.046-0.647-0.092-1.295-0.137-1.942c16.63-1.222,33.26-2.443,49.89-3.666
	c0.025-0.219,0.05-0.438,0.075-0.655c-6.748-1.833-13.491-3.683-20.245-5.493c-4.467-1.197-8.912-2.438-12.653-5.335
	c-1.031-0.799-2.2-0.689-3.34-0.613c-14.247,0.957-28.492,1.954-42.739,2.916c-7.832,0.528-15.668,1.008-23.553,0.721
	C306.507,34.471,339.588,32.813,372.721,31.805z"/>
<path fill-rule="evenodd" clip-rule="evenodd" fill="#727272" d="M255.626,54.466c-0.404-6.479,3.819-10.413,8.203-15.516
	c0.529,4.601-2.35,6.508-3.85,8.911c-2.223,3.562-1.943,5.18,2.636,5.479c16.277,1.063,31.759,5.632,47.013,11.084
	c2.586,0.924,5.115,2.04,7.59,3.235c1.145,0.554,2.235,0.883,3.225,0.106c0.977-0.768,0.273-1.916-0.007-2.746
	c-2.234-6.63-5.265-12.311-13.192-13.798c-7.754-1.455-15.376-3.613-23.7-5.619c3.455-2.417,6.26-0.411,8.736,0.039
	c9.222,1.678,18.943,2.341,26.057,9.841c2.142,2.259,4.082,4.858,4.12,7.75c0.061,4.547,2.446,4.583,5.729,4.269
	c2.482-0.237,5.01-0.398,7.487-0.205c3.849,0.3,5.97-1.209,6.396-5.078c0.042-0.381,0.36-0.993,0.64-1.048
	c9.767-1.923,19.597-3.377,29.563-3.701c0.778-0.025,1.565,0.227,2.32,0.346c0.198,1.844-1.146,1.637-1.97,1.735
	c-1.796,0.215-2.057,1.28-1.983,2.789c0.101,2.078,1.478,1.799,2.825,1.666c1.326-0.131,2.652-0.275,3.981-0.374
	c7.044-0.522,7.11-0.523,6.441-8.012c-0.115-1.297,1.553-1.762,0.971-3.405c0.651,6.685,1.732,12.601,10.475,10.347
	c0.063,2.194-1.221,2.096-2.065,2.105c-7.27,0.09-14.489,2.373-21.798,0.528c-0.926-0.233-2.552-0.468-2.62-0.898
	c-1.026-6.429-5.523-3.478-8.837-3.276c-4.643,0.282-9.259,1.054-13.934,0.644c-1.175-0.103-2.933-1.137-2.678,1.311
	c0.148,1.424-0.604,3.589,2.137,3.68c1.283,0.042,2.557,0.356,4.7,0.677c-2.467,2.167-4.778,2.004-6.931,2.104
	c-6.656,0.312-13.315,0.58-19.977,0.75c-2.908,0.074-3.673,0.255-2.952,3.994c1.472,7.633,1.718,15.54,2.008,23.352
	c0.346,9.321,0.24,18.66,0.248,27.992c0.001,1.557,0.562,3.448-2.751,4.969c0-6.975,0.158-13.385-0.033-19.784
	c-0.392-13.144-0.99-26.281-1.439-39.424c-0.048-1.385,0.18-2.957-1.67-2.924c-6.675,0.12-12.525-2.925-18.523-5.026
	c-9.041-3.167-18.434-5.049-27.583-7.739c-4.447-1.308-9.981-1.619-15.085-1.199C255.55,54.396,255.626,54.466,255.626,54.466z"/>
<path fill-rule="evenodd" clip-rule="evenodd" fill="#454545" d="M151.564,79.476c1.657,1.163,2.762,2.694,5.291,0.462
	c3.302-2.915,6.823-1.149,9.708,1.622c0.692,1.236,1.95,0.611,2.932,0.894c0.404,2.574-0.335,4.491-2.983,2.4
	c-3.883-3.065-7.126-5.861-10.635,0.389c-0.825,1.469-2.303,0.331-3.185-0.872c-2.582-3.521-5.366-1.979-6.605,0.703
	c-1.18,2.551-2.247,1.974-4.137,1.614c-3.155-0.601-5.893-0.461-4.403,4.199c0.489,1.53,0.566,3.387-1.925,3.771
	c-0.972,0.15-2.102,0.825-1.686,1.992c0.479,1.344,1.918,2.107,3.207,1.604c3.031-1.187,4.745-0.349,5.656,2.732
	c0.615,2.081,1.555,0.77,2.483,0.124c1.718-1.197,3.449-1.032,4.976,0.36c4.07,3.713,6.013,3.614,9.972-0.598
	c2.836-3.018,6.401-1.665,8.899,4.187c0.374-3.695,1.638-5.546,4.889-3.984c1.549,0.744,1.319-0.969,1.972-1.466
	c2.118-1.613,4.677-1.784,7.068-1.168c3.124,0.806,0.54,3.907,2.245,5.958c4.005-4.283,8.64,0.428,13.167-0.667
	c0.517-0.125,1.437,0.767,1.939,1.376c0.964,1.168,1.581,3.746,3.479,1.419c1.14-1.398,4.527-2.928,0.986-5.662
	c-2.599-2.007-0.852-3.727,1.331-4.171c3.978-0.811,8.014-2.526,12.125-1.021c2.715,0.994,3.776-1.193,5.698-2.729
	c1.162,3.247-0.324,4.596-2.68,5.418c-0.597,0.209-1.525-0.218-1.956,0.106c-3.798,2.856-7.629,3.646-11.734-0.583
	c2.833,5.603,2.09,8.547-2.754,11.206c-1.599,0.877-3.873,1.44-5.064-0.278c-1.422-2.054-2.296-2.947-4.243-0.665
	c-0.668,0.784-2.36,0.667-2.56-0.314c-1.022-5.02-3.922-2.579-6.229-1.606c-3.193,1.346-5.679,2.214-4.804-2.973
	c0.153-0.904,0.257-2.485-1.415-2.691c-1.31-0.161-2.327,0.372-2.624,1.725c-0.438,1.997-1.142,3.223-3.319,1.632
	c-1.294-0.945-1.805-0.261-2.651,0.896c-2.756,3.767-4.748,3.51-6.312-0.747c-0.365-0.995-0.576-1.976-1.603-2.247
	c-1.485-0.392-1.531,0.931-1.671,1.832c-0.338,2.179-2.99,2.872-3.613,2.607c-3.247-1.379-5.729-0.035-8.374,1.366
	c-0.496,0.264-1.847-0.003-1.848-0.045c-0.117-5.702-7.367-1.552-8.764-6.498c-0.626-2.218-4.687,0.668-7.468-1.049
	c1.486,3.528,2.225,6.355,2.212,9.343c-0.007,1.676-0.201,3.416,1.951,4.039l0.049-0.062c-4.438-1.9-6.68-6.924-4.575-11.92
	c0.954-2.264-1.006-2.739-1.189-4.144c0.055-0.314-0.013-0.598-0.203-0.848c-0.208-1.233,0.004-2.351,1.217-2.934
	c2.114-1.015,2.931-2.493,2.617-4.922c-0.383-2.969,1.703-5.349,4.148-4.973c4.543,0.698,6.966-2.559,10.307-4.073
	C149.772,79.521,150.668,79.499,151.564,79.476z"/>
<path fill-rule="evenodd" clip-rule="evenodd" fill="#454545" d="M372.88,233.266c2.13,1.181,4.182,0.275,6.284-0.167
	c6.441-1.354,12.601-3.532,19.515-3.118c8.045,0.482,14.728-4.458,21.566-8.093c4.829-2.566,9.746-2.617,14.991-1.912
	c6.803,0.915,13.47,0.367,20-2.344c4.814-1.998,7.11-5.292,7.144-10.226c0.023-3.524,1.063-6.69,3.337-9.143
	c4.197-4.527,4.341-9.504,2.067-14.677c-2.401-5.466-3.199-10.309,0.378-15.933c2.996-4.71,0.239-10.298-0.318-15.49
	c-0.165-1.531-1.852-2.924-0.475-4.639c2.131-0.067,2.423,1.79,2.72,3.023c1.748,7.273,3.533,14.648-1.077,21.578
	c-1.895,2.848-0.649,5.321,0.406,7.892c2.988,7.275,4.268,14.275-2.214,20.632c-1.632,1.6-2.063,4.108-2.383,6.445
	c-1.258,9.188-6.375,14.424-15.762,15.199c-4.248,0.351-8.567,1.098-12.891,0.28c-7.767-1.47-14.793,0.508-21.21,4.876
	c-5.589,3.804-11.908,5.041-18.427,4.818c-6.608-0.227-12.703,2.011-18.913,3.438c-3.261,0.75-4.958,0.155-6.651-2.196
	C371.606,233.43,372.244,233.348,372.88,233.266z"/>
<path fill-rule="evenodd" clip-rule="evenodd" fill="#454545" d="M353.689,160.396c1.495,2.9,3.135,4.069,6.523,1.966
	c2.815-1.748,6.266-1.547,9.385,0.089c1.406,1.497,2.84,2.872,4.974,1.112c1.763,0.038,3.104-1.021,4.58-1.744
	c3.715-1.82,9.664,0.139,9.962,4.039c0.454,5.952,4.623,4.485,6.814,3.336c4.369-2.292,8.77-2.656,13.418-2.672
	c2.498-0.009,4.63-0.672,5.089-3.616c0.601-1.694-0.249-1.535-1.35-1.056c-2.336,0.719-4.715,0.919-4.393-2.44
	c0.232-2.431-2.334-2.989-2.671-5.037c2.182-1.085,4.05,1.271,4.112,1.586c1.231,6.253,5.419,2.429,8.309,2.466
	c1.598,0.021,3.231-1.092,4.802-0.986c2.937,0.198,4.822-0.776,5.714-3.571c1.093-3.423,3.341-3.717,6.208-2.315
	c2.521,1.231,5.062,2.43,7.527,3.766c2.88,1.56,5.461,2.538,7.235-1.501c0.506-1.151,1.525-2.242,2.969-2.447
	c1.312-0.187,1.897,0.47,1.411,1.744c-2.414,6.325-7.457,7.861-13.519,4.186c-1.265-0.767-2.614-1.395-3.916-2.102
	c-2.769-1.502-5.225-2.763-6.626,1.797c-0.633,2.06-2.702,2.99-5.281,2.811c-3.921-0.273-6.977,1.131-8.487,5.302
	c-1.465,4.041-5.451,4.062-8.831,4.19c-3.681,0.14-7.185,0.053-10.473,2.254c-2.472,1.654-5.522,0.84-8.304,0.688
	c-2.355-0.128-2.649-1.64-2.358-3.901c0.476-3.699-2.622-6.068-5.939-4.438c-4.508,2.214-8.555,3.928-13.237,0.129
	c-1.657-1.344-4.445-1.058-6.555,0.503c-4.063,3.006-6.746,1.547-8.528-2.702C352.732,161.351,353.21,160.874,353.689,160.396z"/>
<path fill-rule="evenodd" clip-rule="evenodd" fill="#727272" d="M52.608,64.085c-2.405-1.077-2.777,1.23-3.56,2.373
	c-2.521,3.678-4.815,7.511-7.446,11.681c-0.965-1.762,0.015-3.084,0.583-4.17c3.486-6.664,7.99-12.646,12.846-18.356
	c1.423-1.674,12.074-3.026,14.042-1.659c0.999,0.694,2.16,0.785,2.977,1.329c5.913,3.938,11.275-2.314,16.993-0.747
	c0.132,0.036,0.321-0.167,0.466-0.145c7.535,1.129,15.415-1.44,22.711,2.017c2.156,1.021,1.937,3.644,2.952,5.453
	c0.083,0.146-0.496,0.856-0.89,1.04c-0.97,0.451-1.504-0.29-2.006-0.963c-3.663-4.913-10.445-6.811-15.983-3.961
	c-3.883,1.998-6.935-2.507-10.628-0.794c-0.464,0.215-1.583-0.642-1.853-0.397c-4.329,3.916-9.012,1.494-13.637,1.021
	c-1.312-0.135-2.282,0.291-3.301-1.178c-1.757-2.531-3.799-0.804-5.454,0.404c-2.287,1.67-0.035,2.068,0.902,3
	c1.127,1.122,0.705,2.124-0.864,2.462c-1.754,0.376-3.525,0.675-5.289,1.007c-0.842-0.006-1.684-0.012-2.526-0.018
	c0.458-0.525,0.916-1.051,1.374-1.576c3.126-0.825,2.669-3.146,2.339-5.586c-2.079,0.905-2.884,2.673-3.664,4.457
	c-0.952,0.877-2.668,1.501-1.067,3.228L52.608,64.085z"/>
<path fill-rule="evenodd" clip-rule="evenodd" fill="#454545" d="M432.49,63.048c6.58,0,13.16,0,20.594,0
	c-2.687-6.128-7.135-9.688-9.466-15.758c4.436,2.382,5.926,5.971,8.106,8.833c2.217,2.909,5.188,5.767,2.461,10.132
	c-0.865,1.386,1.495,2.308,1.639,3.918c1.34,15.127,0.701,30.274,0.594,45.416c-0.002,0.305-0.659,0.605-1.655,1.464
	c-1.679-17.372-0.455-34.238-1.437-51.02c0.174-0.371,0.353-0.74,0.531-1.11c-0.578-0.079-1.155-0.158-1.733-0.237
	c-6.836-0.168-13.7,2.022-20.51-0.252C431.906,63.972,432.198,63.51,432.49,63.048z"/>
<path fill-rule="evenodd" clip-rule="evenodd" fill="#454545" d="M227.99,93.397c-1.019-2.413-3.11-4.144-3.217-7.237
	c-0.105-3.043-4.482-3.973-6.955-1.649c-1.537,1.443-3.071,1.651-4.999,1.101c-1.989-0.569-2.824-1.789-2.257-3.691
	c0.418-1.403-0.397-1.738-1.304-2.156c-1.406-0.647-2.128,0.331-2.889,1.232c-2.386,2.828-4.585,5.342-6.083-0.739
	c-0.516-2.097-2.36-2.082-3.807-0.525c-0.533,0.573-0.714,1.466-1.089,2.196c-0.952,1.854-2.211,3.487-4.503,3.347
	c-2.47-0.151-2.907-2.428-3.674-4.204c-0.726-1.679-0.112-4.141-2.983-4.454c-2.797-0.306-2.438,2.251-3.358,3.586
	c-1.42,2.063-2.76,3.389-5.065,1.039c-1.565-1.595-3.342-0.94-5.062-0.186c-0.367-0.528-0.734-1.057-1.102-1.585
	c2.123-1.745,4.528-1.751,6.854-0.737c2.499,1.09,2.818-0.126,2.716-2.118c0-0.001-0.101,0.206-0.101,0.206
	c2.165-2.046,4.635-2.923,7.581-1.975c0.482,0.783,1.249,0.654,1.986,0.617c0.202,0.806,0.414,1.609,0.604,2.418
	c0.394,1.674-0.325,4.229,2.008,4.544c2.094,0.283,1.949-2.236,2.692-3.612c1.218-2.254,3.304-2.521,5.586-2.261
	c2.534,0.29,3.276,1.929,3.144,5.002c2.811-4.723,6.258-4.984,10.27-2.921c2.448,1.258,1.164,2.876,0.471,4.389
	c0.959,0.611,1.707,0.473,2.4-0.134c3.712-3.242,8.701-3.063,10.449,1.235c1.048,2.576,5.395,4.468,2.719,8.293
	C228.679,92.744,228.334,93.07,227.99,93.397z"/>
<path fill-rule="evenodd" clip-rule="evenodd" fill="#727272" d="M48.568,161.567c-0.002-8.11-2.543-15.861-3.363-23.86
	c-1.534-14.957-4.842-29.745-4.357-44.885c0.051-1.595-1.043-1.849-1.629-2.721c-2.268-3.373-3.504-6.846-0.628-11.96
	c7.194,32.432,8.335,64.429,14.466,95.692c-2.144-3.957-1.911-8.639-4.562-12.337L48.568,161.567z"/>
<path fill-rule="evenodd" clip-rule="evenodd" fill="#727272" d="M54.674,188.325c0.955-0.515,1.8-1.617,2.966-0.196
	c1.222,1.486,3.015,2.27,4.829,2.239c2.556-0.041,6.684,2.1,4.492-4.345c-1.664-4.892,0.385-10.313,3.509-14.873
	c7.619-11.119,17.303-20.148,28.093-28.079c0.336-0.247,0.874-0.219,2.028-0.479c-2.925,4.176-6.732,6.499-9.933,9.402
	c-6.303,5.718-12.465,11.589-17.261,18.628c-8.422,12.359-6.424,13.515,2.797,25.055c0.837,1.047,3.551,1.512,2.266,3.132
	c-1.325,1.67-3.239-0.204-4.108-1.325c-2.958-3.817-6.377-5.41-11.396-4.902c-2.715,0.274-5.64-1.524-8.469-2.39
	C54.55,189.568,54.612,188.946,54.674,188.325z"/>
<path fill-rule="evenodd" clip-rule="evenodd" fill="#727272" d="M409.651,86.496c6.416-0.521,6.496,3.187,6.59,7.064
	c0.126,5.203,0.574,10.409-0.973,15.532c-2.252-4.727-1.598-9.699-1.413-14.513c0.169-4.443,0.147-7.551-5.693-5.41
	c-1.213,0.445-2.956,0.722-4.231-0.747c7.097-5.387,10.795-13.962,18.847-19.375c-0.537,2.776,0.405,4.367,2.299,5.89
	c4.987,4.011,9.694,8.369,14.357,12.969c-2.559-0.595-6.787,4.073-7.34-3.385c-0.17-2.284-4.397-4.215-6.671-6.407
	c-4.621-4.458-4.62-4.509-8.929,0.306C414.416,80.742,412.458,83.173,409.651,86.496z"/>
<path fill-rule="evenodd" clip-rule="evenodd" fill="#727272" d="M345.562,84.065c2.539,0.68,4.521-0.161,5.768,0.978
	c-2.702,8.25,2.276,16.402-0.422,24.775c-2.124-1.714-1.324-4.052-1.559-5.935c-0.451-3.622-0.673-7.289-0.722-10.94
	c-0.051-3.815-0.225-7.192-5.585-5.881c-0.733,0.18-1.911,0.309-1.938-0.82c-0.021-0.897,0.311-2.175,0.954-2.659
	c6.327-4.763,11.922-10.528,18.365-14.039c2.47,8.045,10.896,9.621,16.021,15.231c-2.412,0.482-4.284,0.856-6.99,1.398
	c1.745-1.245,3.001-1.866,0.963-3.188c-3.757-2.437-7.502-4.98-10.309-8.562c-1.291-1.646-2.027-0.202-2.774,0.37
	C353.54,77.703,349.814,80.702,345.562,84.065z"/>
<path fill-rule="evenodd" clip-rule="evenodd" fill="#454545" d="M150.768,215.602c18.223,5.398,36.662,4.269,54.78,0.326
	c7.003-1.523,13.835-3.875,21.08-4.34c-0.006,0.635-0.012,1.27-0.019,1.904c-1.162,1.329,0.735,1.374,0.9,2.146
	c-0.092,0.176-0.086,0.348,0.017,0.516c-0.936,0.391-1.769,0.35-2.815,0.036c-6.73-2.017-15.985,1.545-19.194,7.241
	c-0.527-0.336-1.054-0.671-1.581-1.007c1.215-4.844-2.465-3.075-4.245-2.808c-8.721,1.312-17.465,2.099-26.277,1.725
	c-7.754-0.329-15.452-1.129-22.759-4.045C150.692,216.731,150.73,216.166,150.768,215.602z"/>
<path fill-rule="evenodd" clip-rule="evenodd" fill="#454545" d="M54.674,188.325c-0.062,0.621-0.124,1.243-0.187,1.867
	c-4.214-0.796-8.091-0.22-11.666,2.385c-1.854,1.351-4.338,1.754-5.938-0.042c-2.268-2.547-3.83-5.563-7.588-6.603
	c-1.465-0.404-0.553-2.372,0.318-3.379c1.761-2.035,1.691-3.215-1.131-4.134c-2.132-0.694-4.518-1.624-4.115-4.73
	c0.379-2.927,2.45-4.296,4.984-4.788c3.067-0.596,4.701-1.382,3.387-5.122c-0.94-2.678,2.52-5.162,5.133-3.364
	c3.625,2.493,7.042,1.73,10.697,1.152c0,0-0.074-0.07-0.074-0.07c-1.27,3.27-5.161,4.546-8.683,2.593
	c-1.454-0.806-2.627-2.047-4.785-1.272c0.729,1.862,1.961,3.679,0.572,5.91c-1.338,2.15-3.125,2.768-5.408,2.766
	c-1.718-0.002-3.155,1.099-3.218,2.495c-0.057,1.258,1.758,1.819,3,2.252c5.834,2.031,5.944,2.359,2.055,8.01
	c2.705,0.149,4.82,0.288,5.196,4.019c0.375,3.713,3.461,2.648,5.708,1.22C46.686,187.1,50.536,186.449,54.674,188.325z"/>
<path fill-rule="evenodd" clip-rule="evenodd" fill="#727272" d="M135.443,195.486c1.463-2.479,1.848-5.023,1.726-8.004
	c-0.711-17.456-0.839-34.938-2.541-52.346c-0.545-5.58-1.18-11.15-1.902-17.938c3.286,3.504,3.215,6.999,3.558,10.018
	c2.269,20.022,3.31,40.127,3.236,60.282c-0.01,2.823-0.013,5.712-2.252,7.932C136.66,195.449,136.051,195.468,135.443,195.486z"/>
<path fill-rule="evenodd" clip-rule="evenodd" fill="#454545" d="M75.486,220.292c-0.246-1.741,0.51-2.414,1.78-1.108
	c1.286,1.321,4.318,3.433,2.387,4.713c-3.361,2.228-3.103,5.478-3.553,8.24c-0.477,2.933-1.76,3.307-4.102,3.597
	c-11.95,1.481-23.938,0.393-35.904,0.641c-6.195,0.129-12.396,0.022-18.594,0.022c-0.002-0.598-0.005-1.195-0.007-1.794
	c7.148-0.294,14.294-0.716,21.445-0.85c9.312-0.175,18.658-0.589,27.933,0.001c6.004,0.382,7.387-2.497,7.693-7.3
	c0.063-0.983,0.1-1.968,0.149-2.952c0,0-0.104,0.04-0.104,0.04c0.897,0.319,0.668-0.456,0.828-0.853
	C75.454,221.891,75.47,221.091,75.486,220.292z"/>
<path fill-rule="evenodd" clip-rule="evenodd" fill="#727272" d="M227.376,198.435c-26.012,10.858-52.281,10.458-78.677,2.052
	c13.094,1.584,26.153,3.903,39.481,3.945C201.563,204.475,214.305,200.316,227.376,198.435z"/>
<path fill-rule="evenodd" clip-rule="evenodd" fill="#727272" d="M320.439,258.21c2.094-1.246,0.742-2.862,0.508-4.393
	c-0.734-4.799,0.351-9.065,4.209-13.52c-0.122,4.648-2.411,8.151-1.494,11.859c0.52,2.1-1.082,7.497,4.504,3.67
	c0.566-0.389,1.43-0.297,1.621,0.43c0.134,0.513-0.211,1.226-0.502,1.763c-2.641,4.875-1.18,7.407,4.438,7.597
	c0.826,0.027,1.66-0.054,2.484-0.146c3.212-0.359,7.296-1.197,7.73-4.193c0.41-2.826-3.974-2.407-6.257-3.407
	c-0.981-0.431-2.353-0.205-2.975-1.901c3.827-1.329,7.229-0.242,10.274,1.736c2.745,1.782,2.993,4.105,0.453,6.584
	c-5.716,5.578-14.479,5.615-19.804-0.38c-2.075-2.338-6.136-0.708-7.289-4.241C319.129,259.31,320.22,259.389,320.439,258.21z"/>
<path fill-rule="evenodd" clip-rule="evenodd" fill="#727272" d="M264.263,121.27c0.692,0.944-0.301,1.452-0.552,2.143
	c-0.325,0.896-1.11,1.968,0.122,2.559c0.498,0.239,1.528-0.334,2.17-0.76c1.318-0.873,2.316-2.84,4.229-1.73
	c1.958,1.137,1.11,3.285,1.175,5.033c0.043,1.151-0.035,2.357-0.338,3.463c-0.896,3.277,0.174,4.473,4.254,3.004
	c-1.633,2.581-3.315,3.896-5.308,3.191c-2.245-0.793-1.122-3.163-1.15-4.872c-0.041-2.468,1.282-4.846,0.4-8.141
	c-4.417,2.704-6.832,6.778-9.3,10.671c-1.679,2.648-2.805,5.647-4.176,8.491c-0.422,0.877-0.73,2.035-2.037,1.613
	c-0.957-0.309-0.818-1.318-0.844-2.142C252.744,138.246,259.493,124.845,264.263,121.27z M261.226,128.094
	c-0.631,0.729-1.599,1.662-0.385,2.363c0.773,0.446,1.242-0.698,1.465-1.492c0.329-0.476,0.993-0.974,0.271-1.534
	C261.84,126.856,261.558,127.618,261.226,128.094z"/>
<path fill-rule="evenodd" clip-rule="evenodd" fill="#727272" d="M149.468,195.28c-4.662-21.95-0.285-44.325-2.82-66.427
	C151.767,150.781,147.86,173.133,149.468,195.28z"/>
<path fill-rule="evenodd" clip-rule="evenodd" fill="#454545" d="M135.406,56.021c-21.348-7.264-43.506-7.372-65.774-6.518
	C92.138,46.55,114.471,45.112,135.406,56.021z"/>
<path fill-rule="evenodd" clip-rule="evenodd" fill="#727272" d="M82.792,193.768c-2.308-4.976-1.366-9.662,0.907-13.978
	c8.059-15.303,20.84-25.975,35.13-35.086c0.385-0.246,0.933-0.292,1.412-0.317c0.305-0.016,0.62,0.179,1.412,0.435
	C105.342,158.52,85.583,169.317,82.792,193.768z"/>
<path fill-rule="evenodd" clip-rule="evenodd" fill="#727272" d="M227.35,185.013c-1.515-20.456-3.284-40.913-0.341-61.364
	C226.525,144.103,228.432,164.56,227.35,185.013z"/>
<path fill-rule="evenodd" clip-rule="evenodd" fill="#454545" d="M212.708,254.377c-2.922-2.683-2.872-6.528-3.897-9.953
	c1.006-0.585,1.97-1.199,1.85-2.589c2.648-6.285,7.544-9.384,14.189-9.962c3.371-0.294,6.453,1.19,9.702,1.658l-0.039-0.063
	c0.373,0.47,0.746,0.939,1.119,1.409c0.648,1.153,1.587,1.989,2.777,2.552c2.674,8.584-1.057,17.506-8.902,20.23
	c2.121-2.944,4.279-5.375,5.797-8.155c4.512-8.265,0.497-14.969-8.886-15.151c-11.769-0.229-17.094,7.767-12.462,18.711
	C213.54,253.502,213.124,253.939,212.708,254.377z"/>
<path fill-rule="evenodd" clip-rule="evenodd" fill="#727272" d="M256.5,115.4c-0.877-18.401-1.156-36.832-2.705-55.203
	c-0.169-2.013-1.744-4.788,1.832-5.731c0,0-0.076-0.069-0.076-0.07c2.631,17.381,2.44,34.928,3.104,52.425
	c0.098,2.581-0.621,5.294,0.922,7.713C258.728,115.454,257.587,115.334,256.5,115.4z"/>
<path fill-rule="evenodd" clip-rule="evenodd" fill="#727272" d="M46.727,94.017c20.312,0.282,40.264,4.489,60.458,6.06
	C86.685,101.856,66.838,96.492,46.727,94.017z"/>
<path fill-rule="evenodd" clip-rule="evenodd" fill="#727272" d="M273.75,204.497c-4.238,6.063-4.931,5.808-8.794-1.977
	c-1.365,3.19-2.472,6.284-3.977,9.17c-2.015,3.859-4.188,3.918-6.51,0.221c-3.13-4.982-4.395-10.719-6.2-16.229
	c-1.11-3.39-2.151-6.803-3.384-10.715c2.6,0.89,2.604,3.046,3.192,4.678c2.365,6.546,4.588,13.144,6.993,19.674
	c0.485,1.317,1.137,3.174,2.916,2.937c1.36-0.182,1.645-1.916,2.131-3.13c0.924-2.31,1.749-4.661,2.747-6.937
	c0.513-1.168,0.943-2.783,2.51-2.768c1.684,0.017,1.808,1.686,2.165,2.933C268.33,205.1,268.871,208.194,273.75,204.497z"/>
<path fill-rule="evenodd" clip-rule="evenodd" fill="#454545" d="M320.439,258.21c-0.219,1.179-1.31,1.1-2.099,1.458
	c-7.433-0.386-14.818-1.754-22.292-1.198c-2.019,0.149-4.227-0.646-5.965,1.452c-1.094,1.318-2.463,0.017-3.533-0.627
	c-5.603-3.366-7.905-9.455-5.916-15.806c1.331-4.249,3.074-8.307,6.537-11.35c0.633,0.149,1.265,0.298,1.897,0.446
	c-3.458,4.409-6.57,8.937-6.571,14.907c-0.001,6.268,3.202,9.406,9.331,9.074C301.422,256.048,311.017,255.652,320.439,258.21z"/>
<path fill-rule="evenodd" clip-rule="evenodd" fill="#727272" d="M136.505,113.419c12.456,1.862,24.843,4.422,37.531,4.045
	c6.972-0.207,13.937-0.636,21.424-0.989c-5.497,2.669-11.021,2.734-16.481,3.025c-13.027,0.693-25.912-0.204-38.536-3.711
	c-1.512-0.42-3.485-0.199-3.888-2.432C136.554,113.357,136.505,113.419,136.505,113.419z"/>
<path fill-rule="evenodd" clip-rule="evenodd" fill="#727272" d="M51.488,78.743c3.397,2.272,6.988,3.444,11.224,3.576
	c13.392,0.415,26.635,2.738,41.302,2.927c-2.895,2.353-5.071,2.094-7.061,2.092c-15.006-0.01-29.767-2.561-44.573-4.559
	c-1.693-0.229-4.356-0.164-4.022-3.281C49.63,80.195,50.917,80.948,51.488,78.743z"/>
<path fill-rule="evenodd" clip-rule="evenodd" fill="#727272" d="M207.561,129.78c-0.525,20.545,0.201,41.024,2.368,62.045
	C205.796,185.742,204.011,139.615,207.561,129.78z"/>
<path fill-rule="evenodd" clip-rule="evenodd" fill="#454545" d="M256.5,115.4c1.088-0.066,2.229,0.054,3.076-0.867
	c1.909-0.918,3.68-1.141,4.982,0.992c-0.454,0.988-1.353,1.122-2.286,1.188c-2.675,1.317-6.625,0.846-6.862,5.493
	c-0.087,1.698-2.061,1.117-3.322,1.247c-4.819,0.496-6.01,1.912-4.367,6.148c1.639,4.229-0.772,5.778-3.887,7.027
	c-3.611,1.448-7.776,2.141-8.175,7.228c-0.049,0.625-0.587,1.172-1.4,1.045c-0.884-0.139-0.843-0.857-0.906-1.501
	c-0.331-3.356,0.942-5.807,4.114-7.121c1.824-0.756,3.703-1.377,5.523-2.141c1.857-0.778,2.904-1.692,1.817-4.123
	c-0.985-2.204-1.687-5.25,0.823-6.788C249.468,120.876,253.396,118.739,256.5,115.4z"/>
<path fill-rule="evenodd" clip-rule="evenodd" fill="#727272" d="M154.568,126.954c5.939,6.027,8.442,31.164,5.927,55.089
	C156.67,164.194,161.022,145.532,154.568,126.954z"/>
<path fill-rule="evenodd" clip-rule="evenodd" fill="#727272" d="M122.558,210.867c1.87,6.352,0.671,13.096,1.98,19.524
	c0.428,2.103,0.359,4.313,0.848,6.396c0.719,3.065-0.839,5.83-0.792,8.846c0.09,5.771-3.943-0.737-6.152,1.763
	c-1.777,2.01-6.151,1.603-9.266,2.603c-1.557,0.5-3.043,0.462-3.215-0.963c-0.203-1.687,1.652-1.552,2.935-1.636
	c0.66-0.044,1.325-0.106,1.973-0.238c10.78-2.198,11.917-3.869,11.051-14.989c-0.55-7.061-0.771-14.146-1.14-21.222
	C121.372,210.923,121.965,210.896,122.558,210.867z"/>
<path fill-rule="evenodd" clip-rule="evenodd" fill="#727272" d="M245.19,52.466c-15.611,2.949-31.375,4.63-47.115,6.522
	C213.358,53.886,229.183,52.456,245.19,52.466z"/>
<path fill-rule="evenodd" clip-rule="evenodd" fill="#727272" d="M347.581,132.453c0.21-2.065,1.796-2.69,3.435-2.982
	c2.411-0.431,4.14-0.739,5.468-3.688c1.268-2.812,4.896-1.554,7.574-0.432c2.418,1.015,3.491,2.927,2.306,5.153
	c-1.286,2.418-0.82,3.513,1.576,4.455c1.521,0.597,2.408,2.389,2.199,3.651c-0.594,3.585,0.343,6.86,2.004,10.965
	c-4.038-1.908-5.197-4.394-4.759-7.526c0.378-2.705,0.402-4.731-2.756-5.932c-2.491-0.948-2.673-3.25-1.257-5.393
	c1.346-2.036,0.585-2.892-1.446-3.479c-1.794-0.518-3.447-0.954-3.194,1.833c0.228,2.514-1.239,2.748-3.109,2.477
	c-2.051-0.298-3.928,0.336-5.818,0.948C349.062,132.487,348.321,132.47,347.581,132.453z"/>
<path fill-rule="evenodd" clip-rule="evenodd" fill="#727272" d="M75.486,220.292c-0.016,0.799-0.033,1.599-0.049,2.397
	c-0.46,0.105-1.013,0.121-0.828,0.853c0,0,0.104-0.04,0.104-0.04c-13.776-0.201-27.552-0.5-41.329-0.534
	c-3.517-0.009-6.956-0.223-10.414-1.338C40.43,219.697,57.993,221.014,75.486,220.292z"/>
<path fill-rule="evenodd" clip-rule="evenodd" fill="#454545" d="M380.117,151.916c2.461-2.011,1.893-4.02-0.186-5.794
	c-2.489-2.125-2.293-4.148-0.142-6.306c0.924-0.926,2.346-1.773,2.024-3.225c-0.918-4.14,1.361-4.732,4.445-4.004
	c3.129,0.739,7.073,1.097,6.276,5.944c-0.299,1.814-0.898,3.336,0.591,5.017c1.504,1.696-0.007,3.414-0.621,5.067
	c-0.257,0.694-0.739,1.146-1.479,0.958c-1.012-0.257-1.37-1.142-0.84-1.909c2.344-3.396-2.47-6.607-0.104-10.248
	c0.688-1.06-1.784-1.849-3.267-2.156c-1.401-0.291-2.272-0.072-2.281,1.568c-0.008,1.654-1.032,2.865-2.146,3.795
	c-1.821,1.521-1.767,2.618-0.213,4.431c2.481,2.896,2.575,5.893-0.945,8.287C380.86,152.866,380.488,152.391,380.117,151.916z"/>
<path fill-rule="evenodd" clip-rule="evenodd" fill="#454545" d="M67.224,204.736c-10.559-0.346-21.118-0.689-31.676-1.036
	c-1.613-0.053-3.313,0.534-4.777-0.638c0,0,0.035-0.222,0.035-0.222c1.267-1.416,3.003-1.206,4.625-1.271
	c15.381-0.608,30.722,0.339,46.064,1.224c-0.017,0.687-0.034,1.372-0.051,2.059c-3.253,0.593-6.472,0.027-9.698-0.289
	C70.239,204.621,68.731,204.679,67.224,204.736z"/>
<path fill-rule="evenodd" clip-rule="evenodd" fill="#727272" d="M89.12,193.856c13.999-4.258,24.418-12.962,34.635-21.984
	c0.766-0.676,1.392-2.289,2.746-0.981c0.772,0.746-0.004,1.535-0.596,2.098c-9.294,8.84-19.03,17.054-31.41,21.317
	C93.057,194.8,91.355,195.501,89.12,193.856z"/>
<path fill-rule="evenodd" clip-rule="evenodd" fill="#727272" d="M171.251,175.098c-1.058-14.893-2.115-29.785-3.154-44.412
	c0.494-0.376,0.6-0.457,0.706-0.538c2.99,14.813,2.744,29.866,3.886,44.815C172.21,175.008,171.731,175.053,171.251,175.098z"/>
<path fill-rule="evenodd" clip-rule="evenodd" fill="#454545" d="M265.855,91.558c1.846,0.186,4.118,0.172,5.436,1.693
	c3.991,4.608,8.842,3.611,13.557,2.176c4.86-1.479,9.672-1.679,14.617-1.016c1.006,0.135,2.218,0.151,2.189,1.452
	c-0.035,1.57-1.449,1.891-2.556,1.543c-5.761-1.811-10.98,0.258-16.394,1.763c-3.542,0.984-7.115,0.343-10.312-2.029
	c-2.036-1.51-4.106-3.355-7.108-2.757c-0.944,0.188-2.66,1.16-2.795-0.698C262.345,91.681,264.171,91.594,265.855,91.558z"/>
<path fill-rule="evenodd" clip-rule="evenodd" fill="#727272" d="M372.88,233.266c-0.637,0.082-1.274,0.164-1.912,0.245
	c-2.137-2.752-4.972-3.607-8.361-3.281c-2.315,0.223-4.657,0.218-6.987,0.241c-9.867,0.103-14.728-3.918-16.56-13.556
	c-0.535-2.816-0.509-6.145-4.654-6.366c0.096-0.295,0.19-0.59,0.285-0.884c3.653,1.092,5.693,3.373,6.43,7.275
	c1.582,8.379,6.36,11.826,15.085,11.633c4.356-0.097,8.813-1.174,13.021,0.99C370.866,230.406,372.478,231.225,372.88,233.266z"/>
<path fill-rule="evenodd" clip-rule="evenodd" fill="#727272" d="M88.915,201.174c14.629-3.573,26.473-12.479,39.07-19.873
	C124.182,189.434,95.855,203.536,88.915,201.174z"/>
<path fill-rule="evenodd" clip-rule="evenodd" fill="#727272" d="M227.99,93.397c0.344-0.327,0.689-0.653,1.033-0.98
	c4.31,5.376,2.211,11.649,2.434,17.593c0.017,0.435-0.298,1.196-0.604,1.281c-6.898,1.915-13.816,3.757-20.73,5.612
	c-0.126-0.409-0.252-0.818-0.378-1.227c5.462-1.969,10.882-4.064,16.404-5.848c2.57-0.83,3.363-2.309,3.146-4.799
	C228.958,101.141,229.655,97.139,227.99,93.397z"/>
<path fill-rule="evenodd" clip-rule="evenodd" fill="#454545" d="M448.557,149.692c-3.591-1.898-6.339-4.991-10.801-4.453
	c-0.518,0.063-1.563-0.551-1.62-0.956c-0.559-3.963-3.82-5.617-6.014-8.262c-2.703-3.259-3.975-2.941-6.542-1.152
	c-0.621,0.433-1.118,0.606-1.735,0.127c2.946-4.84,6.687-5.352,9.533-1.243c0.449,0.649,0.493,1.74,1.505,1.675
	c4.576-0.296,5.982,1.564,4.729,6.025c-0.401,1.431,1.301,1.174,2.491,1.311C444.357,143.254,447.19,145.702,448.557,149.692z"/>
<path fill-rule="evenodd" clip-rule="evenodd" fill="#454545" d="M305.032,100.451c-1.228,0.732-1.764,1.325-2.311,1.336
	c-4.658,0.09-8.19,2.208-11.825,5.078c-5.348,4.223-11.446,2.46-16.227-4.362c-1.043-1.488-1.829-1.335-2.99-1.473
	c2.62,0.11,5.08,0.964,7.2,2.412c5.926,4.047,7.693,4.021,12.878-0.711C295.929,98.924,298.241,98.452,305.032,100.451z"/>
<path fill-rule="evenodd" clip-rule="evenodd" fill="#454545" d="M416.531,146.58c3.364-0.538,5.914-0.395,7.073,2.815
	c0.308,0.852,1.537,1.577,0.14,2.401c-1.102,0.65-2.08,0.033-2.4-0.97c-0.735-2.305-2.015-2.237-4.13-1.836
	c-3.13,0.594-4.546-1.036-2.893-4.032c1.754-3.177,0.057-4.809-2.491-5.593c-1.821-0.561-4.952-1.878-4.423,2.496
	c0.035,0.287-0.637,0.966-0.768,0.915c-0.736-0.285-1.572-0.598-2.063-1.168c-0.781-0.908-0.275-2.024,0.36-2.729
	c2.099-2.324,4.891-3.108,7.695-1.917c2.755,1.17,5.304,2.983,4.926,6.648C417.475,144.406,417.036,145.162,416.531,146.58z"/>
<path fill-rule="evenodd" clip-rule="evenodd" fill="#727272" d="M295.14,181.972c3.793,7.674,6.903,15.129,7.23,23.523
	c0.051,1.298-0.331,2.913,0.298,3.819c0.942,1.359,0.953,2.091-0.519,2.549c-1.604,0.5-2.11-0.84-2.168-1.98
	c-0.149-2.964,0.516-5.909-0.116-8.917c-1.165-5.55-3.412-10.732-5.093-16.104C294.548,184.145,293.971,183.375,295.14,181.972z"/>
<path fill-rule="evenodd" clip-rule="evenodd" fill="#727272" d="M181.952,135.704c2.707,9.851,2.276,20.542,3.257,31.08
	c0.192,2.06,0.027,4.153-0.42,6.247C183.186,160.339,181.052,147.718,181.952,135.704z"/>
<path fill-rule="evenodd" clip-rule="evenodd" fill="#727272" d="M217.536,168.598c-0.539-12.783-1.953-25.612-1.23-38.481
	c0.41-0.007,0.82-0.014,1.23-0.021C217.536,142.93,217.536,155.764,217.536,168.598z"/>
<path fill-rule="evenodd" clip-rule="evenodd" fill="#454545" d="M292.948,232.449c6.519-0.523,12.163,0.499,17.845,0.977
	c5.565,0.468,11.146,0.752,17.399,1.161C323.834,237.646,300.429,236.041,292.948,232.449z"/>
<path fill-rule="evenodd" clip-rule="evenodd" fill="#454545" d="M429.609,113.586c-1.563-8.304-1.54-16.697-1.698-25.081
	c0.689-0.048,1.379-0.096,2.069-0.144c0.504,8.365,1.009,16.73,1.514,25.095C430.865,113.499,430.237,113.543,429.609,113.586z"/>
<path fill-rule="evenodd" clip-rule="evenodd" fill="#727272" d="M104.333,207.441c1.431,5.529-1.063,10.487-1.74,15.596
	c-0.479,3.608-1.388,7.161-2.162,10.726c-0.221,1.017-0.754,1.966-2.032,1.611c-1.019-0.282-0.986-1.29-0.815-2.061
	c1.856-8.402,3.756-16.796,5.68-25.184C103.312,207.915,103.766,207.794,104.333,207.441z"/>
<path fill-rule="evenodd" clip-rule="evenodd" fill="#727272" d="M113.208,83.378c2.023-7.968,5.908-15.137,10.207-22.124
	c0.224-0.363,0.616-0.622,0.93-0.93c0.14,0.451,0.247,0.916,0.427,1.351c0.697,1.688-0.75,2.816-1.292,4.033
	c-2.746,6.157-5.803,12.175-8.751,18.242C114.221,83.759,113.714,83.568,113.208,83.378z"/>
<path fill-rule="evenodd" clip-rule="evenodd" fill="#727272" d="M151.564,79.476c-0.896,0.023-1.792,0.046-2.688,0.069
	c-1.262-3.825-3.11-7.364-5.679-10.443c-2.471-2.962-5.194-5.714-8.157-8.939C141.65,61.18,147.553,68.333,151.564,79.476z"/>
<path fill-rule="evenodd" clip-rule="evenodd" fill="#727272" d="M210.661,241.835c0.12,1.39-0.844,2.004-1.85,2.589
	c-2.352-6.008-4.615-12.051-7.096-18.005c-1.06-2.543-0.832-3.943,2.221-3.995c0.527,0.336,1.054,0.671,1.581,1.007
	C204.561,230.313,207.859,236.004,210.661,241.835z"/>
<path fill-rule="evenodd" clip-rule="evenodd" fill="#727272" d="M262.272,116.713c0.934-0.065,1.832-0.199,2.286-1.188
	c3.638-3.279,4.253-7.578,1.405-11.766c-1.345-1.978-3.141-3.65-5.051-5.825c4.743-0.82,6.139,2.482,7.775,5.122
	c2.482,4.004,2.542,8.237-0.11,12.159C267.106,117.392,264.917,118.51,262.272,116.713z"/>
<path fill-rule="evenodd" clip-rule="evenodd" fill="#727272" d="M30.806,202.841c0,0-0.036,0.222-0.035,0.222
	c-1.431-0.211-2.232-0.289-3.348,1.486c-3.812,6.067-6.506,12.893-11.712,18.052c-0.335-0.55-0.671-1.101-1.006-1.65
	c3.285-5.341,6.504-10.724,9.887-16.002C26.016,202.726,27.715,200.516,30.806,202.841z"/>
<path fill-rule="evenodd" clip-rule="evenodd" fill="#454545" d="M429.579,60.469c-4.936-0.558-9.883,1.587-14.813-0.066
	c-0.035-0.578-0.069-1.155-0.104-1.732c7.349,0.45,14.69-1.915,22.588-0.838c-1.561,2.461-3.694,1.317-4.898,2.517
	C431.427,60.389,430.502,60.429,429.579,60.469z"/>
<path fill-rule="evenodd" clip-rule="evenodd" fill="#454545" d="M51.488,78.743c-0.571,2.205-1.857,1.452-3.129,0.755
	c-1.891-2.774-0.292-4.735,1.748-6.278c1.904-1.439,4.356-2.223,2.047-5.372c-0.545-0.744,0.266-2.482,0.455-3.763
	c0,0,0.018-0.078,0.017-0.077c0.339-0.174,0.679-0.349,1.018-0.523c0.842,0.006,1.685,0.012,2.526,0.018
	c-2.053,1.95-4.82,3.909,0.047,5.796c0.94,0.364,1.918,0.752,1.687,1.991c-0.181,0.968-1.143,0.982-1.914,1.275
	c-1.847,0.699-3.66,1.46-5.131,2.898C49.31,76.977,49.666,77.959,51.488,78.743z"/>
<path fill-rule="evenodd" clip-rule="evenodd" fill="#727272" d="M353.689,160.396c-0.479,0.478-0.957,0.954-1.436,1.432
	c-1.418-2.21-2.979-2.778-5.774-1.857c-5.598,1.845-8.632-0.934-7.965-6.647c0.112-0.968-0.114-2.159,1.342-2.14
	c1.581,0.021,1.201,1.236,1.042,2.153c-0.883,5.109,1.814,5.341,5.466,3.906C349.959,155.829,352.451,156.547,353.689,160.396z"/>
<path fill-rule="evenodd" clip-rule="evenodd" fill="#727272" d="M238.409,237.43c-1.19-0.563-2.129-1.398-2.777-2.552
	c-0.167-0.634,0.075-1.593-1.119-1.409c0,0,0.039,0.063,0.04,0.063c-0.635-5.672-4.726-10.288-4.921-16.094l-0.072,0.081
	C234.208,223.4,238.065,229.634,238.409,237.43z"/>
<path fill-rule="evenodd" clip-rule="evenodd" fill="#727272" d="M119.055,238.234c-6.489,2.39-13.173,2.796-19.947,2.296
	c-0.052-0.474-0.104-0.946-0.157-1.42c6.635-0.84,13.27-1.681,19.904-2.521C118.921,237.138,118.988,237.686,119.055,238.234z"/>
<path fill-rule="evenodd" clip-rule="evenodd" fill="#454545" d="M332.886,239.451c3.455,5.181,1.636,12.577-4.612,17.753
	C330.362,250.626,333.934,245.606,332.886,239.451z"/>
<path fill-rule="evenodd" clip-rule="evenodd" fill="#727272" d="M150.768,215.602c-0.038,0.564-0.075,1.13-0.113,1.694
	c-5.149-0.817-9.23-3.638-13.042-6.96c0.11-0.751,0.221-1.501,0.331-2.252C141.183,212.356,146.61,212.896,150.768,215.602z"/>
<path fill-rule="evenodd" clip-rule="evenodd" fill="#727272" d="M113.043,130.181c0-5.863,0-11.728,0-17.592
	C114.766,118.403,114.686,124.277,113.043,130.181z"/>
<path fill-rule="evenodd" clip-rule="evenodd" fill="#727272" d="M188.68,75.464c-0.737,0.037-1.504,0.166-1.986-0.617
	c0.072-3.312,0.116-6.623,0.23-9.934c0.038-1.081-0.211-2.642,1.485-2.529c1.281,0.086,1.165,1.336,0.991,2.354
	C188.796,68.289,190.204,71.975,188.68,75.464z"/>
<path fill-rule="evenodd" clip-rule="evenodd" fill="#727272" d="M212.708,254.377c0.416-0.438,0.831-0.875,1.247-1.313
	c3.079,2.518,5.119,7.02,11.107,4.64C220.844,262.077,217.604,260.93,212.708,254.377z"/>
<path fill-rule="evenodd" clip-rule="evenodd" fill="#727272" d="M130.587,96.446c0.19,0.25,0.257,0.533,0.203,0.848
	c-3.051-0.07-4.342,3.263-7.198,3.683c-1.85,0.272-3.573,1.637-6.298,0.457C121.414,97.809,126.497,98.36,130.587,96.446z"/>
<path fill-rule="evenodd" clip-rule="evenodd" fill="#454545" d="M14.705,220.95c0.335,0.55,0.67,1.101,1.006,1.65
	c0.272,3.203,2.293,6.075,1.813,10.654c-3.376-4.014-3.843-8.033-4.45-11.934C12.973,220.678,14.064,220.759,14.705,220.95z"/>
<path fill-rule="evenodd" clip-rule="evenodd" fill="#727272" d="M374.571,163.563c-2.134,1.76-3.567,0.385-4.974-1.112
	c1.687,0.394,2.128-0.347,2.254-1.983c0.196-2.572,0.699-5.149,3.671-6.148c0.053,0.596,0.104,1.191,0.157,1.787
	C374.189,158.426,373.845,160.915,374.571,163.563z"/>
<path fill-rule="evenodd" clip-rule="evenodd" fill="#454545" d="M235.625,206.57c-1.517-2.104-1.853-4.621-2.064-7.155
	c-0.066-0.793,0.012-1.749,1.11-1.822c0.995-0.065,1.484,0.777,1.588,1.554c0.318,2.37,0.479,4.762,0.701,7.145
	C236.516,206.385,236.071,206.478,235.625,206.57z"/>
<path fill-rule="evenodd" clip-rule="evenodd" fill="#727272" d="M414.662,58.67c0.035,0.577,0.069,1.154,0.104,1.732
	c-0.441,0.204-0.909,0.367-1.319,0.621c-1.476,0.913,0.575,4.597-2.224,3.771c-1.865-0.551-1.021-3.576-0.705-5.407
	C411.133,55.819,413.31,59.224,414.662,58.67z"/>
<path fill-rule="evenodd" clip-rule="evenodd" fill="#454545" d="M137.943,208.084c-0.11,0.751-0.221,1.501-0.331,2.252
	c-2.437,0.102-1.897-1.823-1.95-3.105c-0.164-3.911-0.159-7.828-0.219-11.744c0.608-0.019,1.217-0.037,1.825-0.056
	C137.493,199.648,137.718,203.866,137.943,208.084z"/>
<path fill-rule="evenodd" clip-rule="evenodd" fill="#454545" d="M341.73,141.485c-1.298,2.617,3.873,5.188-0.46,8.181
	c-0.006-3.02-4.063-4.712-1.632-8.185C340.335,141.482,341.033,141.484,341.73,141.485z"/>
<path fill-rule="evenodd" clip-rule="evenodd" fill="#727272" d="M99.384,243.669c3.115,2.094,4.889,4.889,4.439,9.604
	C100.564,250.427,100.205,246.95,99.384,243.669z"/>
<path fill-rule="evenodd" clip-rule="evenodd" fill="#454545" d="M347.581,132.453c0.74,0.017,1.481,0.034,2.222,0.052
	c0.313,0.715,0.578,1.456,0.947,2.142c2.278,4.235,2.092,4.522-3.114,4.678c-0.009-0.612-0.018-1.226-0.026-1.839
	C350.017,135.794,346.669,134.136,347.581,132.453z"/>
<path fill-rule="evenodd" clip-rule="evenodd" fill="#727272" d="M347.609,137.485c0.009,0.613,0.018,1.227,0.026,1.839
	c-1.968,0.721-3.937,1.44-5.905,2.161c-0.697-0.001-1.395-0.003-2.092-0.004C341.113,137.791,344.23,137.377,347.609,137.485z"/>
<path fill-rule="evenodd" clip-rule="evenodd" fill="#727272" d="M67.224,204.736c1.507-0.058,3.015-0.115,4.522-0.173
	c-1.973,2.34,1.115,3.796,1.014,5.809c-0.606,0.066-1.212,0.132-1.818,0.198C68.96,209.1,68.649,206.563,67.224,204.736z"/>
<path fill-rule="evenodd" clip-rule="evenodd" fill="#727272" d="M403.611,153.592c-1.803,0.659-2.886,2.09-3.909,3.581
	c0.93-2.577,0.147-7.119,5.443-4.691C404.633,152.852,404.123,153.222,403.611,153.592z"/>
<path fill-rule="evenodd" clip-rule="evenodd" fill="#727272" d="M179.113,76.821c0,0,0.101-0.207,0.101-0.206
	c-3.08-2.718-1.173-5.718-0.417-8.649C179.647,70.883,179.616,73.842,179.113,76.821z"/>
<path fill-rule="evenodd" clip-rule="evenodd" fill="#727272" d="M229.543,210.845c1.636-0.929,3.386-1.255,5.736-0.969
	c-1.655,1.907-3.487,2.593-5.629,2.692C229.614,211.994,229.579,211.42,229.543,210.845z"/>
<path fill-rule="evenodd" clip-rule="evenodd" fill="#727272" d="M289.069,232.586c-0.633-0.148-1.265-0.297-1.897-0.446
	c1.391-1.28,2.271-4.871,4.786-1.058c-0.433,0.422-0.866,0.843-1.299,1.264C290.128,232.426,289.599,232.506,289.069,232.586z"/>
<path fill-rule="evenodd" clip-rule="evenodd" fill="#727272" d="M429.579,60.469c0.924-0.04,1.849-0.08,2.772-0.12
	c0.047,0.899,0.093,1.799,0.139,2.699c-0.292,0.462-0.584,0.924-0.876,1.386C429.433,63.883,430.16,61.84,429.579,60.469z"/>
<path fill-rule="evenodd" clip-rule="evenodd" fill="#727272" d="M169.644,79.471c0.367,0.528,0.734,1.057,1.102,1.585
	c-0.417,0.466-0.833,0.932-1.25,1.397c-0.982-0.282-2.24,0.343-2.932-0.894C167.857,81.257,168.058,79.343,169.644,79.471z"/>
<path fill-rule="evenodd" clip-rule="evenodd" fill="#454545" d="M375.679,156.106c-0.053-0.596-0.104-1.191-0.157-1.787
	c1.532-0.801,3.063-1.602,4.595-2.403c0.371,0.475,0.743,0.95,1.114,1.426C379.665,154.835,377.661,155.449,375.679,156.106z"/>
<path fill-rule="evenodd" clip-rule="evenodd" fill="#727272" d="M81.444,204.853c0.017-0.687,0.034-1.372,0.051-2.059
	c1.155-0.175,2.501-0.201,2.307,1.351C83.667,205.218,82.422,205.191,81.444,204.853z"/>
<path fill-rule="evenodd" clip-rule="evenodd" fill="#454545" d="M70.943,210.57c0.606-0.066,1.212-0.132,1.818-0.198
	c1.051,1.597,2.2,3.154,2.18,5.672C71.877,215.2,71.751,212.621,70.943,210.57z"/>
<path fill-rule="evenodd" clip-rule="evenodd" fill="#454545" d="M422.636,138.363c-0.141,0-0.303,0.05-0.373-0.01
	c-0.224-0.188-0.521-0.386-0.589-0.635c-0.106-0.387,0.119-0.431,0.429-0.056C422.285,137.883,422.449,138.116,422.636,138.363z"/>
<path fill-rule="evenodd" clip-rule="evenodd" fill="#727272" d="M226.609,213.492c0.006-0.635,0.012-1.27,0.019-1.904
	c0.608-0.123,1.216-0.246,1.824-0.369c0.067,0.602,0.135,1.203,0.202,1.805C228.049,213.516,227.392,213.778,226.609,213.492z"/>
<path fill-rule="evenodd" clip-rule="evenodd" fill="#454545" d="M290.659,232.346c0.433-0.421,0.866-0.842,1.299-1.264
	c0.81,0.239,1.867,0.688,1.273,1.57C292.524,233.703,291.48,232.909,290.659,232.346z"/>
<path fill-rule="evenodd" clip-rule="evenodd" fill="#727272" d="M227.526,216.153c-0.104-0.168-0.109-0.34-0.017-0.516
	c1.012,0.269,1.98,0.585,2.05,1.881c0,0,0.072-0.081,0.072-0.081C228.89,217.074,228.656,215.88,227.526,216.153z"/>
<path fill-rule="evenodd" clip-rule="evenodd" fill="#727272" d="M54.087,178.861c-0.079-0.321-0.138-0.47-0.137-0.617
	c0-0.042,0.173-0.083,0.267-0.125C54.183,178.313,54.149,178.507,54.087,178.861z"/>
<path fill-rule="evenodd" clip-rule="evenodd" fill="#454545" d="M403.611,153.592c0.512-0.37,1.022-0.74,1.534-1.11
	C405.312,153.788,404.78,154.131,403.611,153.592z"/>
<path fill-rule="evenodd" clip-rule="evenodd" fill="#454545" d="M228.654,213.023c-0.067-0.602-0.135-1.203-0.202-1.805
	c0.364-0.124,0.728-0.248,1.091-0.373c0.036,0.574,0.071,1.148,0.106,1.723C229.318,212.72,228.986,212.872,228.654,213.023z"/>
</svg>
