<?xml version="1.0" encoding="utf-8"?>
<!-- Generator: Adobe Illustrator 16.0.0, SVG Export Plug-In . SVG Version: 6.00 Build 0)  -->
<!DOCTYPE svg PUBLIC "-//W3C//DTD SVG 1.1//EN" "http://www.w3.org/Graphics/SVG/1.1/DTD/svg11.dtd">
<svg version="1.1" id="Calque_1" xmlns="http://www.w3.org/2000/svg" xmlns:xlink="http://www.w3.org/1999/xlink" x="0px" y="0px"
	 width="841.89px" height="595.28px" viewBox="0 0 841.89 595.28" enable-background="new 0 0 841.89 595.28" xml:space="preserve">
<path fill="#6CC04A" d="M503.238,226.746c-4.539-2.936-8.52,13.244-18.912,21.293c-14.244,11.02-42.85,14.824-42.622,1.805
	c0.188-10.889,24.124-5.42,30.122-15.809c6-10.385,8.436-4.941,10.473-16.741c2.035-11.806-11.658-16.802-25.816-7.531
	c-14.158,9.274-8.807,26.329-20.232,26.803c-9.707,0.401-9.701-14.356-1.215-31.755c-2.845-6.945-5.576-16.537-14.352-18.443
	c-15.332-3.332-27.098-16.461-30.238-11.607c-2.936,4.539,13.244,8.52,21.291,18.914c11.022,14.242,14.825,42.848,1.807,42.621
	c-10.889-0.189-5.422-24.123-15.811-30.123c-10.383-6-4.939-8.436-16.74-10.471c-11.805-2.037-16.801,11.656-7.531,25.814
	c9.273,14.158,26.33,8.807,26.805,20.232c0.4,9.709-14.358,9.703-31.758,1.215c-6.943,2.844-16.537,5.576-18.443,14.352
	c-3.332,15.332-16.461,27.098-11.607,30.238c4.539,2.936,8.52-13.244,18.914-21.291c14.242-11.021,42.848-14.824,42.621-1.807
	c-0.189,10.889-24.123,5.422-30.123,15.811c-5.999,10.383-8.435,4.939-10.471,16.74c-2.037,11.805,11.656,16.801,25.815,7.532
	c14.157-9.274,8.806-26.331,20.231-26.805c9.709-0.4,9.703,14.359,1.216,31.758c2.844,6.943,5.576,16.537,14.351,18.443
	c15.334,3.332,27.099,16.461,30.241,11.607c2.936-4.539-13.244-8.52-21.293-18.912c-11.02-14.244-14.825-42.85-1.805-42.624
	c10.889,0.189,5.42,24.125,15.809,30.124c10.385,6,4.941,8.436,16.741,10.473c11.806,2.035,16.802-11.658,7.531-25.817
	c-9.274-14.158-26.329-8.807-26.803-20.232c-0.401-9.707,14.356-9.703,31.755-1.217c6.944-2.844,16.537-5.576,18.443-14.352
	C494.963,241.652,508.092,229.886,503.238,226.746z"/>
<g>
	<path fill="#FFFFFF" d="M338.456,287.552c4.538,2.936,8.52-13.244,18.914-21.291c14.241-11.021,42.848-14.824,42.621-1.807
		c-0.189,10.889-24.123,5.422-30.123,15.811c-5.999,10.383-8.435,4.939-10.471,16.74c-2.037,11.805,11.656,16.801,25.815,7.532
		c14.157-9.274,8.806-26.331,20.232-26.805c11.425-0.471,9.403,20.051-4.073,41.167c-10.291,16.119-32.287,34.098-61.787,63.605
		c-29.502,29.506-46.331-20.434-45.199-36.307c1.133-15.875-7.428-50.094-10.732-63.122c-3.646-14.373,8.745-39.582,14.726-37.09
		c8.482,3.535-0.484,19.314,0.708,27.578c1.215,8.453,2.828,12.018,2.828,12.018s4.226-12.053,5.655-25.453
		c1.605-15.088,24.171-36.782,29.346-30.053c7.07,9.191-11.098,15.721-13.079,25.811c-1.844,9.352-3.469,20.18-3.469,20.18
		s5.604-16.057,14.019-27.344c10.239-13.727,36.032-26.168,40.931-14.895c4.896,11.271-21.923,8.152-25.254,23.486
		C346.731,272.646,333.602,284.412,338.456,287.552z"/>
	<path fill="#FFFFFF" d="M503.237,226.746c-4.539-2.936-8.52,13.244-18.912,21.293c-14.244,11.02-42.849,14.824-42.622,1.805
		c0.188-10.889,24.123-5.42,30.122-15.809c6-10.385,8.435-4.941,10.473-16.741c2.035-11.806-11.658-16.802-25.816-7.531
		c-14.158,9.274-8.807,26.329-20.232,26.803c-11.424,0.473-9.403-20.05,4.072-41.165c10.29-16.119,32.287-34.097,61.788-63.602
		c29.501-29.508,46.331,20.432,45.199,36.305c-1.133,15.873,7.427,50.092,10.731,63.12c3.645,14.372-8.745,39.581-14.726,37.091
		c-8.483-3.535,0.485-19.316-0.707-27.578c-1.216-8.453-2.827-12.019-2.827-12.019s-4.229,12.052-5.657,25.454
		c-1.606,15.088-24.169,36.779-29.346,30.053c-7.07-9.193,11.098-15.721,13.079-25.811c1.844-9.354,3.469-20.182,3.469-20.182
		s-5.604,16.059-14.018,27.344c-10.239,13.729-36.033,26.17-40.931,14.895c-4.898-11.27,21.923-8.152,25.252-23.486
		C494.962,241.652,508.092,229.886,503.237,226.746z"/>
	<path fill="#FFFFFF" d="M390.445,174.759c-2.938,4.539,13.243,8.52,21.29,18.914c11.022,14.242,14.826,42.848,1.807,42.621
		c-10.889-0.189-5.422-24.123-15.811-30.123c-10.383-6-4.94-8.436-16.74-10.471c-11.805-2.037-16.801,11.656-7.532,25.814
		c9.274,14.158,26.331,8.807,26.806,20.232c0.471,11.426-20.051,9.404-41.166-4.072c-16.12-10.291-34.098-32.287-63.604-61.787
		c-29.507-29.502,20.433-46.332,36.306-45.199c15.875,1.133,50.093-7.428,63.121-10.732c14.373-3.645,39.583,8.744,37.09,14.725
		c-3.535,8.484-19.316-0.484-27.579,0.709c-8.454,1.215-12.018,2.828-12.018,2.828s12.053,4.227,25.453,5.654
		c15.088,1.607,36.783,24.172,30.053,29.346c-9.192,7.07-15.721-11.098-25.81-13.078c-9.353-1.844-20.181-3.469-20.181-3.469
		s16.057,5.604,27.344,14.018c13.727,10.24,26.168,36.033,14.895,40.932c-11.271,4.896-8.152-21.924-23.487-25.254
		C405.35,183.035,393.584,169.906,390.445,174.759z"/>
	<path fill="#FFFFFF" d="M451.251,339.541c2.936-4.539-13.244-8.52-21.292-18.912c-11.021-14.244-14.826-42.85-1.806-42.624
		c10.889,0.189,5.42,24.125,15.809,30.124c10.385,6,4.941,8.436,16.741,10.473c11.805,2.035,16.802-11.658,7.531-25.817
		c-9.275-14.158-26.329-8.807-26.803-20.232c-0.473-11.424,20.05-9.404,41.165,4.072c16.119,10.291,34.097,32.288,63.602,61.788
		c29.508,29.502-20.432,46.332-36.306,45.201c-15.873-1.133-50.092,7.426-63.119,10.73c-14.372,3.645-39.583-8.744-37.091-14.725
		c3.534-8.484,19.316,0.484,27.578-0.707c8.454-1.217,12.02-2.828,12.02-2.828s-12.052-4.229-25.454-5.656
		c-15.088-1.607-36.781-24.17-30.053-29.348c9.192-7.068,15.72,11.1,25.81,13.08c9.354,1.844,20.183,3.469,20.183,3.469
		s-16.059-5.605-27.345-14.018c-13.728-10.24-26.17-36.033-14.894-40.932c11.269-4.897,8.151,21.924,23.485,25.254
		C436.344,331.266,448.109,344.395,451.251,339.541z"/>
</g>
<g>
	<path fill="#6CC04A" d="M235.86,475.979c-8.789,0-15.658-2.426-20.605-7.275c-4.948-4.852-7.422-11.719-7.422-20.605
		c0-9.148,2.286-16.219,6.86-21.217c4.573-4.996,10.896-7.494,18.97-7.494c7.715,0,13.721,2.197,18.018,6.592
		s6.445,10.465,6.445,18.213v7.227H222.92c0.162,4.23,1.416,7.535,3.76,9.912c2.344,2.375,5.631,3.564,9.863,3.564
		c3.287,0,6.396-0.342,9.326-1.025s5.989-1.775,9.18-3.271v11.523c-2.604,1.301-5.388,2.27-8.35,2.904
		C243.737,475.66,240.124,475.979,235.86,475.979z M233.76,429.982c-3.158,0-5.632,1-7.422,3.002
		c-1.791,2.002-2.816,4.842-3.076,8.521h20.898c-0.065-3.68-1.025-6.52-2.881-8.521S236.917,429.982,233.76,429.982z
		 M225.167,414.406v-1.318c5.599-6.512,9.424-11.41,11.475-14.697h16.699v1.025c-1.693,1.691-4.582,4.207-8.667,7.543
		c-4.086,3.338-7.284,5.818-9.595,7.447H225.167z"/>
	<path fill="#6CC04A" d="M291.063,475.979c-16.992,0-25.488-9.326-25.488-27.979c0-9.277,2.311-16.365,6.934-21.266
		c4.622-4.898,11.246-7.348,19.873-7.348c6.314,0,11.979,1.236,16.992,3.711l-4.395,11.523c-2.344-0.945-4.525-1.717-6.543-2.32
		c-2.019-0.602-4.037-0.902-6.055-0.902c-7.748,0-11.621,5.5-11.621,16.504c0,10.676,3.873,16.016,11.621,16.016
		c2.864,0,5.518-0.383,7.959-1.148c2.441-0.764,4.883-1.961,7.324-3.588v12.744c-2.409,1.529-4.843,2.588-7.3,3.174
		C297.907,475.686,294.806,475.979,291.063,475.979z"/>
	<path fill="#6CC04A" d="M367.041,447.609c0,8.887-2.344,15.836-7.031,20.85c-4.688,5.012-11.215,7.52-19.58,7.52
		c-5.241,0-9.863-1.148-13.867-3.443s-7.08-5.59-9.229-9.887s-3.223-9.311-3.223-15.039c0-8.92,2.327-15.854,6.982-20.801
		c4.654-4.949,11.197-7.422,19.629-7.422c5.24,0,9.863,1.139,13.867,3.418c4.004,2.277,7.08,5.549,9.229,9.814
		C365.966,436.883,367.041,441.879,367.041,447.609z M329.296,447.609c0,5.402,0.887,9.488,2.661,12.256
		c1.773,2.766,4.663,4.15,8.667,4.15c3.971,0,6.827-1.375,8.569-4.127c1.741-2.75,2.612-6.844,2.612-12.279
		c0-5.404-0.879-9.457-2.637-12.158c-1.758-2.703-4.639-4.053-8.643-4.053c-3.972,0-6.836,1.342-8.594,4.027
		S329.296,442.172,329.296,447.609z"/>
	<path fill="#6CC04A" d="M399.963,464.113c2.604,0,5.729-0.57,9.375-1.709v11.084c-3.711,1.66-8.269,2.49-13.672,2.49
		c-5.957,0-10.295-1.506-13.013-4.518c-2.719-3.01-4.077-7.527-4.077-13.549v-26.318h-7.129v-6.299l8.203-4.98l4.297-11.523h9.521
		v11.621h15.283v11.182h-15.283v26.318c0,2.115,0.594,3.678,1.782,4.688C396.439,463.607,398.01,464.113,399.963,464.113z"/>
	<path fill="#6CC04A" d="M448.673,419.387c2.018,0,3.694,0.146,5.029,0.439l-1.123,13.965c-1.205-0.326-2.67-0.488-4.395-0.488
		c-4.753,0-8.456,1.221-11.108,3.662c-2.653,2.441-3.979,5.859-3.979,10.254v27.783h-14.893v-54.59h11.28l2.197,9.18h0.732
		c1.692-3.061,3.979-5.525,6.86-7.398C442.154,420.322,445.287,419.387,448.673,419.387z"/>
	<path fill="#6CC04A" d="M485.991,475.979c-8.789,0-15.658-2.426-20.605-7.275c-4.948-4.852-7.422-11.719-7.422-20.605
		c0-9.148,2.286-16.219,6.86-21.217c4.573-4.996,10.896-7.494,18.97-7.494c7.715,0,13.721,2.197,18.018,6.592
		s6.445,10.465,6.445,18.213v7.227h-35.205c0.162,4.23,1.416,7.535,3.76,9.912c2.344,2.375,5.631,3.564,9.863,3.564
		c3.287,0,6.396-0.342,9.326-1.025s5.989-1.775,9.18-3.271v11.523c-2.604,1.301-5.388,2.27-8.35,2.904
		C493.868,475.66,490.255,475.979,485.991,475.979z M483.745,414.406c-2.051-1.434-5.063-3.752-9.033-6.959
		c-3.972-3.205-7.064-5.883-9.277-8.031v-1.025h16.699c2.051,3.287,5.875,8.186,11.475,14.697v1.318H483.745z M483.892,429.982
		c-3.158,0-5.632,1-7.422,3.002c-1.791,2.002-2.816,4.842-3.076,8.521h20.898c-0.065-3.68-1.025-6.52-2.881-8.521
		S487.049,429.982,483.892,429.982z"/>
	<path fill="#6CC04A" d="M549.632,431.594h-12.891v43.408h-14.893v-43.408h-8.203v-7.178l8.203-4.004v-4.004
		c0-6.219,1.529-10.76,4.59-13.623c3.06-2.865,7.959-4.297,14.697-4.297c5.143,0,9.717,0.764,13.721,2.295l-3.809,10.938
		c-2.995-0.945-5.762-1.416-8.301-1.416c-2.116,0-3.646,0.627-4.59,1.879c-0.944,1.254-1.416,2.857-1.416,4.811v3.418h12.891
		V431.594z M573.069,475.002h-14.893v-75.977h14.893V475.002z"/>
	<path fill="#6CC04A" d="M611.792,475.979c-8.789,0-15.658-2.426-20.605-7.275c-4.948-4.852-7.422-11.719-7.422-20.605
		c0-9.148,2.286-16.219,6.86-21.217c4.573-4.996,10.896-7.494,18.97-7.494c7.715,0,13.721,2.197,18.018,6.592
		s6.445,10.465,6.445,18.213v7.227h-35.205c0.162,4.23,1.416,7.535,3.76,9.912c2.344,2.375,5.631,3.564,9.863,3.564
		c3.287,0,6.396-0.342,9.326-1.025s5.989-1.775,9.18-3.271v11.523c-2.604,1.301-5.388,2.27-8.35,2.904
		C619.669,475.66,616.056,475.979,611.792,475.979z M609.692,429.982c-3.158,0-5.632,1-7.422,3.002
		c-1.791,2.002-2.816,4.842-3.076,8.521h20.898c-0.065-3.68-1.025-6.52-2.881-8.521S612.85,429.982,609.692,429.982z"/>
</g>
</svg>
