<?xml version="1.0" encoding="utf-8"?>
<!-- Generator: Adobe Illustrator 16.0.0, SVG Export Plug-In . SVG Version: 6.00 Build 0)  -->
<!DOCTYPE svg PUBLIC "-//W3C//DTD SVG 1.1//EN" "http://www.w3.org/Graphics/SVG/1.1/DTD/svg11.dtd">
<svg version="1.1" id="Calque_1" xmlns="http://www.w3.org/2000/svg" xmlns:xlink="http://www.w3.org/1999/xlink" x="0px" y="0px"
	 width="561.259px" height="297.638px" viewBox="0 0 561.259 297.638" enable-background="new 0 0 561.259 297.638"
	 xml:space="preserve">
<g>
	<path fill-rule="evenodd" clip-rule="evenodd" fill="#545454" d="M334.394,207.588c1.218,11.213,6.031,15.407,16.95,18.205
		c11.033,2.828,22.204,0.779,33.18,2.601c4.577,0.76,9.255,0.94,13.888,2.733c-2.904,1.599-5.646,0.563-8.366,0.384
		c-9.122-0.599-18.246-1.177-27.373-1.693c-1.6-0.091-3.667-1.133-3.778,2.239c-0.032,0.972-2.939,0.506-4.563-0.007
		c-4.115-1.302-8.361-1.961-12.604-2.742c-11.433-2.106-21.384,3.396-31.967,5.642c-3.034,0.644-5.688,1.443-9.254-0.02
		c-3.467-1.421-7.891,0.693-11.686,4.004c12.166,4.969,23.711,0.773,35.217,0.687c-9.592,4.236-19.614,4.61-29.83,3.167
		c-1.307-0.185-2.569-0.895-3.859-0.915c-1.447-0.023-3.035,0.803-3.686-1.284c-0.572-1.833,0.15-3.321,1.559-4.401
		c3.271-2.511,6.783-4.336,11.002-2.388c2.086,0.964,4.207,0.915,6.213,0.231c8.881-3.024,18.076-5.187,26.482-9.555
		c0.473-0.246,3.31-3.122,2.396,1.324c-0.201,0.979,4.528,0.357,8.185,0.827c-6.567-5.5-11.015-11.051-9.986-19.164
		C333.141,207.505,333.768,207.547,334.394,207.588z M358.017,229.385c-0.917,0.229-1.445,0.492-1.226,1.294
		c0.163,0.591,0.308,1.232,1.167,1.167c1.022-0.076,1.365-0.833,1.229-1.601C359.118,229.859,358.333,229.602,358.017,229.385z"/>
	<path fill-rule="evenodd" clip-rule="evenodd" fill="#545454" d="M248.813,263.752c19.239,2.189,38.755,0.015,57.914,3.837
		c5.41,1.08,10.986,0.289,16.259-1.447c5.337-1.758,10.771-2.049,16.235-1.396c7.679,0.917,15.235,0.652,22.763-1.152
		c1.517-0.363,3.216-0.765,5.126,0.662c-3.799,2.293-7.784,2.957-11.773,3.158c-4.982,0.251-9.992,0.22-14.979,0.019
		c-7.054-0.285-13.885-0.898-20.901,1.843c-7.266,2.84-15.076,1.138-22.617-0.405c-6.12-1.253-12.146-2.308-18.591-1.621
		c-9.773,1.042-19.58-0.834-29.384-1.23C248.846,265.263,248.83,264.507,248.813,263.752z"/>
	<path fill-rule="evenodd" clip-rule="evenodd" fill="#545454" d="M412.791,233.683c10.232-1.051,20.254-2.915,29.798-6.996
		c2.236-0.956,4.845-1.492,7.276-1.471c18.565,0.161,36.623-3.006,54.444-7.896c2.076-0.57,4.176-1.056,6.264-1.581
		c0.066,0.611,0.133,1.224,0.199,1.835c-12.362,5.004-25.364,7.198-38.489,9c-7.597,1.043-15.221,0.988-22.838,1.361
		c-6.36,0.313-11.928,3.613-18.038,4.949c-6.163,1.348-12.251,3.017-18.651,2.459C412.767,234.79,412.779,234.236,412.791,233.683z"
		/>
	<path fill-rule="evenodd" clip-rule="evenodd" fill="#545454" d="M89.5,177.237c-0.024-9.785,0.303-19.532,3.083-29.025
		c0.262-0.894-0.053-2.318,1.416-2.023c1.202,0.241,1.06,1.452,0.823,2.477c-6.158,26.594-2.214,52.652,4.276,78.548
		c1.325,5.287,2.486,10.646,4.66,15.699c0.276,0.641,0.416,1.819,0.059,2.156c-0.817,0.771-1.625-0.133-1.903-0.797
		c-0.882-2.102-1.62-4.269-2.325-6.438C93.181,218.143,89.27,198.034,89.5,177.237z"/>
	<path fill-rule="evenodd" clip-rule="evenodd" fill="#909090" d="M499.478,142.075c-32.214,2.501-64.428,5.002-96.642,7.504
		C434.795,144.171,467.028,142.314,499.478,142.075z"/>
	<path fill-rule="evenodd" clip-rule="evenodd" fill="#545454" d="M237.343,259.75c-6.428,5.355-14.291,6.802-21.966,8.492
		c-13.771,3.031-27.619,3.51-41.549,0.434c-2.007-0.443-2.53-2.43-4.382-2.459c1.544-0.017,3.171-0.362,4.62,0.001
		c17.817,4.465,35.133,1.466,52.341-3.344C230.057,261.854,233.697,260.793,237.343,259.75z"/>
	<path fill-rule="evenodd" clip-rule="evenodd" fill="#545454" d="M445.685,35.541c26.561-3.601,51.768,0.909,75.963,11.484
		c-0.112,0.553-0.225,1.105-0.337,1.658c-6.712-2.04-13.387-4.219-20.146-6.093c-16.397-4.548-33.025-7.109-50.112-5.35
		c-1.808,0.186-3.653,0.003-5.481-0.009C445.61,36.669,445.648,36.105,445.685,35.541z"/>
	<path fill-rule="evenodd" clip-rule="evenodd" fill="#909090" d="M275.751,105.498c-2.82-6.437,1.822-7.042,6.188-8.169
		c5.924-1.529,11.73-3.524,17.682-4.923c1.34-0.314,4.521-3.613,4.82,1.676c0.081,1.428,3.021-1.661,5.577,0.439
		c-9.864,4.995-20.485,8.32-27.355,17.343c3.155-8.859,11.148-11.983,18.298-16.089c0.505-0.306,1.01-0.611,1.515-0.916
		c-0.758-0.649-1.474-0.289-2.189,0.088c-5.526,1.485-11.017,3.123-16.59,4.399c-3.48,0.796-5.93,2.229-6.182,6.102
		C276.927,105.465,276.339,105.481,275.751,105.498z"/>
	<path fill-rule="evenodd" clip-rule="evenodd" fill="#909090" d="M107.926,255.243c3.402,5.659,7.263,2.951,10.927,1.92
		c7.335-2.063,14.795-2.019,22.291-1.523c1.069,0.07,2.347-0.041,3.066,1.695c-4.846,1.286-9.668,0.369-14.367,0.89
		c-2.17,0.241-3.405,0.456-3.659,3.328c-0.39,4.413-3.244,7.916-6.199,11.143c-1.419,1.55-2.177,1.553-3.711-0.435
		C112.596,267.495,110.563,261.947,107.926,255.243z M123.272,259.009c-1.137,0.169-2.282,0.297-3.41,0.514
		c-7.72,1.479-7.922,2.155-4.101,9.04c1.62,2.918,2.803,2.05,4.164,0.114c1.892-2.689,3.429-5.582,4.402-8.742
		c0.345-0.3,0.759-0.705,0.233-1.042C124.275,258.709,123.711,258.956,123.272,259.009z"/>
	<path fill-rule="evenodd" clip-rule="evenodd" fill="#909090" d="M41.424,126.836c21.938,4.797,42.761,2.874,63.532,2.32
		C97.811,134.586,49.333,133.104,41.424,126.836z"/>
	<path fill-rule="evenodd" clip-rule="evenodd" fill="#545454" d="M331.566,205.563c-0.939-0.017-1.88-0.034-2.82-0.052
		c-1.003-0.029-2.007-0.06-3.01-0.089c-3.046,0.087-6.04-0.245-8.97-1.103c-0.026-0.576-0.053-1.152-0.079-1.729
		c20.122,2.604,40.12-1.175,60.209-1.118c-13.809,3.513-27.912,3.963-42.043,4.135C333.757,205.593,332.662,205.578,331.566,205.563
		z"/>
	<path fill-rule="evenodd" clip-rule="evenodd" fill="#909090" d="M151.037,130.324c13.259-14.059,27.457-26.885,46.56-32.979
		C180.099,105.626,165.988,118.522,151.037,130.324z"/>
	<path fill-rule="evenodd" clip-rule="evenodd" fill="#909090" d="M69.947,227.446c-7.808,1.789-17.125,0.104-18.829,9.378
		c-1.772,9.647,5.426,13.863,14.937,16.184c-6.929,1.686-12.331-0.802-15.475-6.074c-3.394-5.691-3.191-12.349,0.494-16.207
		C55.125,226.485,63.912,224.576,69.947,227.446z"/>
	<path fill-rule="evenodd" clip-rule="evenodd" fill="#909090" d="M105.13,133.66c4.5,0.571,5.96,3.477,6.971,6.283
		c0.805,2.236,1.727,2.135,3.534,1.579c4.108-1.264,8.288-2.296,12.416-3.498c1.742-0.508,3.431-1.138,5.226-0.142
		c-0.175,1.936-1.94,1.686-3.005,2.01c-9.495,2.886-18.979,5.832-28.702,7.894c-1.55,0.329-3.898,1.528-4.361-0.344
		c-0.611-2.472,2.18-1.717,3.56-1.984C111.456,143.389,111.462,143.42,105.13,133.66z"/>
	<path fill-rule="evenodd" clip-rule="evenodd" fill="#545454" d="M332.62,241.438c20.144-6.119,39.614,3.942,36.645,16.642
		c-0.277-0.066-0.771-0.081-0.802-0.209c-2.984-12.251-12.408-15.456-23.276-16.375C341.026,241.144,336.81,241.438,332.62,241.438z
		"/>
	<path fill-rule="evenodd" clip-rule="evenodd" fill="#909090" d="M394.743,28.504c-0.255,0.743-2.93,0.47-0.944,2.124
		c1.327,1.106,3.583,0.827,4.556,3.056c-1.805,1.432-3.541,0.482-5.002-0.212c-10.154-4.818-21.496-4.858-32.055-8.046
		c-2.72-0.821-5.046,1.117-7.425,2.21c-0.429-0.423-0.857-0.845-1.285-1.267c3.022-3.533,6.457-4.323,10.453-1.612
		c0.675,0.458,1.542,1.245,2.144,1.108c8.193-1.872,15.808,1.272,23.631,2.569c0.32,0.053,0.662-0.022,0.993-0.038
		C391.452,28.433,393.097,28.468,394.743,28.504z"/>
	<path fill-rule="evenodd" clip-rule="evenodd" fill="#545454" d="M382.821,61.835c6.342,1.326,12.538-0.663,18.818-0.862
		c7.423-0.235,14.82-1.376,23.133-0.64c-7.148,2.955-13.932,2.57-20.538,3.049c-8.934,0.646-17.863,1.182-26.675,2.899
		c0.063-0.575,0.128-1.15,0.191-1.726l0.06-0.008C379.995,64.593,381.829,63.992,382.821,61.835z"/>
	<path fill-rule="evenodd" clip-rule="evenodd" fill="#909090" d="M206.098,219.473c-8.321-9.552-3.167-33.493,8.827-41.269
		C205.993,190.688,201.5,204.084,206.098,219.473z"/>
	<path fill-rule="evenodd" clip-rule="evenodd" fill="#545454" d="M58.933,273.128c15.156-1.832,30.287-2.929,46.571,1.504
		c-16.497-0.432-31.662-0.729-46.826-0.032C58.763,274.108,58.848,273.618,58.933,273.128z"/>
	<path fill-rule="evenodd" clip-rule="evenodd" fill="#909090" d="M250.654,91.824c-14.38,3.438-29.004,4.489-43.73,4.646
		C221.356,93.625,235.934,92.028,250.654,91.824z"/>
	<path fill-rule="evenodd" clip-rule="evenodd" fill="#545454" d="M364.491,70.238c-12.267,5.237-23.413,12.711-36.602,16.738
		C334.55,81.113,359.576,69.378,364.491,70.238z"/>
	<path fill-rule="evenodd" clip-rule="evenodd" fill="#909090" d="M219.684,139.231c-6.498,11.793-11.12,24.143-13.095,38.025
		C202.593,170.054,212.809,141.525,219.684,139.231z"/>
	<path fill-rule="evenodd" clip-rule="evenodd" fill="#545454" d="M301.704,138.489c10.686-3.658,21.372-7.317,32.058-10.976
		c2.182-0.355,4.293-0.881,5.956-2.48c1.713-1.125,4.88,0.983,5.538-2.488l0.094,0.19c-0.111,2.257-0.921,3.681-3.381,4.465
		c-13.418,4.282-26.77,8.771-40.144,13.188C301.784,139.756,301.744,139.122,301.704,138.489z"/>
	<path fill-rule="evenodd" clip-rule="evenodd" fill="#909090" d="M398.67,135.576c-12.313-0.095-24.656-2.023-36.288,2.084
		C365.62,131.899,388.728,130.009,398.67,135.576z"/>
	<path fill-rule="evenodd" clip-rule="evenodd" fill="#909090" d="M201.608,183.02c-7.868,10.552-26.611,17.764-36.208,12.972
		C179.96,196.004,191.138,190.554,201.608,183.02z"/>
	<path fill-rule="evenodd" clip-rule="evenodd" fill="#545454" d="M368.91,57.804c-10.672-4.676-20.495-22.187-16.033-30.368
		C352.772,41.074,361.589,48.588,368.91,57.804z"/>
	<path fill-rule="evenodd" clip-rule="evenodd" fill="#909090" d="M244.351,165.055c-1.86-1.134-1.905-3.091-2.497-4.661
		c-2.737-7.257-4.538-15.012-11.12-20.147c-0.532-0.415-1-1.01-0.575-1.703c0.551-0.899,1.355-0.734,2.133-0.256
		c0.282,0.174,0.548,0.375,0.823,0.561C238.429,142.424,245.136,157.854,244.351,165.055z"/>
	<path fill-rule="evenodd" clip-rule="evenodd" fill="#909090" d="M377.2,82.296c-10.729,1.182-20.563,4.703-29.235,11.251
		C351.712,85.815,369.98,78.814,377.2,82.296z"/>
	<path fill-rule="evenodd" clip-rule="evenodd" fill="#545454" d="M404.867,26.897c8.348,0.308,16.035,3.809,24.202,5.005
		c2.092,0.307,4.153,0.826,6.115,1.902c-10.649,1.138-20.338-3.583-30.498-5.416C404.747,27.892,404.807,27.395,404.867,26.897z"/>
	<path fill-rule="evenodd" clip-rule="evenodd" fill="#545454" d="M282.015,152.952c0.982-1.69,1.949-3.393,3.58-4.576
		c0.4,0.401,0.801,0.803,1.201,1.204c-6.433,9.78-6.237,10.6,6.192,24.873c-3.986-0.178-6.063-2.738-8.36-4.91
		c0,0.001,0.038,0.037,0.038,0.037c-2.921-3.021-4.623-6.522-4.28-10.832C280.929,156.816,281.472,154.884,282.015,152.952z"/>
	<path fill-rule="evenodd" clip-rule="evenodd" fill="#545454" d="M257.535,124.947c-3.253,2.459-7.051,3.17-10.993,3.459
		c-6.896,0.506-13.425,2.989-20.315,3.619c9.674-5.679,20.496-6.325,31.315-6.982L257.535,124.947z"/>
	<path fill-rule="evenodd" clip-rule="evenodd" fill="#545454" d="M317.746,174.573c13.952-0.705,27.839-2.566,41.872-2.117
		c-13.78,3.575-27.976,2.769-41.993,3.806C317.665,175.699,317.706,175.136,317.746,174.573z"/>
	<path fill-rule="evenodd" clip-rule="evenodd" fill="#909090" d="M387.62,194.016c9.246,2.543,16.855-2.133,24.837-5.004
		C407.874,196.347,393.527,199.511,387.62,194.016z"/>
	<path fill-rule="evenodd" clip-rule="evenodd" fill="#545454" d="M309.431,176.76c-4.521,1.287-7.012,4.836-9.402,8.476
		c-2.645,4.024-0.077,7.425,1.95,11.204c-5.19-2.28-6.882-7.105-4.319-11.874c2.31-4.296,5.424-7.966,9.951-10.171
		C309.257,174.383,309.803,175.218,309.431,176.76z"/>
	<path fill-rule="evenodd" clip-rule="evenodd" fill="#909090" d="M282.015,152.952c-0.543,1.932-1.086,3.864-1.628,5.796
		c-0.802-0.758-2.437-0.999-2.226-2.395c0.963-6.35,0.7-12.627-1.063-18.909C282.041,141.729,280.313,147.848,282.015,152.952z"/>
	<path fill-rule="evenodd" clip-rule="evenodd" fill="#545454" d="M275.751,105.498c0.587-0.017,1.175-0.033,1.763-0.05
		c-1.696,8.866-7.205,14.723-14.889,18.861c-0.01-0.656-0.02-1.313-0.029-1.969C268.735,118.097,272.922,112.328,275.751,105.498z"
		/>
	<path fill-rule="evenodd" clip-rule="evenodd" fill="#909090" d="M70.833,233.151c8.152,4.277,9.508,14.335,2.288,19.64
		C75.827,245.334,75.539,238.945,70.833,233.151z"/>
	<path fill-rule="evenodd" clip-rule="evenodd" fill="#909090" d="M345.349,122.735l-0.094-0.19
		c-2.681-1.027-4.689-0.562-5.538,2.488c-1.663,1.6-3.774,2.125-5.956,2.48c2.881-7.289,9.768-8.472,16.107-11.255
		C350.115,120.273,344.379,118.897,345.349,122.735z"/>
	<path fill-rule="evenodd" clip-rule="evenodd" fill="#909090" d="M284.667,169.58c0,0-0.038-0.036-0.038-0.037
		c-1.25,1.788,0.262,3.078,0.82,4.541c1.655,4.323,2.915,8.69,1.676,13.417c-2.242,0.054-2.184-1.529-2.262-2.715
		c-0.289-4.313-0.891-8.44-3.109-12.348C279.845,169.077,284.048,170.938,284.667,169.58z"/>
	<path fill-rule="evenodd" clip-rule="evenodd" fill="#545454" d="M281.019,223.979c1.119-5.92,3.376-11.52,3.77-18.806
		C287.562,210.521,285.782,218.498,281.019,223.979z"/>
	<path fill-rule="evenodd" clip-rule="evenodd" fill="#909090" d="M278.836,94.864c-2.01-7.969-6.863-9.664-14.13-6.676
		c3.256-3.177,6.722-4.95,10.401-2.896C278.366,87.109,279.609,90.543,278.836,94.864z"/>
	<path fill-rule="evenodd" clip-rule="evenodd" fill="#545454" d="M296.889,135.761c-5.561,1.825-10.065-0.61-14.599-7.981
		C288.021,130.334,291.356,135.122,296.889,135.761z"/>
	<path fill-rule="evenodd" clip-rule="evenodd" fill="#909090" d="M286.796,149.58c-0.4-0.401-0.801-0.803-1.201-1.204
		c4.291-5.053,9.547-8.533,16.108-9.887c0.04,0.633,0.08,1.267,0.121,1.899C295.798,141.791,291.408,145.866,286.796,149.58z"/>
	<path fill-rule="evenodd" clip-rule="evenodd" fill="#909090" d="M326.643,245.37c2.404,3.672,2.792,7.723,1.957,11.997
		C326.109,253.752,326.485,249.544,326.643,245.37z"/>
	<path fill-rule="evenodd" clip-rule="evenodd" fill="#545454" d="M285.951,257.55c-1.735-3.572-0.937-6.759-1.124-9.842
		c-0.053-0.867,0.204-1.797,1.181-1.883c0.939-0.081,1.529,0.745,1.479,1.606C287.298,250.646,288.458,254.058,285.951,257.55z"/>
	<path fill-rule="evenodd" clip-rule="evenodd" fill="#909090" d="M309.431,176.76c0.372-1.542-0.174-2.377-1.82-2.365
		c2.661-1.699,2.612-1.584,6.196-0.052c1.138,0.486,2.616,0.176,3.938,0.23c-0.04,0.563-0.081,1.126-0.121,1.688
		C314.942,177.214,312.239,177.843,309.431,176.76z"/>
	<path fill-rule="evenodd" clip-rule="evenodd" fill="#909090" d="M325.736,205.422c1.003,0.029,2.007,0.06,3.01,0.089
		c-0.989,3.727,0.759,7.371,0.797,12.417C325.302,213.664,326.161,209.351,325.736,205.422z"/>
	<path fill-rule="evenodd" clip-rule="evenodd" fill="#909090" d="M382.821,61.835c-0.992,2.157-2.826,2.758-5.011,2.713
		c-0.014-2.903-3.3-1.394-4.642-3.845C376.75,60.086,379.803,60.527,382.821,61.835z"/>
	<path fill-rule="evenodd" clip-rule="evenodd" fill="#909090" d="M248.813,263.752c0.017,0.755,0.034,1.511,0.051,2.266
		c-3.055,0.355-6.096,0.44-10.619-0.464C242.358,262.879,245.598,263.378,248.813,263.752z"/>
	<path fill-rule="evenodd" clip-rule="evenodd" fill="#545454" d="M394.743,28.504c-1.646-0.036-3.291-0.071-4.935-0.107
		c-0.653-0.884-0.473-1.6,0.607-1.76c3.084-0.455,6.185-0.802,9.278-1.19c-0.042,0.581-0.084,1.161-0.126,1.742
		C397.959,27.627,396.351,28.065,394.743,28.504z"/>
	<path fill-rule="evenodd" clip-rule="evenodd" fill="#909090" d="M316.687,202.591c0.026,0.576,0.053,1.152,0.079,1.729
		c-2.5,0.302-4.547-0.603-6.348-2.334C312.593,201.807,314.749,201.128,316.687,202.591z"/>
	<path fill-rule="evenodd" clip-rule="evenodd" fill="#909090" d="M58.933,273.128c-0.085,0.49-0.17,0.98-0.255,1.472
		c-2.299,1.41-4.601,0.509-6.954,0.004C54.034,273.506,56.274,272.305,58.933,273.128z"/>
	<path fill-rule="evenodd" clip-rule="evenodd" fill="#909090" d="M510.772,217.573c-0.066-0.611-0.133-1.224-0.199-1.835
		c1.857-0.588,3.715-1.176,5.573-1.763C514.949,216.221,513.286,217.588,510.772,217.573z"/>
	<path fill-rule="evenodd" clip-rule="evenodd" fill="#909090" d="M412.791,233.683c-0.012,0.554-0.023,1.107-0.035,1.66
		c-2.813,0.489-5.489,0.016-8.984-1.397C407.34,233.345,410.043,233.179,412.791,233.683z"/>
	<path fill-rule="evenodd" clip-rule="evenodd" fill="#909090" d="M445.685,35.541c-0.037,0.564-0.075,1.128-0.113,1.691
		c-1.456,0.317-2.912,0.634-4.211-0.977C442.625,34.606,444.113,34.872,445.685,35.541z"/>
	<path fill-rule="evenodd" clip-rule="evenodd" fill="#909090" d="M399.568,27.188c0.042-0.581,0.084-1.161,0.126-1.742
		c1.538,1.146,3.417,1.079,5.173,1.451c-0.06,0.497-0.12,0.994-0.181,1.491C402.483,30.111,401.359,27.228,399.568,27.188z"/>
	<path fill-rule="evenodd" clip-rule="evenodd" fill="#909090" d="M262.597,122.341c0.009,0.656,0.019,1.313,0.029,1.969
		c-1.569,1.229-3.183,2.109-5.09,0.638l0.007,0.096C258.873,123.479,260.567,122.598,262.597,122.341z"/>
	<path fill-rule="evenodd" clip-rule="evenodd" fill="#909090" d="M377.75,64.556c-0.063,0.575-0.128,1.15-0.191,1.726
		c-1.116,0.397-2.203,0.396-3.332-0.189C375.224,65.015,376.473,64.753,377.75,64.556z"/>
	<path fill-rule="evenodd" clip-rule="evenodd" fill="#909090" d="M398.693,150.067c-1.248,0-2.496,0-3.744,0
		c-0.003-0.084-0.006-0.168-0.009-0.252c1.248,0,2.496,0,3.744,0C398.687,149.899,398.69,149.983,398.693,150.067z"/>
	<path fill-rule="evenodd" clip-rule="evenodd" fill="#909090" d="M331.566,205.563c1.096,0.016,2.191,0.03,3.287,0.045
		c-0.153,0.66-0.306,1.32-0.458,1.98c-0.627-0.041-1.254-0.083-1.881-0.125C332.198,206.83,331.882,206.196,331.566,205.563z"/>
	<polygon fill-rule="evenodd" clip-rule="evenodd" fill="#545454" points="303.576,197.854 303.575,198.084 304.01,197.967 	"/>
	<path fill-rule="evenodd" clip-rule="evenodd" fill="#545454" d="M352.587,26.369c0.428,0.422,0.856,0.844,1.285,1.267
		c-0.333,0.549-0.8,1.217-1.435,0.77C351.581,27.802,351.993,27.015,352.587,26.369z"/>
</g>
</svg>
