<?xml version="1.0" encoding="utf-8"?>
<!-- Generator: Adobe Illustrator 16.0.0, SVG Export Plug-In . SVG Version: 6.00 Build 0)  -->
<!DOCTYPE svg PUBLIC "-//W3C//DTD SVG 1.1//EN" "http://www.w3.org/Graphics/SVG/1.1/DTD/svg11.dtd">
<svg version="1.1" id="Calque_1" xmlns="http://www.w3.org/2000/svg" xmlns:xlink="http://www.w3.org/1999/xlink" x="0px" y="0px"
	 width="561.259px" height="396.851px" viewBox="0 0 561.259 396.851" enable-background="new 0 0 561.259 396.851"
	 xml:space="preserve">
<path fill-rule="evenodd" clip-rule="evenodd" fill="#717171" d="M396.663,108.039c-1.053,4.963-0.014,9.939-0.091,14.91
	c-0.425,27.468-0.854,54.935-1.116,82.404c-0.116,12.153,0.455,24.318,0.132,36.463c-0.168,6.317,1.682,10.878,7.76,13.894
	c1.899-33.965,1.857-67.869,1.913-102.081c3.038,0.839,2.254,2.448,2.267,3.577c0.369,32.307,0.332,64.609-1.757,96.869
	c-0.188,2.896,0.365,4.903,2.816,6.82c15.302,11.965,30.462,24.112,46.521,36.876c-0.473-5.396-1.095-9.721-1.193-14.057
	c-1.033-45.462,1.103-90.896,1.356-136.349c0.023-4.168-1.075-4.351-4.423-3.359c-12.438,3.686-25.105,6.322-38.007,7.783
	c-0.049-0.57-0.098-1.142-0.146-1.712c14.523-2.375,28.59-7.008,43.237-8.752c1.644-0.196,2.323-2.767,4.713-1.251
	c-4.685,0.989-3.096,4.121-3.07,7.26c0.141,17.154,0.162,34.318-0.27,51.466c-0.667,26.476-0.996,52.946-0.695,79.429
	c0.065,5.818,0.566,11.674-0.615,17.438c-0.462,2.252,0.827,3.383,2.236,4.596c4.88,4.199,10.069,8.052,14.406,12.858
	c-0.382,0.41-0.763,0.82-1.145,1.231c-12.807-10.285-25.609-20.575-38.421-30.854c-8.169-6.554-16.203-13.291-24.604-19.534
	c-3.072-2.283-5.534-5.053-8.273-7.597c-2.496-2.318-4.847-4.797-4.871,2.568c-2.517-18.345-2.565-35.594-2.663-52.841
	c-0.031-1.051-0.062-2.101-0.093-3.151c0.586-21.191,1.172-42.384,1.758-63.576c0.001-1.197,0.002-2.395,0.002-3.592
	c0-8.967,0-17.933,0-27.664c-3.531,1.884-5.79,4.729-9.509,3.313c-2.041-0.778-3.475-1.768-4.063-4.598
	c4.208,2.179,7.899,3.307,11.091-1.474c1.349-2.021,1.711-3.666,1.675-5.853c-0.101-6.102-0.035-12.205,0.425-18.367
	c2.059,8.36-0.975,17.325,2.468,25.526C396.497,107.118,396.58,107.579,396.663,108.039z M455.342,142.988
	c0.111-0.104,0.224-0.207,0.335-0.311c-0.104-0.11-0.209-0.221-0.313-0.331c-0.112,0.157-0.226,0.313-0.339,0.471
	C455.131,142.875,455.237,142.932,455.342,142.988z"/>
<path fill-rule="evenodd" clip-rule="evenodd" fill="#717171" d="M122.436,330.835c-1.231-22.604-2.381-45.213-3.714-67.811
	c-1.783-30.245-3.776-60.478-5.549-90.723c-1.471-25.085-4.018-50.131-3.13-75.312c0.105-2.988-0.317-6.148,1.79-9.613
	c1.142,2.768,0.582,4.901,0.509,6.931c-1.042,28.861,2.007,57.549,3.651,86.294c1.788,31.244,3.819,62.475,5.622,93.719
	c1.112,19.277,1.994,38.567,2.98,57.853c-0.218,1.103-0.613,2.096-1.666,2.679c-0.125-0.551-0.25-1.102-0.375-1.653
	C122.515,332.41,122.475,331.622,122.436,330.835z"/>
<path fill-rule="evenodd" clip-rule="evenodd" fill="#ACACAC" d="M221.42,168.958c-2.292-3.953,0.491-10.422,5.51-12.659
	c2.462-1.097,5.095-1.476,8.878-1.336c-6.185-4.608-11.691-8.592-16.865-13.354c1.463,36.303-6.506,72.374,0.854,109.139
	c-3.132-3.107-4.346-9.116-5.121-16.574c-2.474-23.809,1.011-47.483,1.22-71.227c0.104-11.77,0.75-23.543-0.868-35.269
	c-0.079-0.574,0.167-1.193,0.268-1.821c1.593,0.144,1.896,1.451,1.855,2.176c-0.557,9.688,6.244,14.57,12.862,19.297
	c4.776,3.412,8.211,7.987,12.358,12.112c-4.482-0.549-8.674-2.494-13.156-1.139c-5.052,1.528-6.666,4.153-6.185,10.084
	C222.496,168.576,221.958,168.767,221.42,168.958z"/>
<path fill-rule="evenodd" clip-rule="evenodd" fill="#717171" d="M346.907,188.283c-5.859,2.717-10.877,6.319-13.315,12.467
	c6.523,1.609,12.486-2.936,19.064-1.55c1.495,0.314,2.119-1.833,3.068-2.897c2.192-2.455,4.386-4.805,8.343-4.431
	c-5.699,4.203-9.63,9.542-11.763,16.157c-0.881,0.02-1.762,0.04-2.643,0.06c-0.396-0.273-0.791-0.548-1.186-0.821
	c0.051-0.667,0.102-1.334,0.152-2c3.202,1.365,2.644-1.549,2.844-2.851c0.238-1.555-1.381-1.498-2.491-1.486
	c-1.862,0.021-3.538,0.557-4.71,2.145c-0.311-0.153-0.559-0.083-0.742,0.211c-4.05,0.181-9-1.811-10.823,4.616
	c0.565-6.965-0.689-14.209,8.063-18.925c-6.807-0.539-12.138,0.199-17.224-1.619c-0.801-0.286-2.349,1.003-3.329,1.827
	c-3.435,2.887-6.81,5.848-10.118,8.877c-0.835,0.765-2.53,1.184-1.978,2.829c0.574,1.712,2.4,0.159,4.108,1.702
	c-10.909,1.044-21.032,0.554-31.175-0.58c3.241-3.197,7.307-0.688,10.91-2.283c-1.057-4.515-2.14-9.116-0.789-13.756
	c0.451-0.061,0.9-0.12,1.352-0.181c0.395,3.893,1.096,7.788,1.063,11.677c-0.019,2.209,0.521,3.013,2.551,3.075
	c4.282,0.133,8.21,0.353,11.69-3.55c4.057-4.549,9.107-8.23,13.865-12.118c1.021-0.834,2.852-3.356,3.748,0.564
	c0.314,1.377,2.364,0.709,3.625,0.731c5.819,0.105,11.64,0.123,17.46,0.172C346.655,186.992,346.781,187.638,346.907,188.283z"/>
<path fill-rule="evenodd" clip-rule="evenodd" fill="#ACACAC" d="M122.436,330.835c0.039,0.787,0.079,1.575,0.118,2.363
	c-4.235-0.801-8.506-1.454-12.692-2.461c-2.256-0.543-3.287,0.063-3.136,2.26c0.477,6.962,0.828,13.907,5.826,19.632
	c3.757,4.304,8.771,5.105,13.844,5.528c4.734,0.396,9.527,0.085,14.331,0.745c-4.895,2.986-10.294,2.502-15.397,1.53
	c-16.063-3.059-21.013-9.222-20.533-25.703c0.124-4.275-1.229-5.625-5.172-6.43c-19.927-4.062-40.065-5.911-60.358-6.418
	c-2.972-0.074-6,0.158-8.763-2.557c4.941,0,9.909-0.326,14.819,0.063c13.057,1.036,26.155,1.492,39.137,3.589
	C97.248,325.042,109.753,328.338,122.436,330.835z"/>
<path fill-rule="evenodd" clip-rule="evenodd" fill="#717171" d="M333.221,285.293c10.601,6.295,22.433,8.317,34.388,9.915
	c0.065,0.67,0.131,1.34,0.196,2.01c-3.011,0.102-1.729,2.059-1.539,3.552c0.75,5.878,0.588,11.722,0.137,18.407
	c-2.813-1.986-2.183-3.934-2.268-5.587c-0.221-4.322-0.331-8.649-0.469-12.975c-0.063-2.021-0.563-3.203-3.053-3.575
	c-7.19-1.075-7.169-1.243-7.024,6.272c0.035,1.832,0.101,3.664,0.152,5.495c0.114,4.015,2.988,8.283-2.495,11.592
	c-1.928,1.162-2.334,5.376,0.054,7.701c2.188,2.132,5.005,1.23,7.435,0.003c3.14-1.586,5.393-4.283,8.784-7.725
	c-1.012,5.216-3.478,7.868-6.892,9.733c-3.104,1.696-6.381,3.063-9.907,1.078c-3.745-2.108-4.84-8.818-1.356-12.81
	c2.483-2.846,2.389-5.465,1.97-8.665c-0.364-2.787-0.483-5.653-0.298-8.456c0.417-6.29,0.522-6.283-6.416-7.288l0.062,0.06
	c-2.443-1.231-4.875-2.489-7.343-3.669c-0.391-0.187-0.948-0.026-1.779-0.026c0,3.7,0,7.385,0,12.233
	c-2.999-3.839-3.125-7.344-2.288-10.422c0.744-2.735-0.261-4.235-1.735-5.951c0.278-0.177,0.336-0.408,0.172-0.694
	c0.477-0.075,0.954-0.149,1.429-0.227C333.134,285.273,333.221,285.293,333.221,285.293z"/>
<path fill-rule="evenodd" clip-rule="evenodd" fill="#717171" d="M492.041,208.87c-2.284,0.243-4.566,0.503-6.852,0.725
	c-3.912,0.379,0.442,4.076-2.174,4.927c0-9.84-0.082-19.78,0.019-29.719c0.154-15.299,0.477-30.596,0.63-45.895
	c0.036-3.655,0.074-7.278,1.039-10.83c0.566,0.042,1.133,0.085,1.699,0.127c-1.611,25.233,0.098,50.535-1.561,75.768
	c-0.109,1.668-0.908,4.069,2.379,3.119c12.199-3.528,24.517-1.004,36.783-0.729c6.51,0.146,13.014,0.634,18.209,0.9
	c-2.074-1.838-4.407,1.936-7.367,1.987c-12.312,0.215-24.596-0.315-36.777-2.054c-2.582-0.368-4.411-0.35-6.022,1.679
	L492.041,208.87z"/>
<path fill-rule="evenodd" clip-rule="evenodd" fill="#ACACAC" d="M396.663,108.039c-0.083-0.46-0.166-0.921-0.25-1.38
	c28.448-14.384,55.553-31.198,83.599-46.315c9.348-5.039,18.566-10.317,27.834-15.505c1.221-0.684,2.51-0.802,3.853-0.747
	l-0.056-0.063c-3.695,4.487-9.131,6.421-13.939,9.158c-27.3,15.539-54.729,30.852-82.12,46.229
	C409.519,102.82,403.714,106.802,396.663,108.039z"/>
<path fill-rule="evenodd" clip-rule="evenodd" fill="#717171" d="M350.517,160.172c0.179,0.979,0.319,1.98,1.676,2.709
	c1.43-4.221-0.266-8.629,0.885-13.622c2.24,3.088,1.136,5.913,1.578,8.439c0.412,2.356-1.205,5.167,1.702,7.497
	c1.28-5.227-0.54-10.368,1.551-16.098c1.772,4.729,0.879,8.653,1.06,12.468c0.09,1.899-0.157,3.807,2.684,3.47
	c1.028-0.117,2.056-0.233,3.084-0.35c1.123-0.28,2.26-0.521,3.366-0.855c0.74-0.225,1.843-0.32,1.564-1.463
	c-0.179-0.736-0.739-1.898-1.239-1.959c-5.963-0.727-1.928-5.027-2.478-7.473c-0.723-3.217,2.45-1.569,3.868-1.818
	c1.339-0.234,2.042-0.842,2.657-1.881c2.926-4.935,4.781-10.122,3.869-15.982c-0.003-0.001,0.036,0.002,0.036,0.002
	c3.566,4.244,2.622,12.477-2.524,17.918c-3.55,3.752-3.588,7.442-1.241,11.618c2.566,4.567,1.027,10.934-3.667,13.88
	c-0.096-3.902,2.888-7.201,1.343-11.262c-4.754,1.787-9.749,2.874-14.815,1.611c-3.473-0.865-7.455-1.688-6.679-6.878
	C349.37,160.152,349.943,160.162,350.517,160.172z"/>
<path fill-rule="evenodd" clip-rule="evenodd" fill="#ACACAC" d="M122.929,334.852c1.053-0.583,1.448-1.576,1.666-2.679
	c1.241,0.184,2.408-0.217,3.212-1.034c6.368-6.462,13.749-11.813,19.911-18.54c3.036-3.315,7.241-5.498,10.731-8.49
	c5.977-5.124,11.366-10.997,18.242-15.035c0.002,0.524,0.004,1.049,0.006,1.574c-5.776,7.112-13.601,11.976-20.113,18.288
	c-2.588,2.51-5.711,4.491-6.951,8.128c-0.294,0.028-0.588,0.028-0.882,0c-5.686,2.246-9.431,7.064-13.856,10.892
	c-1.8,1.557-5.303,2.637-4.939,5.742c0.76,6.486,0.178,13.465,5.404,18.687c0.907,0.906,1.872,1.753,3.4,3.178
	c-3.648,0.921-5.235-1.043-6.542-2.931c-3.004-4.342-4.33-9.256-4.474-14.539c-0.031-1.147,0.909-3.043-0.916-3.362
	c-2.109-0.369-2.138,1.514-2.223,3.041c-0.035,0.629,0.007,1.336-1.132,1.588C122.329,338.03,122.7,336.428,122.929,334.852z"/>
<path fill-rule="evenodd" clip-rule="evenodd" fill="#717171" d="M305.062,216.476c0.266,0.198,0.743,0.372,0.768,0.596
	c1.076,9.827,1.718,10.358,12.274,10.164c0.456-0.009,0.915,0.215,1.883,0.458c-2.842,3.099-6.167,2.888-9.235,2.022
	c-5.115-1.442-8.104-4.972-8.257-10.755c-6.406,2.114-12.82,2.167-19.231,1.908c-6.195-0.249-7.035-1.342-7.479-7.396
	c-0.208-2.841,0.983-5.893-1.025-8.522l-0.008,0.021c1.241-0.669-0.083-2.814,2.173-3.166c1.618,3.955,1.542,8.225,1.579,12.413
	c0.026,2.966,0.548,4.612,4.104,4.079c2.767-0.416,5.635-0.185,8.458-0.181c4.449,0.008,8.567,0.532,11.392-4.777
	c1.946-3.659,6.776-4.571,11.116-4.059c2.04,0.24,4.07,1.072,4.806,4.144c-5.547-1.962-10.479-2.642-14.485,1.982
	c-0.562,0.48-1.572,0.999-0.756,1.777C303.754,217.773,304.458,216.876,305.062,216.476z"/>
<path fill-rule="evenodd" clip-rule="evenodd" fill="#717171" d="M492.562,122.927c12.783-2.02,24.624-8.172,37.759-8.701
	c-10.258,3.813-20.605,7.313-31.272,9.664c-3.405,0.75-4.453,1.97-4.402,5.552c0.247,17.475,0.156,34.955,0.127,52.433
	c-0.005,2.759-0.305,5.518-0.469,8.276c-0.544-0.009-1.088-0.017-1.632-0.025c-0.208-21.212-0.416-42.423-0.623-63.636
	C492.221,125.302,492.391,124.114,492.562,122.927z"/>
<path fill-rule="evenodd" clip-rule="evenodd" fill="#ACACAC" d="M309.777,171.119c-0.448-2.804-3.243-5.63,0.574-8.366
	c1.031-0.74,0.546-2.93-0.283-4.217c-1.22-1.893-1.326-4.027-1.706-6.535c-3.565,2.065-6.248,2.438-8.077-2.266
	c-0.514-1.32-3.645-5.542-6.875-1.34c-0.543,0.706-1.523,0.558-2.219-0.097c-2.82-2.655-3.594-1.128-3.761,1.797
	c-0.038,0.662-0.269,1.386-1.069,1.47c-1.101,0.116-1.359-0.724-1.443-1.577c-0.167-1.679-1.119-2.321-2.707-2.099
	c-1.753,0.246-1.243,1.449-1.211,2.635c0.057,2.162-1.432,3.699-2.848,5.021c-2.85,2.661-3.572,6.477-5.579,9.576
	c-0.512-0.581-1.024-1.162-1.536-1.744c-0.203-0.184-0.401-0.373-0.594-0.567l0.013,0.023c1.215-2.9,2.583-5.75,3.567-8.727
	c0.366-1.106,0.667-1.689,1.801-1.909c0.78-0.15,2.186-0.634,2.164-0.853c-0.759-7.467,5.949-5.882,9.249-6.57
	c5.901-1.231,12.662-2.026,16.334,5.221c1.053,2.077,2.159,0.353,3.215-0.132c2.782-1.276,4.701-0.586,4.808,2.623
	c0.162,4.913,4.299,9.922-0.256,14.795c-0.271,0.29,0.157,1.233,0.261,1.872C310.991,169.81,310.383,170.464,309.777,171.119z"/>
<path fill-rule="evenodd" clip-rule="evenodd" fill="#717171" d="M101.397,290.5c-12.942-1.419-25.855-3.293-38.834-4.128
	c-12.59-0.81-25.249-0.531-37.876-0.784c-1.914-0.038-3.906,0.424-5.882-0.515c0.933-1.871,2.614-1.284,3.916-1.338
	c11.129-0.461,22.327-1.151,33.381,0.051c15.082,1.639,30.304,2.234,45.215,5.349C101.344,289.589,101.371,290.045,101.397,290.5z"
	/>
<path fill-rule="evenodd" clip-rule="evenodd" fill="#ACACAC" d="M517.18,254.876c0.278,1.444,0.569,2.886,0.833,4.333
	c1.659,9.084,1.663,9.021,11.159,9.872c3.553,0.318,7.343-0.692,11.235,1.943c-6.379,1.937-12.138-0.351-17.883-0.196
	c-1.518,0.041-3.721-1.956-3.98,1.527c-0.185,2.486,0.489,4.074,3.189,4.701c4.425,1.027,8.785,2.328,13.104,3.991
	c-2.88,1.304-5.637-0.028-8.321-0.565c-7.996-1.6-7.979-1.71-8.015,6.674c-0.013,2.957-0.002,5.914-0.002,8.872
	c-0.428,0.034-0.854,0.069-1.281,0.104c-0.161-2.791-0.414-5.581-0.465-8.374c-0.142-7.743-0.108-7.744-6.926-11.751
	c5.73-0.59,8.504-2.659,4.591-7.908C517.499,264.096,514.866,259.169,517.18,254.876z"/>
<path fill-rule="evenodd" clip-rule="evenodd" fill="#ACACAC" d="M131.468,91.539c25.031,8.92,50.852,15.902,74.974,27.529
	C181.03,111.127,155.965,102.227,131.468,91.539z"/>
<path fill-rule="evenodd" clip-rule="evenodd" fill="#717171" d="M271.037,163.378c0.512,0.582,1.024,1.163,1.536,1.744
	c2.94,8.019,5.677,16.16,13.69,21.636c-6.052-0.725-5.533-1.134-8.93-5.449c-2.338-2.971-4.251-6.065-6.237-9.718
	c-5.177,8.914-15.659,9.722-22.603,15.773c-0.263-1.882,1.403-2.738,2.166-4.073c4.367-2.565,8.202-5.786,13.279-7.482
	c3.292-1.101,6.26-4.911,5.556-9.604C270.009,165.263,270.523,164.32,271.037,163.378z"/>
<path fill-rule="evenodd" clip-rule="evenodd" fill="#717171" d="M354.783,117.409c1.597,1.346,0.829,2.383-0.217,3.721
	c-8.975,11.483-8.95,11.502-6.973,24.709c-1.78,0.063-2.342-1.473-2.491-2.56c-0.436-3.161-2.293-4.066-5.122-4.063
	c-1.204,0.001-2.467-0.518-2.973-1.569c-1.204-2.503-2.65-2.671-4.87-1.23c-1.506,0.979-2.962,0.11-3.901-1.157
	c-0.879-1.187-1.853-1.847-3.329-1.697c-0.032-0.439-0.063-0.881-0.096-1.321c1.22-0.869,2.669-1.106,3.571,0.09
	c1.98,2.628,3.685,1.875,5.768,0.157c1.612-1.329,3.055-1.072,3.581,1.28c0.496,2.217,1.785,3.424,4.188,3.294
	c2.796-0.151,2.157-2.556,2.58-4.075c1.418-5.092,4.094-9.304,8.112-12.7c0.96-0.812,2.439-1.244,2.244-2.942L354.783,117.409z"/>
<path fill-rule="evenodd" clip-rule="evenodd" fill="#ACACAC" d="M89.723,218.73c-20.735-2.086-41.47-4.172-62.205-6.257
	c0.076-0.721,0.152-1.44,0.229-2.161c20.766,1.884,41.612,2.977,62.199,6.592C89.872,217.514,89.797,218.122,89.723,218.73z"/>
<path fill-rule="evenodd" clip-rule="evenodd" fill="#717171" d="M370.748,301.067c-0.579-1.171-1.158-2.341-1.723-3.516
	c0.842,0.198,1.669,0.402,2.496,0.605c12.979,13.622,24.486,28.43,35.305,43.794c0.01,0.935,0.02,1.869,0.029,2.804
	c-3.643-4.619-7.174-9.335-11.005-13.794c-1.033-1.203-1.354-3.894-4.061-3.02l-0.016,0.113c1.585-2.538-1.143-3.129-2.052-4.541
	l-0.06-0.422l-0.42-0.067c-0.64-1.367-1.04-2.972-3.003-3.023c-0.338-0.735-0.848-0.83-1.497-0.4c1.627-1.671,0.07-2.301-1.01-3.087
	c0.546-0.72,0.043-1.095-0.481-1.462c-0.877-0.645-1.204-1.969-2.536-2.051l0.036,0.032c-0.112-1.251-0.402-2.323-2.044-2.041
	l0.053,0.071c0.583-1.163-0.222-1.615-1.053-2.055l0.038,0.047c-0.079-0.62-0.381-1.019-1.049-1.053l0.052,0.052
	c-0.04-0.665-0.343-1.066-1.058-1.053l0.058,0.061c0.005-0.716-0.31-1.11-1.066-1.06l0.065,0.067c0.02-0.729-0.182-1.238-1.063-1.07
	l0.064,0.081c0.386-1.074-0.326-1.589-1.065-2.09l0.074,0.092c-0.361-0.359-0.723-0.718-1.084-1.077l0.073,0.067
	c-0.357-0.356-0.714-0.713-1.071-1.068L370.748,301.067z"/>
<path fill-rule="evenodd" clip-rule="evenodd" fill="#ACACAC" d="M94.653,91.81c-21.133,4.249-42.667,4.439-64.047,6.27
	C51.695,93.479,73.214,93.073,94.653,91.81z"/>
<path fill-rule="evenodd" clip-rule="evenodd" fill="#717171" d="M229.768,67.772c5.966-6.991,17.081-6.938,21.023,0.552
	c2.419-1.51,4.956-3.24,8.033-2.173c2.826,0.979,4.804,3.005,5.861,5.701c0.223,0.567,3.148,0.513,0.684,2.074
	c-1.296,0.82-2.038,0.84-2.773-0.512c-0.474-0.871-0.912-1.804-1.566-2.528c-2.458-2.722-5.246-3.725-7.974-0.533
	c-1.226,1.434-2.398,2.296-4.203,1.791c-1.813-0.508-1.236-2.132-1.232-3.361c0.007-1.824-1.082-2.921-2.552-3.216
	c-0.968-0.194-2.12,0.636-3.212,0.919c-0.944,0.244-0.392,2.656-1.997,1.47c-0.295-0.218,0.304-1.857-1.237-1.828
	c-1.143,0.021-2.397-0.256-3.397,0.13c-1.177,0.454-2.819,1.308-3.067,2.289c-1.177,4.654-2.926,0.777-4.413,0.457
	C228.42,68.594,229.094,68.184,229.768,67.772z"/>
<path fill-rule="evenodd" clip-rule="evenodd" fill="#ACACAC" d="M384.743,319.601c0.649-0.43,1.159-0.335,1.496,0.4
	c0.229,1.775,0.399,3.608,3.004,3.023l0.42,0.067c0,0,0.06,0.422,0.06,0.421c-0.779,2.176-0.016,3.653,2.052,4.542l0.016-0.113
	c1.062,4.335,4.648,7.087,6.738,10.771c1.024,1.806,2.888,3.212,2.895,5.739c-1.753,0.452-2.38-0.874-3.074-1.835
	c-9.522-13.183-19.005-26.396-29.38-38.936c-2.391-2.891-0.428-2.841,1.779-2.614l-0.072-0.063c0.357,0.355,0.714,0.712,1.071,1.068
	l-0.073-0.067c0.361,0.359,0.723,0.718,1.084,1.077l-0.074-0.092c0.017,0.869,0.134,1.687,1.065,2.09L373.684,305
	c0.354,0.356,0.709,0.714,1.063,1.07l-0.065-0.067c0.355,0.354,0.711,0.707,1.066,1.06l-0.058-0.061
	c0.051,0.654,0.337,1.072,1.058,1.053l-0.052-0.052c-0.02,0.719,0.296,1.104,1.049,1.053l-0.038-0.047
	c-0.249,0.992,0.042,1.708,1.053,2.055c0,0-0.053-0.071-0.053-0.07c0.117,1.244,0.542,2.182,2.044,2.04c0,0-0.036-0.032-0.035-0.032
	c-0.083,1.83,0.778,2.494,2.535,2.051c0.524,0.367,1.027,0.742,0.481,1.462C383.346,317.779,383.906,318.735,384.743,319.601z"/>
<path fill-rule="evenodd" clip-rule="evenodd" fill="#ACACAC" d="M31.599,150.066c19.116-0.68,38.144,0.572,57.111,3.138
	C69.598,153.822,50.58,152.355,31.599,150.066z"/>
<path fill-rule="evenodd" clip-rule="evenodd" fill="#717171" d="M297.537,80.396c-3.09-5.744-2.822-8.229,1.145-10.637
	c4.284-2.6,12.999-1.668,15.359,1.617c0.422,0.589,0.71,1.218,0.245,1.785c-0.728,0.888-1.57,0.238-2.202-0.175
	c-2.958-1.933-6.217-2.348-9.579-1.805c-4.312,0.696-5.306,3.276-3.075,7.036c0.757,1.276,3.123,2.023,1.242,4.458
	c-1.559,2.02-2.766,2.208-5.163,1.621c-3.638-0.89-5.47,1.263-4.556,4.673c0.166,0.622,0.719,1.18,0.006,1.723
	c-0.822,0.627-1.582,0.246-2.215-0.355c-1.901-1.811-1.879-3.822-0.342-5.786c2.004-2.561,4.658-3.658,7.923-3.084
	c0.692,0.409,1.376,0.864,2.21,0.335C298.203,81.333,297.869,80.864,297.537,80.396z"/>
<path fill-rule="evenodd" clip-rule="evenodd" fill="#717171" d="M221.42,168.958c0.538-0.191,1.076-0.382,1.611-0.571
	c-0.197,2.306-0.535,4.608-0.559,6.914c-0.088,8.501,4.624,11.384,12.185,7.523c0.851-0.435,1.546-1.275,2.663-0.963
	c-1.742,4.383-5.741,5.841-11.2,4.42c-1.31-0.341-2.986-2.737-4.183-0.245c-0.837,1.743-0.892,3.997,0.263,5.75
	c1.289,1.956,3.096,1.384,4.84,0.44c0.53-0.287,1.166-0.752,2.001,0.055c-0.941,2.561-2.926,3.212-5.441,2.855
	c-2.782-0.395-4.575-2.515-3.986-4.82C221.418,183.251,218.769,175.883,221.42,168.958z"/>
<path fill-rule="evenodd" clip-rule="evenodd" fill="#ACACAC" d="M188.751,282.06c-3.414,0.339-4.442,4.269-7.575,5.031
	c-0.535-0.046-1.068-0.091-1.602-0.137c3.794-5.97,9.938-9.455,15.051-14.001c7.261-6.455,14.952-12.428,22.495-18.563
	c0.729-0.593,1.711-0.874,2.576-1.301l-0.053-0.066c-0.405,4.034-4.25,5.176-6.553,7.556c-2.626,2.714-5.816,4.877-8.715,7.332
	c-0.968,0.82-2.256,1.577-1.636,3.241l0.054-0.057c-4.459,1.062-10.964,6.849-11.389,10.132c-0.536-0.059-1.072-0.116-1.608-0.174
	c-0.376,0.357-0.752,0.714-1.128,1.071L188.751,282.06z"/>
<path fill-rule="evenodd" clip-rule="evenodd" fill="#ACACAC" d="M79.703,198.434c-11.25,1.382-43.597-0.771-49.1-4.104
	c16.431,0.834,32.861,1.668,49.292,2.501C79.831,197.364,79.767,197.899,79.703,198.434z"/>
<path fill-rule="evenodd" clip-rule="evenodd" fill="#717171" d="M303.69,123.071c2.353-1.465,4.498,0.116,6.696,0.52
	c3.662,0.672,6.662,0.441,7.649-4.009c0.195-0.885,0.856-1.86,1.592-2.396c2.954-2.152,6.613,1.463,9.858-1.448
	c3.275-2.938,6.232,0.297,8.748,2.053c2.024,1.413,3.787,2.906,7.239,2.196c-3.085,3.488-5.279,2.429-7.475,0.57
	c-2.755-2.332-5.362-5.221-9.215-1.519c-0.511,0.491-1.93,0.155-2.904,0.023c-3.143-0.428-5.501-0.381-6.913,3.539
	c-1.459,4.047-5.517,3.742-9.017,2.816c-2.132-0.563-4.117-1.299-6.258-0.259C303.691,124.462,303.691,123.767,303.69,123.071z"/>
<path fill-rule="evenodd" clip-rule="evenodd" fill="#ACACAC" d="M86.698,182.229c-16.754,1.092-33.383-0.332-49.995-2.195
	C53.464,178.413,70.081,180.488,86.698,182.229z"/>
<path fill-rule="evenodd" clip-rule="evenodd" fill="#ACACAC" d="M250.66,183.291c-0.763,1.335-2.429,2.191-2.166,4.073
	c-5.519,3.226-10.518,6.849-10.822,14.08c-0.028,0.664-0.291,1.807-0.754,1.576c-5.604-2.792-7.488,3.45-11.436,4.656
	c-2.17,0.663-4.708,4.131-6.127,2.143c-1.27-1.779,2.605-3.324,4.451-4.17c9.781-4.481,14.643-13.812,21.564-21.111
	C246.608,183.232,247.964,179.581,250.66,183.291z"/>
<path fill-rule="evenodd" clip-rule="evenodd" fill="#717171" d="M310.683,92.087c0.846,0.722,3.081-1.748,2.944,1.56
	c-0.212,5.129,2.587,6.999,7.355,5.181c2.02-0.77,3.666-2.196,5.178-3.777c1.979-2.069,3.675-4.22,6.769-0.781
	c1.729,1.921,3.689,0.29,5.046-1.899c1.331-2.147,2.277-5.014,5.441-5.324c1.103-0.108,2.607-0.264,2.905,1.214
	c0.278,1.378-1.102,1.334-2.021,1.547c-0.986,0.229-2.057,0.464-2.419,1.517c-1.312,3.817-4.713,4.218-7.576,3.552
	c-3.312-0.771-4.95,0.822-6.789,2.714c-2.261,2.327-4.896,4.011-8.137,4.438c-6.002,0.792-8.924-2.654-8.626-10.015L310.683,92.087z
	"/>
<path fill-rule="evenodd" clip-rule="evenodd" fill="#ACACAC" d="M232.323,169.921c2.8,1.724,5.529,3.581,8.436,5.098
	c1.049,0.547,2.813,0.749,3.52-0.728c0.635-1.327-0.81-2.018-1.604-2.777c-3.43-3.277-8.183-3.274-12.795-4.769
	c3.355-2.767,6.382-1.205,9.208-0.255c5.751,1.935,5.712,2.051,5.392-3.637c2.96,2.477,5.762,10.077,3.917,12.655
	c-1.895,2.646-5.195,3.136-8.408,1.847C236.504,175.956,234.47,172.881,232.323,169.921z M245.154,169.22l-0.15,0.313l0.264,0.015
	L245.154,169.22z"/>
<path fill-rule="evenodd" clip-rule="evenodd" fill="#ACACAC" d="M22.708,252.973c18.317,0.375,36.682,0.08,54.759,3.761
	C59.126,256.804,40.914,254.866,22.708,252.973z"/>
<path fill-rule="evenodd" clip-rule="evenodd" fill="#717171" d="M327.285,248.652c-3.481-4.884-6.865-9.631-10.912-15.31
	c4.888,0.947,5.338,5.363,8.588,6.914c1.271-5.544-0.321-11.106,1.433-16.331c0.313-0.932,0.364-1.976,0.806-2.829
	c0.23-0.445,1.049-0.818,1.597-0.812c0.811,0.011,1.017,0.898,0.873,1.488c-2.066,8.48-1.837,17.081-1.481,25.696
	C328.202,247.814,327.658,248.182,327.285,248.652z"/>
<path fill-rule="evenodd" clip-rule="evenodd" fill="#ACACAC" d="M34.708,131.063c16.356-1.228,32.484,1.056,48.653,2.725
	C67.06,134.373,50.836,133.418,34.708,131.063z"/>
<path fill-rule="evenodd" clip-rule="evenodd" fill="#717171" d="M148.752,317.063c0.294,0.028,0.588,0.028,0.882,0
	c2.695,9.998,1.951,19.943-0.921,29.718c-0.883,3.004-0.872,6.901-4.931,8.343c2.285-9.684,5.112-19.13,4.878-29.152
	C148.591,323.029,145.914,319.973,148.752,317.063z"/>
<path fill-rule="evenodd" clip-rule="evenodd" fill="#ACACAC" d="M33.781,163.055c16.765,1.921,33.659,0.234,50.414,2.707
	c-13.613,0-27.226,0.081-40.837-0.06c-3.235-0.033-6.461-0.81-9.692-1.243C33.704,163.991,33.743,163.523,33.781,163.055z"/>
<path fill-rule="evenodd" clip-rule="evenodd" fill="#717171" d="M145.375,53.801c8.929-3.458,16.644-1.58,20.076,4.889
	c2.155,4.061-0.548,12.751-4.604,14.86c-0.619,0.322-1.186,0.603-1.752-0.033c-0.534-0.601-0.357-1.224,0.014-1.811
	c0.884-1.396,1.86-2.74,2.675-4.175c3.506-6.172,1.728-10.46-5.065-12.386c-3.838-1.089-7.553-0.654-11.201,0.802
	C145.47,55.23,145.422,54.516,145.375,53.801z"/>
<path fill-rule="evenodd" clip-rule="evenodd" fill="#ACACAC" d="M371.521,298.157c-0.827-0.203-1.654-0.407-2.496-0.605
	c-0.416-0.108-0.818-0.222-1.22-0.334c-0.065-0.67-0.131-1.34-0.196-2.01c2.443-2.923,1.809-6.538,1.987-9.872
	c0.32-5.976,0.154-11.977,0.312-17.964c0.04-1.541-0.544-3.28,0.819-4.72c2.312,1.069,1.577,3.12,1.656,4.773
	c0.391,8.154-0.055,16.3-0.848,24.403C371.325,293.987,372.992,296.079,371.521,298.157z"/>
<path fill-rule="evenodd" clip-rule="evenodd" fill="#ACACAC" d="M331.708,285.502c0.164,0.286,0.106,0.518-0.172,0.694
	c-1.586,0.2-2.605-0.434-2.774-2.064c-1.028-9.874-2.05-19.75-3.01-29.632c-0.104-1.06-0.483-2.703,1.053-2.908
	c2.055-0.273,1.641,1.64,1.764,2.817C329.644,264.771,330.668,275.137,331.708,285.502z"/>
<path fill-rule="evenodd" clip-rule="evenodd" fill="#717171" d="M503.067,284.785c0.017-10.85-1.248-21.64-0.48-32.446
	C504.927,263.137,505.289,273.968,503.067,284.785z"/>
<path fill-rule="evenodd" clip-rule="evenodd" fill="#717171" d="M355.73,66.034c-1.255-5.26-4.265-7.425-9.653-6.945
	c-5.445,0.485-7.7,3.337-7.787,9.844c-2.994-1.631-3.465-4.13-1.381-7.331c4.933-7.576,16.677-6.852,20.923,1.292
	c0.079,0.483,0.157,0.968,0.235,1.451c-0.097,0.6-0.194,1.2-0.291,1.8C357.093,66.107,356.412,66.07,355.73,66.034z"/>
<path fill-rule="evenodd" clip-rule="evenodd" fill="#717171" d="M75.607,64.291c0.58-4.58,3.555-7.295,7.394-9.287
	c3.588-1.862,7.245-2.264,10.901-0.173c0.85,0.486,1.925,1.134,1.318,2.277c-0.683,1.286-1.763,0.389-2.581-0.008
	c-4.64-2.25-8.425-0.473-11.769,2.643c-2.394,2.23-3.54,4.88-0.95,7.831c0.635,0.723,1.74,1.479,0.535,2.374
	c-0.914,0.68-1.923-0.025-2.626-0.779C76.562,67.811,75.492,66.334,75.607,64.291z"/>
<path fill-rule="evenodd" clip-rule="evenodd" fill="#717171" d="M178.805,92.382c-2.113,2.677-4.555,3.816-7.729,2.702
	c-0.155-0.054-0.342-0.037-0.481-0.112c-2.835-1.531-6.748,0.057-8.966-2.234c-2.782-2.875,1.085-5.704,1.205-8.704
	c0.067-1.702-0.462-3.145-1.724-4.837c4.485,1.51,5.364,3.122,3.589,7.451c-1.357,3.31-0.762,4.227,2.807,4.938
	C171.26,92.334,174.951,92.547,178.805,92.382z"/>
<path fill-rule="evenodd" clip-rule="evenodd" fill="#ACACAC" d="M77.638,117.495c-14.329,0-28.659,0-42.988,0
	c0-0.271,0.001-0.542,0.002-0.813c14.33,0,28.659,0,42.988,0C77.64,116.953,77.639,117.225,77.638,117.495z"/>
<path fill-rule="evenodd" clip-rule="evenodd" fill="#717171" d="M59.552,76.867c-4.726-1.161-8.835-0.157-12.181,3.487
	c-4.125,4.494-4.206,6.188-0.534,10.523c-3.991-0.079-5.688-2.148-4.789-6.029c1.42-6.125,8.105-13.029,17.631-10.501
	C59.637,75.188,59.595,76.027,59.552,76.867z"/>
<path fill-rule="evenodd" clip-rule="evenodd" fill="#ACACAC" d="M516.64,174.695c6.963-8.191,13.927-16.382,20.89-24.573
	c0.401,0.338,0.804,0.677,1.206,1.015c-6.355,8.703-12.912,17.236-21.148,24.356C517.272,175.228,516.957,174.962,516.64,174.695z"
	/>
<path fill-rule="evenodd" clip-rule="evenodd" fill="#717171" d="M336.735,312.653c-3.325,3.511-6.478,5.491-10.794,3.719
	c-2.913-1.196-2.963-3.778-2.347-6.333c0.958-3.972,4.677-6.141,9.374-5.655c-1.182,2.156-3.897,2.448-5.281,4.315
	c-0.938,1.267-2.374,2.583-1.187,4.357c1.032,1.541,2.716,0.969,4.124,0.711C332.419,313.438,333.977,311.782,336.735,312.653z"/>
<path fill-rule="evenodd" clip-rule="evenodd" fill="#ACACAC" d="M271.037,163.378c-0.514,0.942-1.028,1.885-1.542,2.827
	c-0.919-0.348-1.825-0.951-2.76-0.998c-5.029-0.255-5.032-0.207-7.544-3.877c-3.003,3.617-4.609,8.298-8.792,10.999
	c1.049-4.485,3.376-8.269,6.529-11.479c1.248-1.271,3.934-0.965,4.609-0.04c2.556,3.499,5.979,1.443,8.948,2.004
	c-0.001,0-0.042-0.003-0.042-0.003C270.636,163.005,270.833,163.194,271.037,163.378z"/>
<path fill-rule="evenodd" clip-rule="evenodd" fill="#ACACAC" d="M492.041,208.87l0.005,0.005
	c6.253,2.778,13.005,1.224,19.486,2.171c4.295,0.628,8.757,0.119,13.129,0.893c-10.053,0.733-20.11,1.896-30.109-0.42
	C493.256,211.219,492.046,210.538,492.041,208.87z"/>
<path fill-rule="evenodd" clip-rule="evenodd" fill="#717171" d="M415.771,216.676c-3.023-0.17-5.175-1.431-5.105-4.759
	c0.053-2.568,0.795-5.126,3.847-5.482c3.031-0.354,7.553,3.146,7.306,5.447C421.439,215.414,418.64,216.13,415.771,216.676z
	 M414.666,209.802c-1.116-0.113-0.916,1.214-0.945,2.3c-0.042,1.537,0.932,2.051,2.227,1.759c1.202-0.271,2.887-0.555,2.616-2.226
	C418.313,210.095,416.613,210.194,414.666,209.802z"/>
<path fill-rule="evenodd" clip-rule="evenodd" fill="#717171" d="M220.789,78.2c6.544,7.165,10.563,2.875,14.715-0.811
	c0.986-0.875,2.039-1.688,3.132-2.425c0.818-0.551,1.635-0.297,2.038,0.593c0.299,0.659,0.063,1.39-0.661,1.646
	c-3.56,1.257-5.416,4.823-8.802,6.355C226.726,85.589,223.493,84.451,220.789,78.2z"/>
<path fill-rule="evenodd" clip-rule="evenodd" fill="#717171" d="M238.094,238.879c-1.971-10.789-1.735-21.685-1.987-32.556
	c0.541-0.029,1.081-0.06,1.621-0.089c0.636,10.865,1.271,21.731,1.906,32.597C239.121,238.847,238.607,238.863,238.094,238.879z"/>
<path fill-rule="evenodd" clip-rule="evenodd" fill="#717171" d="M202.738,271.152c2.108,0.688,2.876,2.252,3.256,4.351
	c1.319,7.281-1.152,13.578-4.754,19.928c-1.013-2.824,0.047-5.093,0.741-7.444c1.637-5.552,2.906-11.148,0.81-16.891
	C202.792,271.096,202.738,271.152,202.738,271.152z"/>
<path fill-rule="evenodd" clip-rule="evenodd" fill="#ACACAC" d="M274.759,204.95c-0.634,0.951-1.687,3.352-2.489,1.321
	c-2.783-7.041-5.254-14.225-7.96-21.349c4.556,3.814,6.411,9.025,8.26,14.264c0.685,1.941,0.438,4.246,2.18,5.786
	C274.751,204.972,274.759,204.95,274.759,204.95z"/>
<path fill-rule="evenodd" clip-rule="evenodd" fill="#ACACAC" d="M59.552,76.867c0.042-0.84,0.084-1.68,0.127-2.52
	c0.563-4.254,2.461-7.517,6.773-8.888c2.768-0.881,5.236-0.427,7.12,1.968c0.844,1.072,1.768,2.508,0.639,3.541
	c-1.573,1.44-2.069-0.432-2.738-1.444c-1.421-2.149-3.604-1.546-5.372-1.04c-1.737,0.498-3.666,2.162-3.216,3.925
	C63.735,75.746,61.751,76.212,59.552,76.867z"/>
<path fill-rule="evenodd" clip-rule="evenodd" fill="#717171" d="M364.917,114.331c0.85-1.967,1.188-3.979,0.541-6.079
	c0.441-0.438,0.883-0.877,1.324-1.315c6.903,0.412,7.65-0.249,7.557-6.82c-0.01-0.689-0.132-1.452,0.706-1.514
	c0.561-0.04,1.378,0.25,1.699,0.678c1.798,2.398,1.756,4.917-0.136,7.21c-0.802,0.973-1.94,2.106-3.069,2.29
	c-4.023,0.655-5.944,3.372-7.428,6.698C365.712,115.095,365.315,114.713,364.917,114.331z"/>
<path fill-rule="evenodd" clip-rule="evenodd" fill="#717171" d="M353.481,90.322c4.029,1.508,6.648,3.57,4.574,8.372
	c-0.847,1.959-2.561,4.843,1.839,5.47c-1.66,2.102-3.362,1.88-4.605,0.581c-1.558-1.628-1.161-3.856-0.254-5.634
	C356.757,95.736,357.011,92.843,353.481,90.322z"/>
<path fill-rule="evenodd" clip-rule="evenodd" fill="#717171" d="M310.753,92.011c-3.26,1.098-5.629,3.889-9.06,4.695
	c-4.647,1.092-7.255-0.812-7.179-5.345c3.992,4.19,5.571,4.152,12.358-0.456c1.853-1.259,3.727-3.053,3.809,1.183
	C310.683,92.087,310.753,92.011,310.753,92.011z"/>
<path fill-rule="evenodd" clip-rule="evenodd" fill="#717171" d="M309.777,171.119c0.606-0.655,1.214-1.31,1.82-1.965
	c0.098,1.167,0.33,2.561-0.862,3.161c-3.956,1.99-5.48,4.495-2.607,8.589c0.584,0.832-0.139,1.915-1.25,2.308
	c-1.093,0.385-2.224,0.67-3.293,1.109c-1.583,0.651-3.034,4.025-4.638,1.336c-0.867-1.453,2.606-2.213,3.967-3.471
	c0.919-0.85,3.257-0.395,2.3-2.879C303.489,174.832,305.831,172.499,309.777,171.119z"/>
<path fill-rule="evenodd" clip-rule="evenodd" fill="#717171" d="M338.673,215.076c4,5.523,9.424,8.97,16.686,10.566
	c-6.026,2.496-12.063-0.891-18.302-9.491C336.996,214.892,338.028,215.274,338.673,215.076z"/>
<path fill-rule="evenodd" clip-rule="evenodd" fill="#717171" d="M366.859,186.76c6.557-0.242,15.08,8.37,13.518,14.52
	c-2.4-6.92-9.016-9.685-13.498-14.552L366.859,186.76z"/>
<path fill-rule="evenodd" clip-rule="evenodd" fill="#717171" d="M253.949,81.719c0.288,0.759,0.851,1.529,0.821,2.275
	c-0.229,5.68-0.316,5.513,5.457,3.694c2.529-0.796,5.094-2.169,8.153-1.434c-3.353,3.819-8.167,4.281-12.328,5.743
	c-2.862,1.005-4.443-1.509-4.215-4.515c0.11-1.458,0.492-2.896,0.75-4.344C253.041,82.666,253.495,82.192,253.949,81.719z"/>
<path fill-rule="evenodd" clip-rule="evenodd" fill="#717171" d="M329.96,200.951c-1.715,2.088-3.388,3.884-4.774,5.878
	c-1.47,2.114-2.441,4.404-0.126,6.695c0.545,0.539,1.44,1.22,0.544,2.031c-0.949,0.859-1.928,0.121-2.614-0.528
	c-1.796-1.699-2.592-3.665-1.743-6.238C322.552,204.827,324.973,202.464,329.96,200.951z"/>
<path fill-rule="evenodd" clip-rule="evenodd" fill="#717171" d="M269.461,86.24c6.479-6.069,5.698-13.711-1.132-16.549
	c5.452-1.152,7.54,0.438,7.457,5.753c-0.032,2.093-0.395,4.127-0.232,6.287C275.812,85.137,273.285,86.223,269.461,86.24z"/>
<path fill-rule="evenodd" clip-rule="evenodd" fill="#717171" d="M344.62,293.972c0.021,5.598,0.062,11.195,0.047,16.792
	c-0.002,0.919,0.245,2.161-1.116,2.372c-0.967,0.149-1.596-0.721-1.653-1.497c-0.408-5.443,0.034-10.859,0.944-16.225
	c0.093-0.549,1.204-0.925,1.841-1.382C344.681,294.031,344.62,293.972,344.62,293.972z"/>
<path fill-rule="evenodd" clip-rule="evenodd" fill="#717171" d="M210.323,78.832c-3.619,1.182-5.466-0.673-6.239-3.1
	c-0.867-2.722,1.321-4.185,3.559-5.161c2.811-1.226,5.255-0.148,7.313,1.67c1.014,0.896,0.344,1.817-0.936,1.958
	c-0.447,0.049-0.948-0.222-1.399-0.407c-1.907-0.783-4.28-1.601-5.346,0.5C206.26,76.292,208.814,77.278,210.323,78.832z"/>
<path fill-rule="evenodd" clip-rule="evenodd" fill="#717171" d="M189.794,281.054c0.536,0.058,1.072,0.115,1.608,0.174
	c-0.254,6.041,0.237,11.876,4.155,16.92c1.735,2.233,0.437,2.782-1.715,2.638c-0.272-0.945,0.148-2.131-0.966-2.783
	c-3.228-4.835-4.923-10.066-4.125-15.942l-0.084,0.065C189.042,281.769,189.418,281.411,189.794,281.054z"/>
<path fill-rule="evenodd" clip-rule="evenodd" fill="#717171" d="M325.12,66.029c0.416,0.124,1.67,0.465,2.901,0.871
	c1.127,0.372,2.479,0.961,2.013,2.315c-0.56,1.631-1.895,0.171-2.812,0.293c-2.433,0.323-8.276-3.98-5.813,3.843
	c0.104,0.326-0.245,1.071-0.558,1.201c-0.88,0.365-1.614-0.154-2.046-0.892c-0.929-1.588-1.746-3.225-0.618-5.087
	C319.586,66.265,321.833,65.983,325.12,66.029z"/>
<path fill-rule="evenodd" clip-rule="evenodd" fill="#ACACAC" d="M394.327,135.775c0,1.197-0.001,2.395-0.002,3.592
	c-2.864,0.947-5.766,1.794-8.583,2.863c-4,1.519-5.448-0.271-5.762-4.115C385.483,140.859,389.755,137.452,394.327,135.775z"/>
<path fill-rule="evenodd" clip-rule="evenodd" fill="#717171" d="M394.049,61.301c0.172,1.229,0.344,2.46,0.517,3.689
	c-0.898,0.452-1.784,0.318-2.666-0.051c-0.318-1.655-0.964-3.154-2.181-4.351c-3.262-3.207-6.462-2.781-9.916,1.301
	c-0.001-4.051,2.596-6.692,6.011-5.845c2.022,0.502,3.922,1.5,5.876,2.274C392.001,59.689,393.144,60.401,394.049,61.301z"/>
<path fill-rule="evenodd" clip-rule="evenodd" fill="#717171" d="M374.648,217.159c1.61,6.27,1.272,12.313-1.999,18.008
	C371.514,228.986,373.569,223.113,374.648,217.159z"/>
<path fill-rule="evenodd" clip-rule="evenodd" fill="#717171" d="M349.688,185.063c-5.593-4.167-5.869-14.111,0.435-19.503
	c-2.122,7.278-4.106,13.843,1.366,19.481C350.889,185.049,350.289,185.056,349.688,185.063z"/>
<path fill-rule="evenodd" clip-rule="evenodd" fill="#717171" d="M363.416,55.839c3.343-2.401,6.778-2.404,10.171-0.206
	c2.227,1.443,3.438,3.506,3.185,6.296c-0.124,1.357-0.167,3.139-1.696,3.174c-2.252,0.052-1.029-1.827-1.065-2.976
	c-0.162-5.195-4.283-6.849-10.188-4.098C363.686,57.299,363.551,56.569,363.416,55.839z"/>
<path fill-rule="evenodd" clip-rule="evenodd" fill="#ACACAC" d="M349.688,185.063c0.601-0.008,1.201-0.015,1.801-0.021
	c3.364,3.853,7.169,1.957,10.915,0.838c0.494,0.575,0.988,1.15,1.482,1.726c-3.842,2.888-8.06,3.526-12.334,1.379
	c-1.621-0.814-3.004-1.065-4.646-0.701c-0.126-0.646-0.252-1.291-0.378-1.938C347.527,185.783,349.114,186.671,349.688,185.063z"/>
<path fill-rule="evenodd" clip-rule="evenodd" fill="#717171" d="M377.17,244.269c1.274,5.104,0.074,9.823-2.236,14.369
	c-0.491-0.076-0.982-0.153-1.474-0.23c0.807-4.779,1.613-9.56,2.42-14.339C376.31,244.135,376.74,244.202,377.17,244.269z"/>
<path fill-rule="evenodd" clip-rule="evenodd" fill="#717171" d="M182.551,92.206c6.792,0.946,9.679,7.362,6.225,12.424
	c-0.417,0.611-0.808,1.06-1.537,0.691c-0.904-0.458-0.714-1.357-0.739-2.163C186.282,96.232,186.279,96.232,182.551,92.206z"/>
<path fill-rule="evenodd" clip-rule="evenodd" fill="#ACACAC" d="M471.493,314.353c0.382-0.411,0.763-0.821,1.145-1.231
	c5.149,2.423,8.438,6.828,11.981,11.01C479.406,321.916,475.365,318.244,471.493,314.353z"/>
<path fill-rule="evenodd" clip-rule="evenodd" fill="#ACACAC" d="M391.9,64.939c0.882,0.369,1.768,0.503,2.666,0.051
	c0.046,5.059,0.58,10.133-0.836,15.236C391.173,75.39,391.962,70.104,391.9,64.939z"/>
<path fill-rule="evenodd" clip-rule="evenodd" fill="#ACACAC" d="M364.736,164.686c-1.028,0.116-2.056,0.232-3.084,0.35
	c-0.901-4.663-1.141-9.343-0.7-14.615c2.706,1.524,2.467,3.672,2.792,5.665C364.21,158.941,362.774,162.015,364.736,164.686z"/>
<path fill-rule="evenodd" clip-rule="evenodd" fill="#717171" d="M360.511,122.536c3.473-0.352,2.768,4.294,5.845,3.99
	c-2.649,0.493-1.185,3.371-2.604,4.512c-1.151,0.925-1.834,0.178-1.998-0.988c-0.306-2.171,0.394-4.434-2.244-6.062
	C358.238,123.204,360.382,122.926,360.511,122.536z"/>
<path fill-rule="evenodd" clip-rule="evenodd" fill="#ACACAC" d="M324.811,132.241c0.032,0.44,0.063,0.882,0.096,1.321
	c-3.356,2.582-6.591,5.753-10.137,0.032c-1.035-1.669-3.192-2.064-5.297-1.473c2.745-0.896,5.306-1.351,7.63,1.058
	C319.971,136.15,322.125,131.691,324.811,132.241z"/>
<path fill-rule="evenodd" clip-rule="evenodd" fill="#717171" d="M120.333,55.261c3.225-1.432,6.411-1.769,9.711-0.456
	c2.539,1.009,3.004,2.948,2.372,5.232c-0.3,1.081-1.881,1.607-2.084,0.343C129.279,53.845,124.337,55.872,120.333,55.261z"/>
<path fill-rule="evenodd" clip-rule="evenodd" fill="#ACACAC" d="M263.164,204.377c-1.798-4.107-3.597-8.216-5.396-12.323
	c0.438-0.188,0.877-0.376,1.315-0.563c2.667,3.766,5.496,7.458,5.356,12.479C264.015,204.105,263.589,204.241,263.164,204.377z"/>
<path fill-rule="evenodd" clip-rule="evenodd" fill="#717171" d="M231.145,212.557c0.161,0.862,0.274,1.08,0.209,1.177
	c-2.121,3.134-5.231,4.754-8.804,5.561c-0.75,0.169-1.395-0.877-1.02-1.248C224.163,215.438,227.242,213.541,231.145,212.557z"/>
<path fill-rule="evenodd" clip-rule="evenodd" fill="#ACACAC" d="M338.673,215.076c-0.646,0.198-1.678-0.185-1.616,1.075
	c-0.936,0.305-1.852,0.708-2.81,0.891c-1.324,0.252-3.183,1.72-3.875-0.137c-0.722-1.934,1.623-1.352,2.614-1.904
	c0.552-0.308,1.05-0.734,1.515-1.169c1.006-0.939-1.678-3.519,1.054-3.304C337.586,210.688,338.049,213.236,338.673,215.076z"/>
<path fill-rule="evenodd" clip-rule="evenodd" fill="#ACACAC" d="M394.049,61.301c-0.905-0.899-2.048-1.611-2.359-2.981
	c0.387-3.517,0.023-7.181,2.428-11.351C394.588,52.373,394.931,56.821,394.049,61.301z"/>
<path fill-rule="evenodd" clip-rule="evenodd" fill="#717171" d="M361.127,236.216c4.438,1.214,9.067,0.426,14.016,1.291
	C371.196,240.47,365.68,239.938,361.127,236.216z"/>
<path fill-rule="evenodd" clip-rule="evenodd" fill="#ACACAC" d="M354.783,117.409l0.072-0.064c-2.154-1.23-1.989-2.97-0.634-4.514
	c1.516-1.726,3.538-2.334,5.793-1.27c1.413,0.668,2.304,1.803,2.855,3.234c-0.48,0.484-0.96,0.97-1.439,1.454
	C358.633,113.304,356.282,112.911,354.783,117.409z"/>
<path fill-rule="evenodd" clip-rule="evenodd" fill="#717171" d="M198.951,112.216c-0.2-3.414-0.399-6.829-0.654-11.186
	c3.566,4.022,2.875,7.531,1.962,11.063C199.823,112.134,199.387,112.175,198.951,112.216z"/>
<path fill-rule="evenodd" clip-rule="evenodd" fill="#ACACAC" d="M492.562,122.927c-0.171,1.188-0.341,2.375-0.513,3.563
	c-2.255-0.651-4.452-1.116-5.647,1.716c-0.566-0.042-1.133-0.085-1.699-0.127C483.632,120.732,489.361,123.758,492.562,122.927z"/>
<path fill-rule="evenodd" clip-rule="evenodd" fill="#717171" d="M179.574,286.954c0.533,0.046,1.067,0.091,1.602,0.137
	c-1.875,4.047,0.794,7.039,3.074,10.77c-3.658-0.341-4.508-2.59-5.394-4.73c-0.454-1.097-0.044-2.857-2.159-2.483
	c-0.002-0.524-0.004-1.049-0.006-1.573C177.652,288.367,178.613,287.66,179.574,286.954z"/>
<path fill-rule="evenodd" clip-rule="evenodd" fill="#ACACAC" d="M392.567,202.943c0.031,1.051,0.062,2.101,0.093,3.151
	c-2.177-0.419-4.162,0.571-6.246,0.829c-0.94,0.116-2.149,0.238-2.411-1.005c-0.277-1.319,0.902-1.511,1.846-1.699
	C388.083,203.772,390.327,203.366,392.567,202.943z"/>
<path fill-rule="evenodd" clip-rule="evenodd" fill="#ACACAC" d="M363.416,55.839c0.136,0.73,0.271,1.46,0.405,2.19
	c-2.289,1.767-1.626,6.224-5.754,6.315c-0.078-0.483-0.156-0.968-0.235-1.451C359.336,60.26,359.641,56.677,363.416,55.839z"/>
<path fill-rule="evenodd" clip-rule="evenodd" fill="#ACACAC" d="M192.876,298.002c1.114,0.652,0.694,1.838,0.966,2.783
	c-2.699,1.339-5.393,0.785-8.047-0.108c-0.59-0.198-1.064-0.806-0.839-1.563c0.237-0.797,0.856-0.805,1.542-0.637
	C188.673,299.009,190.881,299.909,192.876,298.002z"/>
<path fill-rule="evenodd" clip-rule="evenodd" fill="#ACACAC" d="M253.949,81.719c-0.454,0.474-0.908,0.947-1.362,1.421
	c-1.458-0.699-2.875-1.517-4.391-2.055c-0.93-0.331-2.193-0.343-2.048-1.584c0.181-1.549,1.648-1.537,2.713-1.217
	C250.872,78.889,252.904,79.615,253.949,81.719z"/>
<path fill-rule="evenodd" clip-rule="evenodd" fill="#717171" d="M31.627,271.975c-0.517,2.168-1.701,2.182-2.882,2.146
	c-2.14-0.063-3.343-1.336-3.711-3.291c-0.168-0.891,1.091-1.829,1.47-1.285C27.77,271.366,30.095,271.205,31.627,271.975z"/>
<path fill-rule="evenodd" clip-rule="evenodd" fill="#ACACAC" d="M229.768,67.772c-0.674,0.411-1.348,0.821-2.021,1.231
	c-2.281-0.528-3.872,1.462-5.995,1.831C222.6,66.066,223.851,65.617,229.768,67.772z"/>
<path fill-rule="evenodd" clip-rule="evenodd" fill="#717171" d="M104.567,52.642c2.728,0.007,4.768,1.159,5.761,3.744
	c0.428,1.111,0.438,2.603-0.861,3.026c-1.896,0.619-1.578-1.142-1.665-2.156c-0.115-1.337-0.747-2.138-1.972-2.547
	C105.409,54.02,104.988,53.331,104.567,52.642z"/>
<path fill-rule="evenodd" clip-rule="evenodd" fill="#717171" d="M352.72,178.801c-1.815-2.876,2.563-4.957-0.199-7.214
	c0.36-0.164,0.71-0.431,1.083-0.473c1.115-0.123,1.944,0.227,2.004,1.529C355.718,175.065,354.917,177.036,352.72,178.801z"/>
<path fill-rule="evenodd" clip-rule="evenodd" fill="#ACACAC" d="M376.38,133.256c0,0-0.039-0.003-0.036-0.002
	c-3.971-0.862-2.398-4.226-3.558-6.962C377.197,127.554,376.194,130.676,376.38,133.256z"/>
<path fill-rule="evenodd" clip-rule="evenodd" fill="#717171" d="M363.886,187.605c-0.494-0.575-0.988-1.15-1.482-1.726
	c0.043-0.647,0.086-1.295,0.13-1.943c0.133-1.95,0.311-3.903,2.342-4.913c0.352-0.175,1.265-0.047,1.301,0.098
	c0.454,1.8-0.867,3.231-1.122,4.903c-0.105,1.033-0.212,2.065-0.318,3.098C364.489,187.348,364.206,187.508,363.886,187.605z"/>
<path fill-rule="evenodd" clip-rule="evenodd" fill="#ACACAC" d="M101.397,290.5c-0.026-0.455-0.053-0.911-0.081-1.365
	c2.614-0.78,5.009,0.272,7.494,1.009C106.372,291.091,103.915,291.274,101.397,290.5z"/>
<path fill-rule="evenodd" clip-rule="evenodd" fill="#ACACAC" d="M303.69,123.071c0.001,0.695,0.001,1.391,0.002,2.087
	c-0.203,1.449,1.464,2.782,0.333,4.251c-0.508,0.661-1.298,0.422-1.697-0.141c-1.05-1.479-0.789-3.182-0.48-4.813
	C302.017,123.559,302.782,123.145,303.69,123.071z"/>
<path fill-rule="evenodd" clip-rule="evenodd" fill="#ACACAC" d="M350.517,160.172c-0.574-0.01-1.147-0.02-1.721-0.028
	c-0.164-2.574-0.509-5.164,0.703-8.484C351.447,154.859,350.641,157.562,350.517,160.172z"/>
<path fill-rule="evenodd" clip-rule="evenodd" fill="#ACACAC" d="M104.567,52.642c0.421,0.689,0.842,1.378,1.263,2.067
	c-1.897-0.563-2.961,1.418-4.991,1.897C101.269,54.046,101.709,52.205,104.567,52.642z"/>
<path fill-rule="evenodd" clip-rule="evenodd" fill="#ACACAC" d="M348.628,205.268c-0.051,0.666-0.102,1.333-0.152,2
	c-2.099-0.771-4.176-1.566-4.947-3.982c0.184-0.293,0.432-0.363,0.744-0.21C346.202,202.862,347.446,204.004,348.628,205.268z"/>
<path fill-rule="evenodd" clip-rule="evenodd" fill="#ACACAC" d="M408.873,345.998c1.289,1.244,3.204,1.631,3.078,3.774
	c-0.019,0.307-0.851,0.888-0.95,0.82C409.526,349.587,408.139,348.479,408.873,345.998z"/>
<path fill-rule="evenodd" clip-rule="evenodd" fill="#ACACAC" d="M412.695,150.078c0.048,0.57,0.097,1.142,0.146,1.712
	c-1.551,0.494-3.069,0.577-4.872-0.323C409.318,149.507,411.085,150.045,412.695,150.078z"/>
<path fill-rule="evenodd" clip-rule="evenodd" fill="#ACACAC" d="M366.782,106.937c-0.441,0.438-0.883,0.877-1.324,1.315
	c-1.862-0.556-2.294-1.889-2.222-3.667C365.22,104.489,365.926,105.82,366.782,106.937z"/>
<path fill-rule="evenodd" clip-rule="evenodd" fill="#717171" d="M361.43,116.25c0.479-0.484,0.959-0.97,1.439-1.454
	c0.685-0.154,1.369-0.309,2.051-0.464c0.395,0.381,0.792,0.763,1.19,1.146C364.782,117.135,363.25,117.564,361.43,116.25z"/>
<path fill-rule="evenodd" clip-rule="evenodd" fill="#ACACAC" d="M349.662,208.089c0.881-0.02,1.762-0.04,2.643-0.06
	c0.691,0.501,1.261,1.317,0.248,1.71C351.208,210.261,350.262,209.293,349.662,208.089z"/>
<path fill-rule="evenodd" clip-rule="evenodd" fill="#ACACAC" d="M145.375,53.801c0.047,0.715,0.095,1.43,0.141,2.146
	c-0.95,0.318-2.367,0.646-2.55-0.388C142.721,54.182,144.247,53.987,145.375,53.801z"/>
<path fill-rule="evenodd" clip-rule="evenodd" fill="#ACACAC" d="M364.736,187.122c0.106-1.032,0.213-2.064,0.318-3.098
	c0.602,0.912,1.203,1.824,1.805,2.736c0-0.001,0.02-0.033,0.02-0.033C366.165,186.859,365.45,186.991,364.736,187.122z"/>
<path fill-rule="evenodd" clip-rule="evenodd" fill="#ACACAC" d="M355.73,66.034c0.682,0.036,1.363,0.073,2.046,0.11
	c-0.04,0.716-0.354,1.282-1.115,1.246C355.881,67.354,355.664,66.747,355.73,66.034z"/>
<path fill-rule="evenodd" clip-rule="evenodd" fill="#ACACAC" d="M406.855,344.755c-0.01-0.935-0.02-1.869-0.029-2.804
	C407.555,342.878,409.451,343.792,406.855,344.755z"/>
<path fill-rule="evenodd" clip-rule="evenodd" fill="#ACACAC" d="M219.696,253.09c0.343-0.236,0.686-0.473,1.028-0.709
	c0.174,1.112-0.686,0.487-1.081,0.644C219.643,253.023,219.696,253.09,219.696,253.09z"/>
<path fill-rule="evenodd" clip-rule="evenodd" fill="#ACACAC" d="M129.024,90.582c-0.118,0.048-0.24,0.141-0.35,0.128
	c-0.109-0.014-0.204-0.135-0.305-0.208C128.587,90.528,128.806,90.555,129.024,90.582z"/>
<path fill-rule="evenodd" clip-rule="evenodd" fill="#ACACAC" d="M511.698,44.092c0.321-0.258,0.643-0.515,0.963-0.772
	c0.248,1.078-0.684,0.466-1.018,0.71C511.642,44.029,511.698,44.092,511.698,44.092z"/>
<polygon fill-rule="evenodd" clip-rule="evenodd" fill="#717171" points="270.443,162.811 270.484,162.813 270.455,162.833 "/>
<path fill-rule="evenodd" clip-rule="evenodd" fill="#ACACAC" d="M333.221,285.293c0,0-0.087-0.02-0.085-0.018
	C333.166,285.282,333.193,285.288,333.221,285.293z"/>
</svg>
