<?xml version="1.0" encoding="utf-8"?>
<!-- Generator: Adobe Illustrator 16.0.0, SVG Export Plug-In . SVG Version: 6.00 Build 0)  -->
<!DOCTYPE svg PUBLIC "-//W3C//DTD SVG 1.1//EN" "http://www.w3.org/Graphics/SVG/1.1/DTD/svg11.dtd">
<svg version="1.1" id="Calque_1" xmlns="http://www.w3.org/2000/svg" xmlns:xlink="http://www.w3.org/1999/xlink" x="0px" y="0px"
	 width="481.08px" height="340.157px" viewBox="0 0 481.08 340.157" enable-background="new 0 0 481.08 340.157"
	 xml:space="preserve">
<path fill-rule="evenodd" clip-rule="evenodd" fill="#565656" d="M190.077,235.344c8.225,1.854,12.069-2.736,14.605-9.65
	c1.407-3.836,3.107-7.612,5.137-11.149c0.857-1.494,0.083-2.319-0.431-2.959c-1.874-2.338-1.973-2.258,0.619-3.917
	c0.28,0.43,0.561,0.857,0.84,1.285c-0.178,2.005,1.401,2.265,2.742,2.76l0.024,0.024c-1.918,1.16-3.344,1.708-3.132,5.118
	c0.577,9.331-9.494,19.755-18.782,20.874c-17.769,2.141-35.468,4.667-52.652,9.939c-2.038,0.626-4.226,0.746-6.306,1.256
	c-0.744,0.183-1.259,0.045-2.4-0.646c6.53-3.42,13.311-4.933,20.005-6.481c9.835-2.274,19.753-4.21,29.823-5.214
	c2.842-0.283,4.723-2.172,6.421-4.219c3.599-4.34,6.405-9.187,9.397-14.543c-6.507-0.213-11.544-2.592-15.251-7.486
	c-0.379-0.872-0.759-1.744-1.139-2.616c-0.912-3.48-2.441-6.847-1.489-10.623c0.777-3.081,2.052-5.353,5.538-6.2
	c4.042-0.981,4.868-5.465,8.291-7.667c-3.38-1.324-6.497-1.437-8.778-3.509c-0.585-0.53-1.992-1.008-0.901-2.272
	c0.847-0.982,1.403-0.074,1.999,0.386c3.936,3.041,8.117,2.483,12.373,0.853l-0.103,0.07c5.911-0.413,10.564-2.799,14.2-7.729
	c3.937-5.336,8.466-10.236,12.758-15.309c5.324-6.293,3.42-14.43-4.129-17.846c-3.225-1.459-6.732-1.261-10.036-1.697
	c-0.422-1.644,0.528-2.032,1.518-2.237c9.271-1.93,19.097,6.528,18.484,15.966c-0.15,2.32-0.931,4.332-2.535,6.297
	c-3.63,4.442-9.164,7.53-10.042,14.086c-0.172,1.287-2.069,2.497-3.385,3.445c-2.84,2.049-1.634,3.903,0.609,4.65
	c5.572,1.857,7.933,5.85,8.683,11.25c-0.001,1.386-0.003,2.771-0.004,4.156c-0.229,2.338-0.998,4.386-2.901,5.991
	c-1.31-1.521-0.285-2.775-0.043-3.95c1.468-7.15-2.075-15.081-8.158-18.682c-1.598-0.945-2.321-0.073-3.5,0.445
	c-7.848,3.452-15.98,6.45-20.731,14.378c-0.425,0.71-1.177,1.092-2.115,1.063c-3.628-0.108-4.158,2.682-4.474,5.242
	c-0.972,7.888,4.375,14.894,12.367,16.479c5.068,1.006,5.544,1.85,3.525,6.675c-1.935,4.626-5.102,8.507-7.816,12.659
	c-0.298,0.373-0.921,0.969-0.843,1.083C188.541,236.023,189.335,235.591,190.077,235.344z"/>
<path fill-rule="evenodd" clip-rule="evenodd" fill="#565656" d="M467.592,128.731c2.882-1.182,1.901,0.38,1.508,1.939
	c-3.038,12.036-7.822,23.441-12.423,34.921c-7.965,19.871-16.639,39.417-26.542,58.405c-0.732,1.404-1.563,2.757-2.235,3.936
	c1.058-1.34,0.209-2.502-1.101-3.022c-1.114-0.443-1.638,0.823-2.061,1.702c-2.739,5.689-5.456,11.39-8.18,17.087
	c-0.583-0.034-1.167-0.067-1.75-0.102c13.767-31.854,27.503-63.723,41.354-95.542c1.157-2.658,1.269-5.861,3.766-7.89
	c0.409,0.331,0.819,0.661,1.229,0.991c-2.934,7.175-5.772,14.391-8.818,21.518c-7.492,17.527-15.098,35.006-22.589,52.534
	c-0.534,1.25-2.2,2.686-0.453,4.135c1.188,0.057,1.273-0.74,1.532-1.279c11.607-24.167,22.168-48.783,31.541-73.9
	c0.357-0.959,1.922-2.212,0.231-3.451l-0.025,0.033c1.668-0.017,1.43-1.003,1.048-2.061l-0.039,0.073
	c1.894-0.516,1.022-1.965,1.05-3.11C467.662,134.216,466.094,130.818,467.592,128.731z"/>
<path fill-rule="evenodd" clip-rule="evenodd" fill="#565656" d="M232.589,306.378c-7.655-3.861-14.324-9.271-21.554-13.806
	c-7.989-5.01-16.106-9.866-23.489-15.793c0.399-0.392,0.797-0.783,1.196-1.176c1.155-0.154,1.954,1.686,3.344,0.635
	c-0.522-2.069-2.139-1.334-3.396-1.453c-3.271-2.889-5.839-7.011-11.135-6.347c-0.297,0.211-0.595,0.423-0.893,0.634
	c-0.065-0.838-0.131-1.676-0.196-2.514c1.116-0.871,0.833-3.137,2.975-2.986c0.465,0.472,0.93,0.944,1.396,1.416
	c0.742,2.869,3.582,3.193,5.593,4.301c27.635,15.206,52.757,33.99,77.111,53.878c0.771,0.629,2.215,1.092,1.178,3.253
	c-8.046-4.961-14.954-11.261-22.39-16.823c-1.131-1.333-2.406-2.458-4.167-2.879c-0.523-0.523-1.046-1.047-1.568-1.57
	c-0.366-0.55-0.76-1.018-1.49-0.515c-1.037-1.521-2.494-2.513-4.126-3.286c-0.405-0.264-0.81-0.528-1.215-0.793
	c-0.562-0.652-1.343-1.784-2.046-0.874c-0.767,0.992,0.802,1.236,1.352,1.806c0.346,0.237,0.692,0.477,1.038,0.715
	c0.836,1.163,1.672,2.326,2.508,3.489C232.446,305.913,232.438,306.143,232.589,306.378z M225.698,297.606
	c-0.325-0.244-0.695-0.733-0.965-0.683c-0.557,0.104-0.514,0.606-0.229,1.043c0.598,0.873,1.198,2.259,2.41,1.238
	C227.483,298.725,226.462,297.913,225.698,297.606z M202.227,281.86c-0.842-0.876-1.975-2.205-2.92-0.81
	c-0.718,1.062,0.924,1.646,1.868,2.128c1.042,0.622,2.085,1.243,3.127,1.865c1.615,1.479,3.174,3.086,6.088,2.937
	c-1.246-2.594-3.273-3.274-5.151-4.144C204.234,283.178,203.231,282.518,202.227,281.86z M216.936,291.365
	c-1.162-0.79-2.023-2.478-3.874-1.435c0.203,1.698,1.471,2.054,2.637,2.521c1.167,0.942,2.11,2.508,4.072,1.623
	C219.335,292.44,218.162,291.874,216.936,291.365z M197.784,280.032c-1.729-2.063-2.475-3.534-4.704-3.08
	C193.597,278.948,194.971,279.377,197.784,280.032z M223.34,295.642c-0.479-0.259-0.893-0.623-1.342-0.674
	c-0.283-0.032-1.157,0.02-0.704,0.792c0.206,0.351,0.647,0.596,1.033,0.783C222.419,296.588,222.716,296.209,223.34,295.642z"/>
<path fill-rule="evenodd" clip-rule="evenodd" fill="#565656" d="M305.595,64.941c11.525,2.278,23.118,4.264,34.657,6.397
	c34.32,6.346,67.136,18.431,101.238,25.479c5.881,1.215,11.845,2.487,17.042,5.839l-0.006,0.001
	c-1.442,1.413-2.936,0.476-4.413,0.09c-36.402-9.496-72.763-19.157-109.229-28.397c-11.802-2.99-23.817-5.225-35.938-6.713
	c-1.127-0.139-2.208-0.65-3.311-0.989C305.622,66.079,305.609,65.511,305.595,64.941z"/>
<path fill-rule="evenodd" clip-rule="evenodd" fill="#898989" d="M397.189,238.02c-48.669-14.262-96.539-30.949-144.485-47.402
	c0.204-0.617,0.407-1.234,0.61-1.852c48.141,15.866,96.281,31.731,144.422,47.598C397.553,236.915,397.372,237.468,397.189,238.02z"
	/>
<path fill-rule="evenodd" clip-rule="evenodd" fill="#565656" d="M219.793,18.974c-2.179,1.953-2.06-0.247-2.099-1.314
	c-0.124-3.446-0.046-6.899-1.157-10.778c-10.029,12.785-20.059,25.571-30.486,38.864c7.388,1.711,14.32,3.181,21.174,4.954
	c4.125,1.067,8.446,1.828,11.797,4.881c0.522,0.477,1.124,1.376,2.056,0.578c0.738-0.633,0.566-1.488,0.446-2.308
	c-0.432-2.955-0.904-5.904-1.298-8.863c-0.798-5.984-0.781-5.987,4.933-4.656c-5.761,6.352,0.438,12.683-0.164,19.411
	c-13.604-6.008-28.41-8.598-43.687-12.493c12.525-15.04,23.719-31.033,37.106-46.365c1.896,5.632,0.933,10.295,1.16,14.866
	C219.646,16.825,219.72,17.899,219.793,18.974z"/>
<path fill-rule="evenodd" clip-rule="evenodd" fill="#898989" d="M414.809,243.598c0.583,0.034,1.167,0.067,1.75,0.102
	c-0.624,3.843-3.122,6.858-4.532,10.344c-0.915,2.261-2.84,4.555-0.896,7.23c-2.106,0.741-4.367-0.316-6.553,1.139
	c-7.687,5.115-15.559,9.951-23.358,14.895c-1.037,0.626-2.416,0.916-2.501,2.835c1.544,0.108,2.776-0.132,3.492-1.682
	c0.938,0.296,1.853-0.912,2.808-0.055c-3.116,4.054-3.115,4.053-6.915,1.821c-0.136-0.08-0.278-0.156-0.428-0.199
	c-2.058-0.601-8.296,5.347-8.052,7.672c-1.632-0.229-2.559,2.427-4.461,1.089c-1.474-0.132-2.96-0.279-2.512,2.002l-0.006,0.006
	c-1.927-0.729-3.225-0.518-2.99,1.994l0.124-0.025c-2.112-1.599-3.359,0.55-4.729,1.306c-6.21,3.427-12.293,7.085-18.421,10.66
	l0.053,0.05c1.415-2.65,3.528-4.668,6.056-6.182c19.614-11.742,38.182-25.155,58.103-36.412c1.237-0.699,3.515-0.93,2.671-3.404
	c0.358-0.021,0.716-0.042,1.073-0.063c3.165,0.656,4.397-1.27,5.352-3.819C411.374,251.057,412.435,247.041,414.809,243.598z"/>
<path fill-rule="evenodd" clip-rule="evenodd" fill="#898989" d="M420.539,107.182c-38.428-11.931-77.817-20.228-117.111-28.924
	C343.248,84.57,382.537,93.073,420.539,107.182z"/>
<path fill-rule="evenodd" clip-rule="evenodd" fill="#898989" d="M446.976,122.184c-11.632,34.95-28.365,67.93-41.273,102.452
	C415.701,189.014,433.202,156.38,446.976,122.184z"/>
<path fill-rule="evenodd" clip-rule="evenodd" fill="#565656" d="M82.931,146.091c-4.298,10.51-4.367,22.081-8.213,32.704
	c-0.66-0.025-1.32-0.05-1.98-0.074c2.605-10.072,3.605-20.475,6.375-30.529c0.931-3.376-0.994-6.801-1.576-10.2
	c-3.52-20.581-5.659-41.342-8.306-62.037c2.372,0.662,1.91,2.935,2.59,4.559c2.257,16.083,4.499,32.169,6.782,48.249
	c0.629,4.428,1.409,8.833,2.063,13.258c0.177,1.195,0.72,1.776,1.931,1.702C82.708,144.511,82.819,145.301,82.931,146.091z"/>
<path fill-rule="evenodd" clip-rule="evenodd" fill="#565656" d="M260.058,53.221c12.511-4.925,25.117-9.427,38.816-9.566
	c1.923-0.02,4.776-0.946,4.76,1.729c-0.025,3.927-2.829,0.846-4.287,0.886c-9.04,0.247-17.775,2.084-26.267,5.006
	c-6.972,2.398-13.808,5.192-21.179,7.991c4.729-4.253,5.139-10.089,7.379-15.036c0.945-2.088-1.531-1.942-2.793-2.387
	c-7.506-2.642-15.309-1.862-23.036-2.126c-1.1-0.037-3.208,1.692-3.491-0.684c-0.286-2.404,2.248-1.899,3.542-2.083
	c7.43-1.051,14.762-0.106,21.879,2.052c1.771,0.538,3.504,0.675,5.256,0.914c0.943,0.13,2.221-1.575,2.816,0.325
	c0.361,1.153,0.475,2.289-0.577,3.621c-1.939,2.453-2.972,5.487-3.524,8.618c-0.137,0.319-0.273,0.639-0.41,0.958
	C259.315,53.366,259.687,53.293,260.058,53.221z"/>
<path fill-rule="evenodd" clip-rule="evenodd" fill="#565656" d="M235.999,163.214c12.606-32.396,25.734-64.655,42.033-95.514
	C264.125,99.556,250.78,131.654,235.999,163.214z"/>
<path fill-rule="evenodd" clip-rule="evenodd" fill="#565656" d="M224.104,229.986c22.46,9.278,42.253,23.374,63.282,35.23
	c3.913,2.206,7.877,4.438,11.689,6.862c0.915,0.582,2.787,1.26,1.662,2.767c-1.109,1.485-1.926-0.44-2.749-0.919
	c-19.792-11.498-39.517-23.111-59.338-34.558c-5.114-2.953-10.511-5.414-15.779-8.101
	C223.283,230.841,223.693,230.413,224.104,229.986z"/>
<path fill-rule="evenodd" clip-rule="evenodd" fill="#565656" d="M184.36,110.438c0.832-7.206-1.365-14.109-2.215-21.14
	c-0.834-6.903-2.218-13.74-3.321-20.612c-0.15-0.935-0.41-2.005,1.233-2.89c2.672,4.677,2.609,9.992,3.469,14.978
	c1.352,7.833,2.259,15.746,3.223,23.642c0.427,3.496,1.765,3.854,4.319,1.71c5.285-4.437,10.586-8.854,15.916-13.238
	c0.723-0.594,1.282-1.578,2.535-1.454c1.256,1.437,0.077,2.577-0.787,3.288c-6.23,5.129-11.35,11.771-19.082,14.836
	c-1.925,0.764-2.06,1.662-2.066,3.161c-0.625-0.019-1.249-0.038-1.874-0.057c-0.359-0.162-0.718-0.324-1.077-0.486
	C184.542,111.597,184.451,111.018,184.36,110.438z"/>
<path fill-rule="evenodd" clip-rule="evenodd" fill="#565656" d="M111.836,128.09c6.851,10.392,7.443,21.637,3.668,32.919
	c-2.641,7.893-0.622,15.441-0.27,23.146c0.308,6.735,1.603,13.514-1.281,20.079c0.253-15.579-4.601-31.064-0.267-46.721
	c2.062-7.447,1.895-15.045-1.1-22.33C111.632,132.861,112.514,130.388,111.836,128.09z"/>
<path fill-rule="evenodd" clip-rule="evenodd" fill="#565656" d="M365.164,288.788c1.902,1.338,2.829-1.318,4.461-1.089
	c0.842,2.531-1.549,3.138-2.779,3.976c-19.301,13.144-38.691,26.155-58.062,39.197c-1.285,0.027-2.571,0.056-3.856,0.083
	c16.97-11.573,33.95-23.131,50.888-34.75c1.428-0.979,3.425-1.402,3.965-3.44l-0.124,0.025c1.661,0.331,2.576-0.455,2.99-1.994
	l0.006-0.006C364.135,290.933,365.295,290.671,365.164,288.788z"/>
<path fill-rule="evenodd" clip-rule="evenodd" fill="#565656" d="M151.509,288.56c-2.13,1.283-4.112,3.024-6.417,3.772
	c-11.092,3.602-18.143,11.556-23.889,21.162c-3.118,5.214-6.115,10.551-10.773,15.063c3.065-10.145,9.921-17.817,15.701-26.642
	c-4.217,0.771-7.303,3.739-12.401,3.414c12.559-7.92,26.064-12.017,37.81-19.439C151.53,286.78,151.52,287.67,151.509,288.56z"/>
<path fill-rule="evenodd" clip-rule="evenodd" fill="#565656" d="M358.463,246.542c-24.868-10.189-49.735-20.38-74.737-30.625
	c1.226-2.266,2.448-1.28,3.295-0.939c23.667,9.548,47.467,18.776,70.824,29.079c0.295,0.13,0.532,0.388,0.797,0.586
	C358.583,245.275,358.523,245.909,358.463,246.542z"/>
<path fill-rule="evenodd" clip-rule="evenodd" fill="#565656" d="M275.093,102.343c0.219,2.344-1.055,3.969-1.822,5.66
	c-9.189,20.246-17.988,40.648-25.411,61.624c-0.423,1.194-0.241,3.797-2.39,2.922c-2.216-0.901,0.041-2.603,0.412-3.703
	c7.17-21.246,16.117-41.771,25.584-62.073C272.199,105.201,272.302,102.829,275.093,102.343z"/>
<path fill-rule="evenodd" clip-rule="evenodd" fill="#565656" d="M161.658,66.3c-24.893,3.709-49.669,8.018-74.065,14.296
	c0.007-0.615,0.014-1.23,0.021-1.847c12.075-4.39,24.735-6.35,37.236-8.967c0.746-0.156,1.701,0.063,1.834-1.102l-0.075,0.073
	c6.77,0.566,13.15-1.956,19.786-2.492c5.075-0.41,10.133-1.015,15.199-1.532C161.616,65.253,161.637,65.776,161.658,66.3z"/>
<path fill-rule="evenodd" clip-rule="evenodd" fill="#565656" d="M157.572,49.67c-13.734,3.305-27.809,4.592-41.686,7.05
	c-9.737,1.726-19.49,3.365-29.235,5.044c-0.204-0.161-0.415-0.173-0.635-0.034c-0.658-3.729,2.73-2.648,4.146-2.967
	c7.903-1.773,15.868-3.334,23.873-4.577c14.514-2.255,29.069-4.234,43.607-6.329C157.618,48.461,157.595,49.065,157.572,49.67z"/>
<path fill-rule="evenodd" clip-rule="evenodd" fill="#565656" d="M181.468,120.765c3,3.401,6.668,6.329,7.435,11.15
	c2.509-0.478,3.278-3.408,6.173-2.965c-0.483,2.535-2.587,3.669-4.04,5.305c-1.548,1.742-4.047,2.988-3.526,5.993
	c0.27,1.555-0.904,1.403-1.88,1.524c-5.282,0.657-11.816-3.598-12.933-8.861c-1.212-5.714-0.169-11.172,2.776-16.292
	c1.018-1.769,2.336-2.163,4.129-1.843c0,0-0.065-0.055-0.065-0.055c-3.187,3.755-4.611,8.175-4.847,13.02
	c-0.313,6.403,3.505,10.9,9.756,11.594c1.719,0.19,2.46,0.282,2.361-2.22c-0.218-5.485-1.985-9.906-6.154-13.469
	c-1.581-1.353-2.274-2.805,0.89-2.868L181.468,120.765z"/>
<path fill-rule="evenodd" clip-rule="evenodd" fill="#565656" d="M213.911,127.781c-4.889,4.257-9.629,8.732-15.497,11.655
	c-1.176,0.586-3.16,2.061-3.951,0.354c-0.982-2.119,1.684-1.816,2.791-2.439c4.814-2.715,9.029-6.212,13.164-9.824
	c0.876-0.765,1.638-1.958,2.646-2.225c6.299-1.671,6.234-6.685,5.185-11.191c-1.243-5.34-3.905-10.233-9.356-11.009
	c1.875,4.021,8.928,1.552,10.897,7.467c1.676,5.033,1.126,9.822-0.419,14.645c-0.637,1.986-1.57,3.856-4.088,4.024
	c0.394-0.85,1.246-1.898,0.355-2.599C214.808,125.987,214.305,127.084,213.911,127.781z"/>
<path fill-rule="evenodd" clip-rule="evenodd" fill="#565656" d="M299.461,42.086c-4.25-6.12-7.534-11.337-11.317-16.163
	c-3.871-4.938-8.23-9.494-12.706-14.594c-2.786,4.864-2.476,10.491-5.937,15.37c-1.348-4.029,0.658-7.116,1.156-10.302
	c0.486-3.118,3.01-5.976,1.037-9.408c-0.182-0.317,0.32-1.028,0.506-1.557c0.674,0.418,1.442,0.736,2.009,1.27
	c7.761,7.291,14.737,15.272,20.849,23.996C297.167,33.708,299.413,36.697,299.461,42.086z"/>
<path fill-rule="evenodd" clip-rule="evenodd" fill="#565656" d="M113.92,211.914c0.684,2.751,0.959,5.422-0.775,7.984
	c-0.903,1.336-0.716,3.057,0.242,4.128c0.73,0.815,2.312,1.49,3.167-0.36l-0.088-0.112c-2.95,0.875-4.669,2.673-5.945,5.657
	c-1.738,4.066-4.087,7.993-6.814,11.479c-2.396,3.064-1.529,4.278,1.478,5.617c3.878,1.728,7.651,3.692,11.303,5.955
	c-5.853,0.366-10.733-2.15-14.912-5.799c-1.66-1.449-2.464-3.823-0.572-6.5c2.847-4.027,5.168-8.443,7.53-12.793
	c2.583-4.757,3.384-9.971,3.391-15.33C112.589,211.865,113.255,211.89,113.92,211.914z"/>
<path fill-rule="evenodd" clip-rule="evenodd" fill="#565656" d="M196.629,178.687c-2.286-0.414-1.39-2.339-1.537-3.586
	c-0.678-5.789-2.677-10.988-6.861-15.088c-2.051-2.01-1.578-2.572,0.796-3.657c9.516-4.347,16.771-2.446,19.797,5.703
	c0.985,2.652,2.748,5.268-2.288,7.274c-3.959,1.579-6.717,6.17-10.009,9.424C196.527,178.757,196.629,178.687,196.629,178.687z
	 M196.81,174.38c4.143-2.642,5.962-6.776,10.252-7.449c0.203-0.032,0.384-1.128,0.333-1.707c-0.596-6.657-7.938-10.897-14.03-8.185
	c-1.96,0.873-3.114,1.572-1.167,3.829C195.269,164.428,197.17,168.59,196.81,174.38z"/>
<path fill-rule="evenodd" clip-rule="evenodd" fill="#565656" d="M85.048,116.771c-1.42-9.885-4.403-19.555-4.683-29.596
	c0.554-0.104,1.107-0.21,1.661-0.314c1.596,8.9,3.191,17.8,4.792,26.724c10.503-3.579,16.245-2.07,22.564,6.628
	c-8.163-5.439-15.701-8.202-23.788-2.501C85.413,117.398,85.23,117.085,85.048,116.771z"/>
<path fill-rule="evenodd" clip-rule="evenodd" fill="#565656" d="M116.554,223.666c1.657-2.707,4.676-1.966,7.056-2.583
	c15.887-4.124,31.817-8.09,47.946-11.187c0.325,0.57,0.65,1.142,0.975,1.713c-17.465,4.165-34.932,8.323-52.391,12.514
	c-1.346,0.323-2.563,0.386-3.672-0.567C116.466,223.554,116.554,223.666,116.554,223.666z"/>
<path fill-rule="evenodd" clip-rule="evenodd" fill="#565656" d="M201.637,60.792c4.506-1.809,9.121-2.618,13.149,0.749
	c3.964,3.314,3.786,8.059,2.562,12.456c-1.052,3.776,1.989,7.619-0.686,11.253c-0.916,1.245-0.655,3.253-2.339,4.081
	c-1.037-0.371-1.445-1.197-1.011-1.979c2.6-4.688,1.708-9.836,2.152-14.82c0.771-8.665-2.945-12.152-11.448-10.518
	c-0.813,0.155-1.616,0.36-2.423,0.542C201.607,61.968,201.623,61.38,201.637,60.792z"/>
<path fill-rule="evenodd" clip-rule="evenodd" fill="#565656" d="M247.275,252.07c-12.224-6.99-24.667-13.562-37.402-19.607
	c14.335,3.045,26.669,10.365,38.76,18.206C248.181,251.137,247.728,251.604,247.275,252.07z"/>
<path fill-rule="evenodd" clip-rule="evenodd" fill="#565656" d="M188.537,258.754c12.459,5.229,24.599,11.092,36.018,18.355
	c0.738,0.47,1.137,1.474,1.376,2.749c-12.667-6.7-25.369-13.21-38.306-19.24C186.779,259.434,187.203,258.871,188.537,258.754z"/>
<path fill-rule="evenodd" clip-rule="evenodd" fill="#565656" d="M325.711,288.93c11.559-6.655,23.116-13.311,34.675-19.965
	C358.635,273.517,331.46,289.177,325.711,288.93z"/>
<path fill-rule="evenodd" clip-rule="evenodd" fill="#565656" d="M52.386,215.793c-1.027,12.793-1.695,25.64-5.673,37.994
	c-0.25,0.776,0.61,2.264-1.146,2.004c-1.391-0.206-1.096-1.476-0.953-2.395c1.463-9.392,2.982-18.775,4.453-28.166
	c0.484-3.092,0.872-6.199,1.303-9.3C51.041,215.885,51.713,215.839,52.386,215.793z"/>
<path fill-rule="evenodd" clip-rule="evenodd" fill="#565656" d="M201.045,194.354c-1.425,0.165-2.213,0.267-3.004,0.347
	c-5.575,0.562-5.953,1.302-2.975,5.656c0.651,0.951,1.153,2.009,1.674,3.042c0.448,0.888,0.825,1.813,1.397,3.085
	c2.51-3.268,4.898-6.376,7.286-9.483c0.383,0.268,0.767,0.536,1.15,0.804c-1.667,4.676-4.741,8.562-8.581,11.728
	c-1.688,1.393-1.988-0.81-2.339-2.009c-0.999-3.407-2.566-6.383-5.366-8.765c-3.537-3.009,1.171-3.787,2.02-4.991
	C195.236,189.611,197.158,189.845,201.045,194.354z"/>
<path fill-rule="evenodd" clip-rule="evenodd" fill="#565656" d="M198.158,144.006c-10.967,7.4-23.407,13.321-18.13,29.343
	c-3.922-2.286-3.885-6.369-3.294-10.423C177.959,154.527,188.726,144.727,198.158,144.006z"/>
<path fill-rule="evenodd" clip-rule="evenodd" fill="#898989" d="M222.647,193.79c0.001-1.386,0.003-2.771,0.004-4.156
	c2.431-0.019,2.03-2.144,2.561-3.52c2.004-5.193,3.563-10.571,6.471-15.386c0.652,0.006,1.304,0.011,1.956,0.017
	c-1.776,5.509-3.989,10.896-7.196,15.66c-2.459,3.651-0.877,4.391,2.255,5.249c3.686,1.01,7.821,1.125,11.316,4.995
	C233.396,196.951,228.422,192.728,222.647,193.79z"/>
<path fill-rule="evenodd" clip-rule="evenodd" fill="#565656" d="M39.671,262.832c-2.908,2.756-4.597,9.204-9.287,13.604
	c-4.528,4.247-7.429,10.191-13.337,13.044C24.834,279.675,32.086,269.46,39.671,262.832z"/>
<path fill-rule="evenodd" clip-rule="evenodd" fill="#565656" d="M159.331,234.08c-5.825,4.887-14.341,4.742-18.604,0.326
	c-2.827-2.929-2.943-6.232-0.995-9.53c1.731-2.929,4.243-4.67,7.981-3.965c-0.092,0.816-0.059,1.077-0.135,1.113
	c-3.696,1.786-7.575,3.794-5.801,8.778c1.592,4.474,5.908,4.118,9.742,3.975C153.811,234.692,156.092,234.379,159.331,234.08z"/>
<path fill-rule="evenodd" clip-rule="evenodd" fill="#565656" d="M223.741,16.118c16.987-4.678,31.856-4.936,40.173-0.302
	c-13.616-2.258-26.99-0.485-40.318,2.037C223.645,17.275,223.693,16.696,223.741,16.118z"/>
<path fill-rule="evenodd" clip-rule="evenodd" fill="#565656" d="M52.677,208.723c2.789-11.817,10.296-20.534,18.797-28.598
	c0.072,0.906,0.145,1.812,0.217,2.717c-6.844,7.867-13.483,15.87-17.149,25.847C53.92,208.699,53.298,208.711,52.677,208.723z"/>
<path fill-rule="evenodd" clip-rule="evenodd" fill="#565656" d="M230.011,285.188c10.937-4.616,20.253-12.119,31.217-16.366
	C251.765,276.215,242.035,283.081,230.011,285.188z"/>
<path fill-rule="evenodd" clip-rule="evenodd" fill="#565656" d="M189.214,82.806c-3.521-6.986-3.192-10.672,1.233-13.828
	c-2.433,11.394-0.748,13.707,14.172,18.836c-5.869,1.835-10.083-0.428-14.096-3.511C190.086,83.804,189.65,83.305,189.214,82.806z"
	/>
<path fill-rule="evenodd" clip-rule="evenodd" fill="#898989" d="M82.931,146.091c-0.112-0.79-0.224-1.58-0.335-2.369
	c0.109-1.374,0.219-2.749,0.329-4.123c1.537,0.303,1.633-1.425,2.637-1.872c1.219-0.851,2.337-2.18,3.675-2.459
	c3.384-0.707,3.352-2.959,3.296-5.579c-0.048-2.281-0.248-4.633,1.268-7.939c2.186,5.189,0.898,9.747,1.174,14.098
	c0.018,0.277-0.658,0.813-1.062,0.87C88.246,137.512,85.185,141.32,82.931,146.091z"/>
<path fill-rule="evenodd" clip-rule="evenodd" fill="#565656" d="M404.584,258.72c-0.357,0.021-0.715,0.041-1.073,0.063
	c-8.554-3.647-16.648-8.256-25.078-12.188C388.042,248.69,397.137,251.896,404.584,258.72z"/>
<path fill-rule="evenodd" clip-rule="evenodd" fill="#898989" d="M86.016,61.729c0.22-0.139,0.431-0.127,0.635,0.034
	c-6.2,5.256-11.779,11.002-14.83,18.749c-0.68-1.624-0.218-3.896-2.59-4.559c-0.098-2.53,0.025-2.879,1.401-2.393
	c1.407,0.497,1.817-0.19,2.246-1.021c2.277-4.418,7.282-6.461,9.437-11.043C83.388,59.217,84.732,62.091,86.016,61.729z"/>
<path fill-rule="evenodd" clip-rule="evenodd" fill="#898989" d="M270.613,210.684c-7.411-2.521-14.831-5.015-22.223-7.589
	c-1.259-0.438-2.408-1.074-3.71-0.25c-0.077-0.913,0.541-1.418,1.138-1.936c8.7,1.465,17.217,3.482,24.833,8.222
	C270.638,209.648,270.625,210.166,270.613,210.684z"/>
<path fill-rule="evenodd" clip-rule="evenodd" fill="#898989" d="M277.103,96.827c-0.709-3.755,2.314-6.122,3.553-9.125
	c1.81-4.388,4.305-8.494,6.562-12.691c0.382-0.709,1.047-1.484,1.989-1.004c1.014,0.517,0.527,1.366,0.146,2.098
	c-3.421,6.55-6.844,13.098-10.266,19.646C278.425,96.11,277.764,96.469,277.103,96.827z"/>
<path fill-rule="evenodd" clip-rule="evenodd" fill="#565656" d="M186.682,65.313c-3.667-5.626-7.961-10.836-13.104-15.369
	C179.613,50.951,182.181,54.029,186.682,65.313z"/>
<path fill-rule="evenodd" clip-rule="evenodd" fill="#898989" d="M467.592,128.731c-1.498,2.087,0.069,5.484-2.958,6.917
	c-0.361,0.022-0.722,0.044-1.083,0.065c-0.634,0.012-1.268,0.022-1.901,0.034c-0.123-1.271,0.486-2.219,1.353-3.053
	c0.521-0.133,1.042-0.267,1.563-0.399c-0.345-0.205-0.69-0.411-1.035-0.617c1.021-5.01,3.208-9.518,6.101-14.657
	C469.973,121.7,467.12,124.927,467.592,128.731z"/>
<path fill-rule="evenodd" clip-rule="evenodd" fill="#898989" d="M189.214,82.806c0.436,0.499,0.873,0.998,1.309,1.497
	c-0.099,5.636,3.015,10.794,2.825,16.896C189.589,97.092,187.386,86.576,189.214,82.806z"/>
<path fill-rule="evenodd" clip-rule="evenodd" fill="#898989" d="M303.665,330.657c-2.035-0.926-3.429,0.693-5.024,1.346
	c-4.12,1.686-8.228,3.187-12.817,1.798c5.406-1.818,10.932-3.121,16.106-5.584c3.757-1.789,0.352,2.137,1.679,2.48
	C303.607,330.698,303.665,330.657,303.665,330.657z"/>
<path fill-rule="evenodd" clip-rule="evenodd" fill="#898989" d="M185.71,112.662c0.625,0.019,1.249,0.038,1.874,0.057
	c-0.042,4.426,4.997,1.148,6.015,3.967c0.004,0.668,0.009,1.336,0.013,2.004c-0.889-0.367-2.429-1.218-2.57-1.028
	c-2.491,3.352-6.809,0.87-9.574,3.103c0,0.001,0.075,0.015,0.076,0.015c0.8-1.082,0.225-2.996,2.141-3.416
	C186.504,116.744,185.587,114.468,185.71,112.662z"/>
<path fill-rule="evenodd" clip-rule="evenodd" fill="#898989" d="M305.595,64.941c0.014,0.569,0.026,1.138,0.04,1.706
	c-5.61,0.021-10.877-1.385-15.954-3.68C295.098,62.972,300.445,63.222,305.595,64.941z"/>
<path fill-rule="evenodd" clip-rule="evenodd" fill="#898989" d="M188.537,258.754c-1.334,0.117-1.758,0.68-0.913,1.864
	c-3.611-0.639-4.257,3.33-6.788,4.37c-0.465-0.472-0.93-0.944-1.396-1.416c3.375-4.587,8.648-7.484,11.311-12.8
	C190.484,253.629,187.164,255.532,188.537,258.754z"/>
<path fill-rule="evenodd" clip-rule="evenodd" fill="#565656" d="M193.612,118.689c-0.004-0.668-0.009-1.336-0.013-2.004
	c6.503,3.913,8.576,7.883,6.726,14.493C198.985,125.886,197.064,121.818,193.612,118.689z"/>
<path fill-rule="evenodd" clip-rule="evenodd" fill="#565656" d="M214.899,206.758c3.042,3.364,4.999-2.067,8.337-0.616
	c-2.423,3.418-5.955,4.611-9.623,5.596l-0.024-0.024c0.063-1.89,0.65-4.302-2.742-2.76c-0.28-0.428-0.56-0.855-0.84-1.285
	c0.95-1.074,2.171-1.667,3.541-1.994C213.999,206.035,214.449,206.396,214.899,206.758z"/>
<path fill-rule="evenodd" clip-rule="evenodd" fill="#898989" d="M176.466,266.559c0.065,0.838,0.13,1.676,0.196,2.514
	c-3.664,3.61-6.786,8.025-12.945,8.055C167.966,273.604,172.216,270.081,176.466,266.559z"/>
<path fill-rule="evenodd" clip-rule="evenodd" fill="#565656" d="M126.685,68.681c-2.581-0.368-5.229-1.144-4.678-4.335
	c0.48-2.781,2.813-4.325,5.699-4.646c0.839-0.093,1.65,0.159,2.066,1.019c0.497,1.027-0.161,1.734-0.973,1.807
	c-5.407,0.482-3.916,3.296-2.19,6.229C126.61,68.754,126.685,68.681,126.685,68.681z"/>
<path fill-rule="evenodd" clip-rule="evenodd" fill="#898989" d="M266.155,326.666c5.209,1.654,8.684,5.438,12.081,9.343
	C273.527,333.771,269.053,331.23,266.155,326.666z"/>
<path fill-rule="evenodd" clip-rule="evenodd" fill="#898989" d="M161.658,66.3c-0.021-0.523-0.042-1.047-0.063-1.57
	c4.478-1.445,9.023-1.511,14.025-0.779C170.736,65.073,166.325,66.46,161.658,66.3z"/>
<path fill-rule="evenodd" clip-rule="evenodd" fill="#565656" d="M85.562,137.727c-1.004,0.447-1.1,2.175-2.637,1.872
	c-0.005-5.254-0.01-10.508-0.015-15.763c0.599-0.061,1.198-0.122,1.796-0.184C86.492,128.253,85.248,133.037,85.562,137.727z"/>
<path fill-rule="evenodd" clip-rule="evenodd" fill="#898989" d="M232.589,306.378c-0.151-0.235-0.143-0.465,0.025-0.688
	c0.939-0.094,2.213,0.6,2.489-1.057c0.729-0.503,1.124-0.035,1.49,0.515c-0.413,1.458,0.308,1.784,1.568,1.57
	c1.761,0.421,3.037,1.546,4.167,2.879c-0.614,1.376-0.841,3.4-3.146,1.63C237.021,309.564,234.269,308.702,232.589,306.378z"/>
<path fill-rule="evenodd" clip-rule="evenodd" fill="#565656" d="M245.818,200.909c-0.597,0.518-1.215,1.022-1.138,1.936
	c-0.173,1.104-0.009,2.755-1.669,2.45c-1.52-0.279-1.149-1.646-0.76-2.852c0.493-1.531,0.525-3.277,1.297-4.621
	c0.342-0.598,2.621-0.934,2.953-0.523C247.432,198.447,246.466,199.757,245.818,200.909z"/>
<path fill-rule="evenodd" clip-rule="evenodd" fill="#898989" d="M188.742,275.604c-0.398,0.393-0.797,0.784-1.196,1.176
	c-0.324-0.19-0.648-0.381-0.973-0.572c-0.519-0.496-1.038-0.99-1.556-1.485c-3.807-0.527-4.644-4.582-7.462-6.283
	c5.296-0.664,7.864,3.458,11.135,6.347C188.675,275.061,188.692,275.333,188.742,275.604z"/>
<path fill-rule="evenodd" clip-rule="evenodd" fill="#898989" d="M304.927,330.955c1.285-0.027,2.571-0.056,3.856-0.083
	c-4.054,2.936-7.575,6.903-13.192,6.811l0.042,0.041c1.726-3.435,6.41-3.508,8.03-7.065c0.001-0.001-0.057,0.04-0.056,0.039
	C304.048,330.783,304.488,330.869,304.927,330.955z"/>
<path fill-rule="evenodd" clip-rule="evenodd" fill="#898989" d="M52.677,208.723c0.622-0.012,1.243-0.023,1.864-0.034
	c0.362,2.695-1.013,4.864-2.155,7.104c-0.672,0.046-1.345,0.092-2.017,0.138C50.313,213.264,50.666,210.728,52.677,208.723z"/>
<path fill-rule="evenodd" clip-rule="evenodd" fill="#898989" d="M172.531,211.609c-0.325-0.571-0.65-1.143-0.975-1.713
	c2.506-1.369,5.622-0.489,8.042-2.177c0.38,0.872,0.76,1.744,1.139,2.616C177.945,210.397,175.415,212.141,172.531,211.609z"/>
<path fill-rule="evenodd" clip-rule="evenodd" fill="#898989" d="M458.533,102.656c3.57-0.054,6.786,0.938,10.16,3.749
	c-3.861-1.381-7.74-0.425-10.165-3.749C458.527,102.657,458.533,102.656,458.533,102.656z"/>
<path fill-rule="evenodd" clip-rule="evenodd" fill="#898989" d="M157.572,49.67c0.023-0.604,0.046-1.209,0.069-1.813
	c2.939-1.45,6.071-0.734,9.204-0.557C163.813,48.292,160.997,50.047,157.572,49.67z"/>
<path fill-rule="evenodd" clip-rule="evenodd" fill="#898989" d="M151.509,288.56c0.01-0.89,0.021-1.779,0.031-2.669
	c1.826-1.04,3.742-4.807,4.967-3.2c1.637,2.146-2.125,3.618-3.707,5.269C152.495,288.278,151.946,288.365,151.509,288.56z"/>
<path fill-rule="evenodd" clip-rule="evenodd" fill="#898989" d="M201.637,60.792c-0.015,0.588-0.03,1.176-0.044,1.764
	c-1.666,1.588-3.661,2.355-6.864,3.213C196.908,62.507,199.029,61.299,201.637,60.792z"/>
<path fill-rule="evenodd" clip-rule="evenodd" fill="#898989" d="M358.463,246.542c0.06-0.633,0.119-1.267,0.179-1.899
	c2.621,0.429,5.184,0.962,6.645,3.748C362.414,249.573,360.534,247.705,358.463,246.542z"/>
<path fill-rule="evenodd" clip-rule="evenodd" fill="#898989" d="M247.275,252.07c0.453-0.467,0.906-0.934,1.358-1.401
	c2.272,0.686,3.938,2.052,5.23,4.54C250.427,256.056,249.154,253.419,247.275,252.07z"/>
<path fill-rule="evenodd" clip-rule="evenodd" fill="#898989" d="M184.36,110.438c0.091,0.579,0.183,1.158,0.274,1.737
	c-1.674,0.897-3.092,2.308-5.096,2.546c0,0,0.066,0.055,0.065,0.055C179.196,111.145,182.098,111.143,184.36,110.438z"/>
<path fill-rule="evenodd" clip-rule="evenodd" fill="#898989" d="M87.614,78.749c-0.007,0.616-0.015,1.231-0.021,1.847
	c-1.274,1.309-2.898,0.918-5.247,1.56C84.01,79.576,85.636,78.879,87.614,78.749z"/>
<path fill-rule="evenodd" clip-rule="evenodd" fill="#565656" d="M270.613,210.684c0.013-0.518,0.025-1.035,0.038-1.553
	c2.907,0.065,5.388,1.45,7.954,2.57c-0.061,0.655-0.12,1.312-0.181,1.967C275.821,212.673,273.216,211.679,270.613,210.684z"/>
<path fill-rule="evenodd" clip-rule="evenodd" fill="#565656" d="M16.545,292.083c-0.876,0.854-1.753,1.707-2.629,2.561
	c-0.115-0.112-0.231-0.226-0.347-0.339c0.929-0.793,1.857-1.587,2.786-2.38C16.418,291.978,16.481,292.03,16.545,292.083z"/>
<path fill-rule="evenodd" clip-rule="evenodd" fill="#565656" d="M461.65,135.748c0.634-0.012,1.268-0.022,1.901-0.034
	c0.154,1.014-1.601,2.048,0.033,3.045l0.039-0.073c-1.618,0.041-1.756,0.836-1.048,2.061l0.025-0.033
	c-0.771-0.794-1.006,0.156-1.444,0.444c-0.409-0.33-0.819-0.66-1.229-0.991C460.501,138.692,461.076,137.221,461.65,135.748z"/>
<path fill-rule="evenodd" clip-rule="evenodd" fill="#565656" d="M233.639,170.745c-0.652-0.006-1.304-0.011-1.956-0.017
	c0.88-1.963,1.761-3.927,3.016-6.727C236.208,167.442,234.261,168.937,233.639,170.745z"/>
<path fill-rule="evenodd" clip-rule="evenodd" fill="#898989" d="M223.741,16.118c-0.048,0.578-0.096,1.157-0.145,1.735
	c-1.023,1.206-2.578,0.605-3.804,1.12c-0.073-1.074-0.146-2.148-0.219-3.224C220.853,17.123,222.37,15.795,223.741,16.118z"/>
<path fill-rule="evenodd" clip-rule="evenodd" fill="#898989" d="M219.577,229.751c-1.949,0.07-3.435-0.803-4.902-2.411
	c2.267-1.32,3.61-0.062,4.939,1.252C219.602,228.979,219.589,229.364,219.577,229.751z"/>
<path fill-rule="evenodd" clip-rule="evenodd" fill="#898989" d="M71.69,182.842c-0.072-0.905-0.145-1.811-0.217-2.717
	c0.421-0.468,0.842-0.936,1.264-1.404c0.66,0.024,1.32,0.049,1.98,0.074C74.43,180.684,73.1,181.792,71.69,182.842z"/>
<path fill-rule="evenodd" clip-rule="evenodd" fill="#898989" d="M278.424,213.668c0.061-0.655,0.12-1.312,0.181-1.967
	c1.61,0.068,3,0.684,4.226,1.707c-0.469,0.497-0.937,0.993-1.404,1.49C280.263,214.884,279.138,214.776,278.424,213.668z"/>
<path fill-rule="evenodd" clip-rule="evenodd" fill="#898989" d="M257.792,257.816c-1.056,0.126-2.381-0.401-2.221-1.113
	c0.196-0.879,1.322-0.372,1.913,0.244C257.667,257.136,257.682,257.485,257.792,257.816z"/>
<path fill-rule="evenodd" clip-rule="evenodd" fill="#565656" d="M202.078,213.189c1.327-1.376,2.687-2.689,5.168-2.913
	c-0.416,2.787-2.456,3.31-4.012,4.288C202.849,214.106,202.463,213.647,202.078,213.189z"/>
<path fill-rule="evenodd" clip-rule="evenodd" fill="#898989" d="M113.92,211.914c-0.666-0.024-1.331-0.049-1.997-0.073
	c-0.223-0.975-0.526-2.34,0.737-2.423C114.211,209.317,114.235,210.69,113.92,211.914z"/>
<path fill-rule="evenodd" clip-rule="evenodd" fill="#898989" d="M84.706,123.652c-0.599,0.062-1.198,0.123-1.796,0.184
	c-0.165-0.923-0.621-2.244,0.653-2.379C84.85,121.32,84.67,122.714,84.706,123.652z"/>
<path fill-rule="evenodd" clip-rule="evenodd" fill="#898989" d="M214.899,206.758c-0.45-0.361-0.901-0.723-1.352-1.084
	c0.73-0.829,1.666-1.253,2.373-0.221C216.346,206.075,215.553,206.546,214.899,206.758z"/>
<path fill-rule="evenodd" clip-rule="evenodd" fill="#565656" d="M203.235,214.564c-0.488,0.632-1.109,1.294-1.816,0.487
	c-0.681-0.777,0.107-1.35,0.66-1.862C202.463,213.647,202.849,214.106,203.235,214.564z"/>
<path fill-rule="evenodd" clip-rule="evenodd" fill="#898989" d="M295.591,337.683c-0.326,0.279-0.652,0.56-0.979,0.839
	c0.341-0.266,0.681-0.531,1.021-0.797C295.633,337.724,295.591,337.683,295.591,337.683z"/>
<path fill-rule="evenodd" clip-rule="evenodd" fill="#898989" d="M85.048,116.771c0.182,0.313,0.364,0.627,0.546,0.94
	c-0.294,0.534-0.765,0.586-1.034,0.12C84.448,117.638,84.87,117.134,85.048,116.771z"/>
<path fill-rule="evenodd" clip-rule="evenodd" fill="#565656" d="M219.577,229.751c0.012-0.387,0.025-0.772,0.037-1.159
	c0.691,0.368,2.248-0.098,1.865,1.266C221.189,230.89,220.222,230.072,219.577,229.751z"/>
<path fill-rule="evenodd" clip-rule="evenodd" fill="#565656" d="M463.53,131.679c0.345,0.206,0.69,0.412,1.035,0.617
	c-0.521,0.133-1.041,0.267-1.563,0.399C463.178,132.356,463.354,132.018,463.53,131.679z"/>
<path fill-rule="evenodd" clip-rule="evenodd" fill="#565656" d="M277.559,98.621c-0.481,0.534-0.872,0.968-1.263,1.4
	c-0.283-0.296-0.856-0.689-0.796-0.872c0.186-0.557,0.615-1.032,0.949-1.539C276.762,97.895,277.074,98.179,277.559,98.621z"/>
<path fill-rule="evenodd" clip-rule="evenodd" fill="#898989" d="M336.629,304.73c-0.265,0.146-0.53,0.292-0.795,0.438
	c0.139-0.077,0.274-0.164,0.418-0.23c0.138-0.063,0.284-0.107,0.428-0.158C336.682,304.78,336.629,304.73,336.629,304.73z"/>
<path fill-rule="evenodd" clip-rule="evenodd" fill="#565656" d="M281.426,214.898c0.468-0.497,0.936-0.993,1.404-1.49
	C283.534,215.008,282.836,215.289,281.426,214.898z"/>
<path fill-rule="evenodd" clip-rule="evenodd" fill="#565656" d="M222.872,231.269c-0.499-0.386-1.013-0.812-0.415-1.459
	c0.578-0.624,1.113-0.056,1.646,0.178C223.693,230.413,223.283,230.841,222.872,231.269z"/>
<path fill-rule="evenodd" clip-rule="evenodd" fill="#565656" d="M185.017,274.722c0.519,0.495,1.037,0.989,1.556,1.485
	C186.055,275.712,185.536,275.217,185.017,274.722z"/>
<path fill-rule="evenodd" clip-rule="evenodd" fill="#565656" d="M277.103,96.827c0.661-0.358,1.322-0.717,1.983-1.076
	C278.539,96.317,278.525,97.868,277.103,96.827z"/>
<path fill-rule="evenodd" clip-rule="evenodd" fill="#898989" d="M210.847,208.953c3.393-1.542,2.805,0.87,2.742,2.76
	C212.248,211.218,210.669,210.958,210.847,208.953z"/>
</svg>
