<?xml version="1.0" encoding="utf-8"?>
<!-- Generator: Adobe Illustrator 16.0.0, SVG Export Plug-In . SVG Version: 6.00 Build 0)  -->
<!DOCTYPE svg PUBLIC "-//W3C//DTD SVG 1.1//EN" "http://www.w3.org/Graphics/SVG/1.1/DTD/svg11.dtd">
<svg version="1.1" id="Calque_1" xmlns="http://www.w3.org/2000/svg" xmlns:xlink="http://www.w3.org/1999/xlink" x="0px" y="0px"
	 width="481.08px" height="396.851px" viewBox="0 0 481.08 396.851" enable-background="new 0 0 481.08 396.851"
	 xml:space="preserve">
<path fill-rule="evenodd" clip-rule="evenodd" fill="#5C5C5C" d="M65.571,117.077c2.243,20.693,1.966,41.469,2.05,62.232
	c0.009,2.24-0.614,4.599,2.106,6.157c1.196,0.686,1.332,2.553,0.637,4.55c-2.385-1.908-4.645-4.495-7.913-2.641
	c-2.772,1.572-2.95,4.811-3.937,7.54c-1.434-0.843-1.575-2.044-1.62-3.149c-0.103-2.498-1.071-3.235-3.459-2.206
	c-2.372,1.022-3.904,0.427-3.78-2.498c1.958-0.098,2.733-1.688,2.468-3.045c-0.333-1.708-2.19-0.893-3.374-0.861
	c-1.022,0.027-1.979,0.408-2.154-1.075c1.271-1.89,1.361-3.954,1.289-6.188c-0.58-17.969-1.076-35.94-1.525-53.913
	c-0.072-2.908-0.312-5.895,0.713-8.766c1.791,0.477,1.405,1.651,1.437,2.551c0.697,19.629,1.383,39.258,2.024,58.889
	c0.076,2.331-0.176,4.543,2.47,5.925c2.151,1.123,0.92,4.009,2.189,5.815c0-11.202,0.254-22.265-0.071-33.31
	c-0.325-11.032-1.229-22.047-1.452-33.123c3.148,3.531,2.601,7.941,2.819,12.016c0.892,16.619,1.488,33.255,2.291,49.88
	c0.063,1.289-0.929,4.002,2.006,3.283c1.836-0.449,4.782,0.098,4.495-3.801c-0.513-6.96-0.634-13.966-0.557-20.949
	c0.16-14.493-0.521-28.958-1.113-43.429C64.264,117.001,64.917,117.039,65.571,117.077z"/>
<path fill-rule="evenodd" clip-rule="evenodd" fill="#5C5C5C" d="M369.626,133.145c-1.725-1.154-1.802-1.224-0.025-3.211
	c5.554-6.215,11.662-11.84,18.297-16.891c5.958-4.537,12.279-8.495,18.84-12.104c1.371-0.754,3.243-0.984,3.853-2.832l-0.079,0.076
	c3.277-0.419,6.087-2.158,9.132-3.232c-0.031,1.333-0.062,2.667-0.093,4.001c-6.116,0.567-11.222,3.402-15.938,7.111
	c-1.817-0.042-2.687,1.052-3.15,2.631c-3.687,1.324-7.413,2.586-10.229,6.32c7.146,0.687,14.239,0.396,18.874,6.886
	c-7.852-3.733-15.891-6.346-24.18-2.28c-4.714,2.311-8.728,5.854-11.999,10.967c9.756-1.269,19.196-3.579,26.479,4.89
	c-8.197-4.872-16.937-4.422-25.804-2.792c-0.033-0.813,0.046-1.862-1.058-1.865C371.07,130.814,370.178,131.836,369.626,133.145z"/>
<path fill-rule="evenodd" clip-rule="evenodd" fill="#5C5C5C" d="M127.575,170.72c1.305,2.207,2.722,3.232,5.78,3.443
	c3.553,0.245,6.197,1.175,9.686-1.511c2.785-2.145,5.314,2.827,8.688,2.999c-0.735,1.755-1.979,1.895-2.728,1.466
	c-3.552-2.037-6.862-3.341-9.443,1.305c-0.065,0.117-0.375,0.247-0.43,0.202c-3.478-2.898-8.817-0.535-11.997-4.227
	c-3.304-3.836-4.932-3.761-7.431,0.181c-0.466,0.736-1.607,1.478-2.422,1.461c-1.309-0.026-1.087-1.441-1.078-2.339
	c0.076-7.493,0.32-14.986,0.311-22.479c-0.014-11.326-0.208-22.651-0.278-33.978c-0.008-1.254-0.488-2.67,1.772-4.674
	c1.531,16.021,1.632,31.17,0.7,46.357c-0.011,1.413-0.021,2.825-0.032,4.238c-0.013,0.49,0.129,1.056-0.064,1.46
	c-1.763,3.696-1.162,5.481,3.366,4.444c2.083-0.478,3.707,1.055,5.573,1.555L127.575,170.72z"/>
<path fill-rule="evenodd" clip-rule="evenodd" fill="#5C5C5C" d="M167.729,51.243c-4.784,2.11-9.99,3.437-12.862,8.604
	c-1.513,2.722-2.343,5.198-0.318,7.799c2.016,2.589,1.683,4.816-0.647,6.839c-3.927,3.408-4.189,7.001-1.09,11.162
	c1.37,1.839,2.25,4.052,3.287,6.126c3.096,6.19,6.234,7.977,13.172,7.007c5.147-0.719,10.239-0.987,15.328,0.281
	c-0.017,0.63-0.034,1.261-0.051,1.891c-5.81,0.07-11.62,0.157-17.43,0.2c-1.658,0.013-3.361,0.123-4.967-0.197
	c-8.936-1.78-15.939-20.582-10.369-27.732c0.866-1.111,2.63-1.928,1.268-3.698c-2.047-2.661-3.375-5.419-1.402-8.659
	c2.515-4.13,5.123-8.183,10.178-9.687c1.897-0.563,3.743-1.301,5.612-1.958C167.533,49.895,167.631,50.569,167.729,51.243z"/>
<path fill-rule="evenodd" clip-rule="evenodd" fill="#5C5C5C" d="M40.598,108.065c0.988,15.27,2.025,30.535,2.944,45.809
	c0.539,8.961,0.89,17.933,1.326,26.898c-0.467,0.809-0.451,2.022-1.775,2.106c-0.914-4.664-4.374-5.818-8.447-6.128
	c-0.341-0.552-0.683-1.104-1.025-1.656l0.004-0.003c1.66-0.011,3.319-0.021,4.978-0.032c0.823,0.226,1.646,0.45,2.469,0.674
	c1.767,1.078,1.316-0.217,1.216-1.137c-1.136-18.151-2.314-36.3-3.373-54.455c-0.23-3.94-0.639-7.927,0.367-11.847
	C39.72,108.218,40.159,108.142,40.598,108.065z"/>
<path fill-rule="evenodd" clip-rule="evenodd" fill="#8E8E8E" d="M256.916,377.753c30.39,3.419,60.336-0.875,90.788-5.933
	C339.104,379.299,272.331,383.618,256.916,377.753z"/>
<path fill-rule="evenodd" clip-rule="evenodd" fill="#5C5C5C" d="M365.609,88.09c-9.738,2.515-18.978,5.843-25.906,13.773
	c-11.199,12.817-9.786,27.227,3.867,37.356c0.533,0.396,1.103,0.742,1.636,1.138c0.789,0.585,1.838,1.217,0.925,2.321
	c-0.689,0.835-1.445,0.023-2.163-0.344c-12.924-6.6-17.979-21.597-11.217-34.378c6.907-13.055,18.265-19.69,32.695-21.472
	C365.5,87.02,365.554,87.555,365.609,88.09z"/>
<path fill-rule="evenodd" clip-rule="evenodd" fill="#5C5C5C" d="M410.59,98.107c-2.98-0.767-5.308,1.127-7.505,2.373
	c-19.719,11.184-37.413,24.665-49.128,44.688c-0.275,0.471-0.991,0.684-2.803,1.864c4.567-9.338,9.55-16.548,15.822-22.891
	c0.894-0.929,1.787-1.857,2.681-2.786c10.715-10.717,23.746-18.071,36.819-25.364c0.876,0.009,1.69-0.112,2.143-1.006
	c2.184,0.461,3.777-2.551,6.271-1.108c-0.898,2.128-4.198,1.651-4.378,4.305C410.511,98.184,410.59,98.107,410.59,98.107z"/>
<path fill-rule="evenodd" clip-rule="evenodd" fill="#5C5C5C" d="M171.486,369.627c23.844-3.421,48.509-0.881,72.134-8.335
	c-1.509,2.326-3.938,2.971-6.254,3.71c-10.72,3.421-21.864,4.107-32.966,4.534C193.444,369.956,182.459,369.627,171.486,369.627z"/>
<path fill-rule="evenodd" clip-rule="evenodd" fill="#5C5C5C" d="M41.45,103.632c23.082,1.291,46.167,2.432,69.308,0.979
	c-23.065,4.824-46.179,2.994-69.294,0.938c-0.605-0.826-1.498-0.74-2.362-0.741c0,0-0.175-0.086-0.175-0.085
	C39.767,104.358,40.608,103.995,41.45,103.632z"/>
<path fill-rule="evenodd" clip-rule="evenodd" fill="#5C5C5C" d="M122.088,182.489c-4.821-0.662-6.946,1.837-9.439,3.824
	c-2.81-2.977-1.741-6.921-1.775-10.619c-0.138-15.15-0.207-30.301-0.275-45.451c-0.004-0.946,0.219-1.895,0.36-3.035
	c2.406,0.668,1.587,2.496,1.616,3.709c0.329,13.976,0.666,27.953,0.752,41.931c0.029,4.654,0.322,8.464,6.512,7.618
	C120.143,180.424,120.541,181.068,122.088,182.489z"/>
<path fill-rule="evenodd" clip-rule="evenodd" fill="#5C5C5C" d="M259.74,353.819c0.995,2.199,1.058,4.447,0.359,7.088
	c-2.74-3.772-2.982-8.163-4.531-12.048c-2.531-6.351-5.24-12.524-11.697-16.043c-1.02-0.556-2.535-1.39-1.156-3.08
	c4.705-5.769,7.527-12.912,13.025-18.074c2.076-1.951,4.082-4.589,8.889-3.047c-9.993,5.017-13.25,14.858-19.633,22.143
	c8.969,4.32,11.552,12.987,14.564,21.361C259.621,352.686,259.68,353.253,259.74,353.819z"/>
<path fill-rule="evenodd" clip-rule="evenodd" fill="#5C5C5C" d="M226.551,195.873c-5.214-0.229-9.872,0.499-12.758,5.751
	c-1.135,2.063-2.965,3.869-4.809,5.394c-4.136,3.42-2.413,8.989-5.463,13.978c-0.97-6.647-1.811-12.328-2.616-18.014
	c-0.105-0.745,0.397-1.438,1.06-1.375c0.48,0.046,1.093,0.711,1.299,1.236c0.591,1.506,0.018,3.355,1.711,5.067
	c2.238-2.654,5.181-4.968,6.443-7.984c1.158-2.771,2.522-3.887,5.206-4.346c3.349-0.572,5.391-2.423,4.894-6.155
	c-0.383-2.873,0.889-4.732,3.957-6.002c-0.93,4.025-2.622,8.16,2.118,10.712C227.245,194.714,226.898,195.294,226.551,195.873z"/>
<path fill-rule="evenodd" clip-rule="evenodd" fill="#5C5C5C" d="M61.805,72.895c6.685,1.433,11.873,5.734,16.649,10.024
	c2.736,2.458,3.838,2.061,5.889,0.153c4.234-3.938,8.62-7.691,13.418-10.938c0.792-0.3,1.538-0.725,1.109-1.687
	c-0.08-0.18-1.118,0.068-1.714,0.119c-1.914-0.229-4.337,1.41-5.52-1.504c0.305-0.228,0.609-0.454,0.914-0.681
	c4.592,0,9.184,0,14.515,0c-5.688,4.347-10.917,8.223-16.015,12.264c-8.902,7.056-8.918,7.173-18.402,0.861
	c-4.1-2.729-8.565-4.952-12.146-8.435C60.938,73.014,61.372,72.954,61.805,72.895z"/>
<path fill-rule="evenodd" clip-rule="evenodd" fill="#5C5C5C" d="M152.676,311.261c3.798-1.631,7.78-2.545,11.874-2.999
	c3.829-0.425,7.5-0.298,10.25,3.412c-3.666,1.541-6.293,4.729-9.749,6.792c-0.514,0.611-1.878,0.091-1.941,1.381
	c1.071,0.409,2.011,0.223,2.922-0.257c2.176-0.198,5.095-1.905,6.162,0.955c1.084,2.908-1.778,5.471-2.424,8.338
	c-0.051,0.225-0.87,0.499-1.213,0.388c-0.712-0.232-0.813-0.935-0.738-1.634c0.207-1.919,1.803-3.495,1.464-5.705
	c-3.125-0.535-5.821,1.185-8.75,1.384c-1.633,0.111-3.741,1.094-4.473-0.735c-0.898-2.249,1.623-2.88,3.049-3.772
	c3.571-2.236,7.748-3.625,10.7-7.769c-6.3-1.197-11.704,0.91-17.215,1.852C152.622,312.348,152.649,311.804,152.676,311.261z"/>
<path fill-rule="evenodd" clip-rule="evenodd" fill="#8E8E8E" d="M221.52,102.019c-0.284,7.349,0.384,14.687,0.276,22.09
	c-3.23-4.605-2.414-9.945-2.813-14.997c-0.354-4.497-2.303-6.222-6.371-4.787c-1.877,0.661-0.807,2.181-0.646,3.295
	c0.699,4.851,2.009,9.628,1.425,14.679c-5.304-9.283-2.194-20.678-7.671-30.275c2.823,0.386,3.846,2.086,4.592,4.124
	c2.427,6.632,2.434,6.629,9.18,4.801C220.168,101.305,220.844,101.662,221.52,102.019z"/>
<path fill-rule="evenodd" clip-rule="evenodd" fill="#8E8E8E" d="M184.546,100.951c0.017-0.63,0.034-1.261,0.051-1.891
	c5.26-2.228,5.966,0.558,6.41,5.068c1.184,12.016,2.249,24.008,1.652,36.387c-1.186-0.206-2.127-0.416-3.08-0.525
	c-1.334-0.152-2.934-0.403-2.866,1.626c0.076,2.242,1.725,0.575,2.613,0.825c1.302,0.367,2.841,0.626,2.91,2.224
	c0.071,1.648-1.505,1.96-2.771,2.365c-1.438-1.057-1.772-3.809-4.479-2.915c-2.011-3.458-0.747-6.101,2.781-6.668
	c3.191-0.514,3.126-1.991,2.934-4.344c-0.772-9.421-1.548-18.845-2.09-28.281C188.446,101.931,186.882,101.208,184.546,100.951z"/>
<path fill-rule="evenodd" clip-rule="evenodd" fill="#8E8E8E" d="M419.55,98.952c0.031-1.334,0.062-2.668,0.093-4.001
	c0.775-0.47,1.551-0.939,2.323-1.412c0.956-0.399,1.915-0.797,2.874-1.194c0.869-0.274,1.991,0.032,2.535-1.127
	c-1.191-0.904-2.146-0.075-3.139,0.392c-0.939,0.417-1.882,0.831-2.823,1.245c-1.916-0.212-3.546,2.09-5.636,0.675
	c6.022-7.005,35.666-12.771,46.497-8.815c-10.893-0.49-21.059,0.997-30.971,4.224c-2.362,0.77-2.465,0.854-1.309,3.21
	c0.77,1.567-0.405,1.572-1.201,1.893c-1.987,0.801-4,1.54-6.191,2.376c2.375,1.831,5.851,1.475,7.232,5.075
	C426.195,100.592,422.873,99.771,419.55,98.952z"/>
<path fill-rule="evenodd" clip-rule="evenodd" fill="#5C5C5C" d="M204.81,138.742c22.658,1.621,45.281,1.975,67.784-1.904
	c-0.055,0.586-0.11,1.173-0.166,1.76c-19.234,4.722-38.733,3.989-58.249,2.783c-3.127-0.193-6.236-0.689-9.354-1.046
	C204.819,139.805,204.814,139.273,204.81,138.742z"/>
<path fill-rule="evenodd" clip-rule="evenodd" fill="#5C5C5C" d="M285.752,164.073c-0.821,2.973-2.301,5.979,0.821,8.629
	c0.403,0.342,0.398,1.251,0.45,1.908c0.218,2.751-3.536,5.822,0.874,8.337c0.826,0.472-0.65,1.987-1.002,3.032
	c-0.228,0.676-1.593,1.212-0.69,2.021c2.629,2.358,1.344,4.468,1.073,7.491c-0.59,6.591-4.223,3.65-5.749,2.431
	c-2.314-1.851-2.195-0.359-2.615,0.98c-1.012,3.228-2.835,5.95-5.086,8.423c-0.987-0.383-1.131-1.224-1.154-2.129
	c1.249-2.151,2.488-4.309,3.751-6.452c1.232-2.093,2.6-3.839,5.517-2.956c0.782,0.237,2.619,0.624,2.387-0.612
	c-0.363-1.938,2.981-2.689,1.219-4.594c-1.77-1.912-2.875-3.685-0.505-5.906c0.285-0.267,0.398-1.263,0.31-1.304
	c-4.817-2.198-1.41-5.207-0.918-7.988c0.149-0.848-0.277-2.057-0.864-2.733c-2.825-3.26-1.648-6.08,0.711-8.86
	C284.771,163.885,285.262,163.979,285.752,164.073z"/>
<path fill-rule="evenodd" clip-rule="evenodd" fill="#5C5C5C" d="M267.708,125.23c-20.032,6.277-40.371,6.921-60.948,3.361
	c20.473,0.719,40.785-0.454,60.84-4.862C267.635,124.23,267.671,124.73,267.708,125.23z"/>
<path fill-rule="evenodd" clip-rule="evenodd" fill="#5C5C5C" d="M29.632,190.131c-1.116,0.317-2.295,0.502-3.333,0.987
	c-1.192,0.557-2.541,1.37-2.519,2.802c0.026,1.649,1.626,1.854,2.914,2.076c1.128,0.195,2.785,0.112,2.56,1.611
	c-0.285,1.896-1.938,1.188-3.222,0.924c-2.183-0.449-4.425-1.063-5.011-3.473c-0.756-3.111,1.935-4.64,3.736-6.522
	c-6.059-3.125-6.209-4.317-1.167-8.525c0.502-0.419,1.56-1,1.499-1.146c-1.85-4.418,1.87-6.038,3.924-8.764
	c2.83-3.754,4.263-4.005,7.463,0.527c-4.43-1.229-5.446,3.675-8.874,4.44c-0.805,0.18,0.395,1.985,1.048,2.911
	c0.249,1.165-0.471,1.923-1.136,2.704c-2.709,1.419-5.999,2.387-2.151,6.353c1.343,1.383,3.313,0.488,4.203,2.103
	C29.628,189.467,29.65,189.798,29.632,190.131z"/>
<path fill-rule="evenodd" clip-rule="evenodd" fill="#5C5C5C" d="M95.636,181.046c-0.113-20.267-0.155-40.532,0.563-60.791
	c0.702-0.026,1.403-0.053,2.105-0.079c0.616,13.889-0.103,27.766-0.346,41.648c-0.107,6.109,0.138,12.226,0.223,18.339
	C97.389,180.616,96.759,181.541,95.636,181.046z"/>
<path fill-rule="evenodd" clip-rule="evenodd" fill="#5C5C5C" d="M102.14,95.474c-5.829-0.192-10.655-0.581-15.534-1.013
	c-11.547-1.023-23.147-0.877-34.634,1.055c-1.235,0.208-2.754,1.345-3.268-0.237c-0.57-1.753,1.57-2.011,2.633-2.189
	c10.818-1.819,21.69-2.599,32.672-1.646C89.909,91.954,95.63,93.081,102.14,95.474z"/>
<path fill-rule="evenodd" clip-rule="evenodd" fill="#5C5C5C" d="M280.701,243.832c4.487,9.778-8.694,39.402-20.018,44.321
	c5.564-7.089,10.458-13.573,13.413-21.075C277.035,259.617,280.345,252.183,280.701,243.832z"/>
<path fill-rule="evenodd" clip-rule="evenodd" fill="#5C5C5C" d="M147.356,372.273c-6.03,0.442-11.448-1.452-16.433-4.599
	c-9.146-5.772-16.43-13.461-22.313-22.48c-0.924-1.417-2.332-2.904-1.215-5.438c10.277,14.592,20.88,28.416,39.943,31.191
	C147.345,371.39,147.351,371.831,147.356,372.273z"/>
<path fill-rule="evenodd" clip-rule="evenodd" fill="#5C5C5C" d="M57.172,205.071c-0.706,0.472-1.412,0.943-2.118,1.414
	c-0.403-0.349-0.806-0.696-1.208-1.044c0.766-2.775,2.957-3.33,5.393-3.338c1.282-0.004,2.792-0.246,3.663,0.997
	c1.099,1.568-0.582,2.287-1.255,3.29c-1.844,2.746-0.539,11.064,2.041,12.089c2.354,0.935,4.78,1.418,6.617-1.208
	c3.188-4.556,4.021-4.581,7.686-0.61c0.173,0.188,1.127-0.347,1.717-0.544c0.284-0.365,0.568-0.73,0.852-1.096l-0.008,0.006
	c0.572,0.044,1.144,0.088,1.715,0.132c-1.897,2.591-2.827,8.23-7.382,2.122c-0.844-1.132-1.965-0.068-2.604,1.13
	c-2.153,4.04-5.754,3.421-9.186,2.461c-3.036-0.849-4.529-2.633-3.922-6.325c0.412-2.505-2.679-5.009-0.902-7.955
	c0.295-0.475,0.902-0.893,0.432-1.543C58.217,204.378,57.679,204.767,57.172,205.071z"/>
<path fill-rule="evenodd" clip-rule="evenodd" fill="#5C5C5C" d="M87.633,184.043c-1.353-7.602-0.847-15.282-0.993-22.937
	c-0.266-13.985-0.554-27.97-0.832-41.955c0.6-0.031,1.2-0.062,1.8-0.093c1.188,21.308,2.205,42.621,1.864,63.975
	C88.859,183.369,88.246,183.706,87.633,184.043z"/>
<path fill-rule="evenodd" clip-rule="evenodd" fill="#8E8E8E" d="M201.884,18.661c7.589-4.195,19.283-2.604,24.291,2.396
	c1.334,1.331,2.749,1.888,4.855,1.748c4.229-0.28,8.709-0.121,11.895,3.182c2.888,2.995,7,1.287,11.528,3.784
	c-5.296,1.839-9.164,1.586-12.323-1.265c-3.282-2.961-7.186-3.058-11.012-3.227c-2.109-0.093-4.451-0.033-5.465-1.617
	c-4.606-7.192-11.96-4.903-18.4-5.708C206.008,17.799,204.687,18.268,201.884,18.661z"/>
<path fill-rule="evenodd" clip-rule="evenodd" fill="#5C5C5C" d="M300.405,326.17c-0.74,0.509-0.49,2.188-1.951,1.787
	c-1.173-0.321-1.612-1.571-1.199-2.382c2.725-5.355-3.878-8.384-3.253-13.545c0.251-2.07-4.039-2.174-6.468-2.139
	c-2.654,0.039-4.793,0.142-4.622-3.574c0.158-3.448-2.632-2.434-4.271-2.017c-2.805,0.712-5.472,1.968-8.713,3.19
	c2.201-4.23,10.438-7.536,13.765-5.999c0.699,0.323,1.809,1.141,1.733,1.547c-0.797,4.307,1.981,3.937,4.856,4.335
	c4.196,0.583,7.678,2.063,6.538,7.766c-0.598,2.994,4.212,3.963,3.86,7.32c-0.314,0.928-0.628,1.854-0.941,2.781
	c0.102,0.442-0.152,1.202,0.795,0.89L300.405,326.17z"/>
<path fill-rule="evenodd" clip-rule="evenodd" fill="#8E8E8E" d="M87.633,184.043c0.613-0.337,1.226-0.674,1.839-1.01
	c1.108,2.405-0.904,7.359,3.49,6.816c3.512-0.433,2.906-4.749,2.658-7.818c-0.026-0.326,0.009-0.657,0.015-0.985
	c1.123,0.495,1.752-0.43,2.545-0.883c2.508-0.98,5.035-2.145,6.809,1.189c0.322,0.605,0.715,1.208,0.213,1.783
	c-0.25,0.288-1.018,0.534-1.248,0.371c-4.828-3.423-4.501,1.717-5.75,3.65c-1.33,2.059-0.569,5.948-4.218,5.862
	c-3.745-0.088-7.31-1.675-10.221-4.067c-0.747-0.614-0.94-2.177-2.337-1.869c-6.967,1.535-5.493-3.353-5.506-7.129
	c0.789,0.002,1.577,0.004,2.366,0.007c-0.055,2.794,0.621,4.785,4.104,4.499c2.229-0.183,3.355,1.682,4.238,3.521
	C88.345,186.638,87.056,185.173,87.633,184.043z"/>
<path fill-rule="evenodd" clip-rule="evenodd" fill="#8E8E8E" d="M227.503,64.012c-4.092,5.671-13.975,6.492-17.513,0.959
	c-2.008-3.141-4.363-5.188-7.578-6.538c-1.371-0.576-2.651-1.351-1.674-2.82c0.833-1.254,2.014-0.072,3.031,0.45
	c1.819,0.935,3.526,3.935,5.393,2.432c1.739-1.4,0.534-4.359-0.106-6.611c-0.227-0.799-0.335-1.63-0.538-2.436
	c-0.843-3.353,0.004-4.766,3.385-2.762c1.264,0.749,3.048,0.063,3.986,1.531c-0.775,2.102-2.497,1.188-3.856,1.354
	c-0.385-0.325-0.815-0.623-1.138-0.001c-0.076,0.147,0.263,0.511,0.411,0.774c0.455,3.832,2.476,7.674-0.75,11.397
	c-1.189,1.373,0.477,2.281,1.59,3.005c4.006,2.605,9.011,1.938,14.224-1.901C226.747,63.233,227.125,63.623,227.503,64.012z"/>
<path fill-rule="evenodd" clip-rule="evenodd" fill="#5C5C5C" d="M292.735,258.068c0-6.05,0-12.1,0-18.149
	c1.688,3.367,3.972,3.099,6.949,2.468c6.322-1.339,12.767-1.881,19.258-1.335c1.861,0.156,3.561,0.666,5.505,1.934
	c-1.485,1.265-3.095,1.169-4.495,0.882c-7.691-1.578-15.134,0.981-22.708,1.223c-2.347,0.075-2.386,1.562-2.42,3.418
	c-0.06,3.209,0.422,6.524-0.808,9.603C293.589,258.097,293.163,258.082,292.735,258.068z"/>
<path fill-rule="evenodd" clip-rule="evenodd" fill="#5C5C5C" d="M184.988,144.115c2.707-0.894,3.041,1.858,4.479,2.915
	c0.022,0.338,0.044,0.677,0.066,1.015c-0.31,0.317-0.62,0.634-0.93,0.951c-0.939,0.448-0.559,0.459-0.64,3.486
	c-0.056,2.054-4.76,0.916-4.074,3.161c2.01,6.571-0.753,13.371,1.585,19.873c1.347,3.746,2.063,7.719,3.063,11.59l0.058-0.062
	c-6.667-7.172-6.952-16.048-6.481-25.035c0.085-1.633,0.586-2.984-0.388-4.653c-2.276-3.901,3.154-5.538,3.07-9.148
	C184.769,147.008,185.485,145.547,184.988,144.115z"/>
<path fill-rule="evenodd" clip-rule="evenodd" fill="#8E8E8E" d="M424.616,137.195c4.922-15.174,4.42-32.501,17.946-43.828
	C431.662,105.979,432.685,123.576,424.616,137.195z"/>
<path fill-rule="evenodd" clip-rule="evenodd" fill="#5C5C5C" d="M368.67,162.624c5.643,4.492,11.806,3.804,18.184,1.999
	c9.117-2.579,17.071-7.175,24.169-13.366c0.857-0.747,1.769-1.434,2.675-2.122c0.087-0.066,0.315,0.052,0.739,0.136
	c0.701,2.441-1.497,3.491-2.766,4.569c-7.955,6.766-16.886,11.764-27.285,13.609c-5.459,0.969-10.867,0.769-15.694-2.557
	C368.685,164.137,368.677,163.38,368.67,162.624z"/>
<path fill-rule="evenodd" clip-rule="evenodd" fill="#5C5C5C" d="M376.671,330.582c3.813,9.177,1.528,17.643-3.108,25.468
	c-3.203,5.407-6.509,11.224-13.588,12.828C371.907,358.839,377.442,346.15,376.671,330.582z"/>
<path fill-rule="evenodd" clip-rule="evenodd" fill="#5C5C5C" d="M248.527,227.108c-4.828-1.111-9.415-0.829-14.325,0.56
	c-5.891,1.667-11.191-1.925-14.76-8.421c0.13-0.882,0.083-1.858,1.194-2.209c4.847,7.729,9.907,10.232,16.702,7.109
	c2.919-1.342,4.71-2.07,7.733-0.283c2.165,1.279,5.141,0.284,7.472-1.308c1.302-0.889,2.385-2.34,4.645-1.953
	c-0.8,3.878-4.549,4.377-6.851,6.353C249.734,227.007,249.13,227.058,248.527,227.108z"/>
<path fill-rule="evenodd" clip-rule="evenodd" fill="#5C5C5C" d="M78.29,179.961c-0.789-0.003-1.577-0.005-2.366-0.007
	c-0.369-19.267-0.739-38.534-1.108-57.801c0.728-0.026,1.455-0.054,2.183-0.08C77.429,141.369,77.86,160.665,78.29,179.961z"/>
<path fill-rule="evenodd" clip-rule="evenodd" fill="#8E8E8E" d="M256.275,162.375c-5.096-4.754,0.917-4.78,3.011-6.397
	c-2.412-1.891-2.412-1.891-8.354-0.584c3.992-4.563,5.783-4.922,10.15-1.32c2.397,1.978,5.858,1.266,7.999,3.715
	c0.771,0.884,3.09,0.037,3.049,1.863c-0.038,1.678-1.935,2.103-3.199,2.802c-0.684,0.378-1.565,0.399-2.357,0.582
	c-1.358-1.287-2.46-5.106-4.588-2.244C260.028,163.425,257.23,159.03,256.275,162.375z"/>
<path fill-rule="evenodd" clip-rule="evenodd" fill="#8E8E8E" d="M285.752,164.073c-0.49-0.094-0.981-0.188-1.472-0.283
	c2.71-2.708,2.678-4.409,0.186-8.117c-1.619-2.407-0.838-7.045-4.542-9.258c-0.062-0.036,0.024-0.312,0.035-0.476
	c0.144-2.146,4.355-3.992,1.721-5.745c-2.384-1.585-6.115-1.145-9.253-1.597c0.056-0.587,0.111-1.174,0.166-1.76
	c0.82-1.013,2.044-0.424,3.032-0.766c1.578,1.529,2.1,0.008,2.808-0.973c1.351,0.943,2.629,2.02,4.068,2.796
	c1.916,1.032,2.996,2.712,1.972,4.474c-1.717,2.954-0.002,4.361,1.392,6.685c1.817,3.029,1.926,6.93,3.528,10.325
	C290.552,161.835,286.919,162.401,285.752,164.073z"/>
<path fill-rule="evenodd" clip-rule="evenodd" fill="#5C5C5C" d="M104.42,168.06c0-17.379,0-34.758,0-51.22
	c3.569,16.27,2.027,33.734,1.935,51.13C105.71,167.999,105.065,168.029,104.42,168.06z"/>
<path fill-rule="evenodd" clip-rule="evenodd" fill="#5C5C5C" d="M178.798,312.072c8.48-0.45,16.394,0.642,20.859,9.255
	c1.679,3.24,4.729,3.35,7.63,3.676c2.971,0.334,5.988,0.272,8.598,1.85c-6.972,2.646-15.029,0.111-19.02-5.924
	c-2.831-4.282-7.04-6.322-12.011-7.152C182.785,313.432,180.55,313.764,178.798,312.072z"/>
<path fill-rule="evenodd" clip-rule="evenodd" fill="#5C5C5C" d="M178.658,303.183c1.458,1.671,2.157-0.1,3.1-0.694
	c6.635-4.191,12.232-3.983,18.283,1.03c4.462,3.698,8.146,8.111,11.447,13.698c-2.826-0.133-3.653-1.889-4.792-3.109
	c-2.377-2.547-4.669-5.173-7.035-7.73c-4.682-5.062-12.223-6.682-18.899-0.386c-1.085,1.023-1.933,2.693-3.842,2.507
	c-1.145-2.394,3.343-2.787,1.695-5.261L178.658,303.183z"/>
<path fill-rule="evenodd" clip-rule="evenodd" fill="#5C5C5C" d="M115.625,311.132c-1.847,2.713-3.715,5.412-5.536,8.143
	c-2.678,4.016-4.375,8.327-3.293,13.873c-2.57-1.445-2.619-3.141-2.51-4.986c0.256-4.322,2.378-7.889,4.581-11.403
	c1.221-1.948,3.777-3.338,1.209-6.252c-0.959-1.088,0.34-2.901,1.469-3.887c2.115-1.844,4.382-3.516,6.603-5.236
	c0.538-0.418,1.238-0.742,1.792-0.179c0.8,0.815,0.223,1.501-0.475,2.021c-1.727,1.285-3.512,2.494-5.212,3.813
	c-1.046,0.813-2.188,1.754-1.606,3.303c0.57,1.517,2.135,0.2,3.054,0.874L115.625,311.132z"/>
<path fill-rule="evenodd" clip-rule="evenodd" fill="#8E8E8E" d="M245.469,208.441c0.699-2.604-1.571-2.041-2.78-2.597
	c-1.519-0.697-3.748,0.416-4.93-2.205c6.772-2.065,12.028,1.745,17.096,4.449c4.419,2.357,6.766,4.164,11.224,4.206
	c-1.925,3.013-9.175,3.82-11.522,1.24c-0.804-0.883-2.293-1.955-2.479-2.32c-1.866-3.646-4.232-1.653-6.505-0.981
	C245.538,209.637,245.503,209.039,245.469,208.441z"/>
<path fill-rule="evenodd" clip-rule="evenodd" fill="#8E8E8E" d="M240.336,288.083c1.555,1.43,3.394,0.917,5.188,0.775
	c0.882-0.07,2.154-0.886,2.419,0.621c0.228,1.296-1.086,1.418-2.01,1.66c-8.776,2.298-17.689,2.994-26.326,0.044
	c-3.047-1.041-6.632,0.889-9.098-2.057c1.193-0.13,2.032-0.626,2.044-1.977c7.451,1.538,14.809,3.819,22.571,2.878
	c1.458-0.177,3.59,0.729,3.62-2.034C239.274,288.024,239.805,288.054,240.336,288.083z"/>
<path fill-rule="evenodd" clip-rule="evenodd" fill="#8E8E8E" d="M220.636,217.038c-1.111,0.351-1.064,1.327-1.194,2.209
	c-1.695-2.277-2.802-0.812-4.157,0.504c-1.497,1.455-3.131,0.986-4.243-0.559c-1.196-1.663-1.152-3.641,0.466-4.909
	c1.852-1.452,1.6,0.442,1.763,1.474c-0.083,0.384-0.167,0.767-0.252,1.149c0.346-0.07,0.692-0.14,1.038-0.209
	c1.57-3.385,6.398-3.043,7.744-7.153c0.573-1.751,2.736,0.896,4.414,0.966c0.363-1.044,0.766-2.124,1.113-3.221
	c0.515-1.627,1.519-2.529,3.303-2.38c1.059,0.089,2.36,0.513,2.404,1.438c0.115,2.379-2.072,0.72-2.859,1.361
	c-1.035,0.841-0.111,1.712,0.614,2.395c0.029,0.259-0.005,0.513-0.101,0.76C227.583,213.322,222.507,212.57,220.636,217.038z"/>
<path fill-rule="evenodd" clip-rule="evenodd" fill="#5C5C5C" d="M221.52,102.019c-0.676-0.356-1.352-0.714-2.028-1.071
	c1.798-1.479,4.015-1.403,6.08-1.309c3.383,0.157,5.361-0.801,5.457-4.575c0.095-3.744,1.347-6.147,5.913-6.722
	c4.841-0.608,5.26-2.733,2.224-6.489c-0.497-0.614-1.267-1.091-0.906-2.07c4.601,0.702,5.931,2.998,4.797,8.267
	c-0.773-0.025-1.208,0.411-1.471,1.08c-7.44,0.555-8.833,5.939-9.503,11.9c-0.451,0.16-0.901,0.32-1.352,0.48
	C227.692,102.263,224.6,102.018,221.52,102.019z"/>
<path fill-rule="evenodd" clip-rule="evenodd" fill="#5C5C5C" d="M345.273,265.354c9.561,10.079,16.722,21.411,19.081,35.24
	C359.061,288.27,352.385,276.691,345.273,265.354z"/>
<path fill-rule="evenodd" clip-rule="evenodd" fill="#8E8E8E" d="M203.313,244.629c5.135,3.857,10.182,7.739,15.967,10.61
	c5.597,2.778,11.798,3.87,18.087,6.486C227.746,264.192,206.074,253.324,203.313,244.629z"/>
<path fill-rule="evenodd" clip-rule="evenodd" fill="#8E8E8E" d="M241.585,89.129c0.263-0.669,0.697-1.105,1.471-1.08
	c2.773,2.201,6.172,2.349,9.454,2.881c0.024,0.679,0.05,1.357,0.074,2.036c0,9.525,0,19.051,0,29.052
	c-2.45-1.111-2.006-2.944-2.072-4.414c-0.291-6.476-0.669-12.957-0.634-19.435c0.018-3.146-0.268-5.393-3.986-5.934
	C244.097,91.974,242.503,90.885,241.585,89.129z"/>
<path fill-rule="evenodd" clip-rule="evenodd" fill="#8E8E8E" d="M244.521,58.238c1.587,3.381,5.316,2.822,7.938,4.305
	c2.133,1.206,4.166,2.485,5.931,4.735c-3.407,0.752-4.983-1.778-7.231-2.556c-2.521-0.871-5.129-1.884-7.761-1.293
	c-4.866,1.091,0.697,4.562-1.935,6.998c-2.612-3.176-5.208-6.966-10.335-6.691c3.255-2.38,8.416,1.335,10.486-3.683
	C242.775,59.756,244.498,60.356,244.521,58.238z"/>
<path fill-rule="evenodd" clip-rule="evenodd" fill="#5C5C5C" d="M255.316,181.565c3.023,3.246,2.965,6.448,1.276,9.728
	c-0.883,1.714-0.884,2.292,1.188,3.039c4.207,1.515,6.696,5.108,9.096,8.693c0.541,0.808,0.891,1.401-0.148,1.929
	c-0.779,0.396-1.845,0.547-2.204-0.336c-2.748-6.748-8.583-8.89-15.569-9.875C254.263,191.402,254.263,191.402,255.316,181.565z"/>
<path fill-rule="evenodd" clip-rule="evenodd" fill="#8E8E8E" d="M127.628,196.092c-0.566,3.828-1.958,6.853-6.114,8.207
	c-3.586,1.168-5.124,0.248-4.96-3.476c0.044-0.993,0.289-1.976,0.364-2.969c0.074-0.981,0.207-2.082-0.89-2.614
	c-1.206-0.585-1.785,0.532-2.458,1.163c-1.651,1.548-2.458,4.051-5.104,4.465c-0.569-0.241-1.139-0.483-1.708-0.725
	c0.855-1.798,2.968-2.455,3.765-4.412c0.96-2.356,2.826-3.732,5.516-2.896c2.581,0.803,3.386,2.88,3.411,5.415
	c0.011,1.11-0.618,2.273,0.256,3.435c2.834-0.359,4.854-1.513,5.198-4.758c0.112-1.057,0.375-2.331,1.762-2.708
	C126.986,194.844,127.307,195.468,127.628,196.092z"/>
<path fill-rule="evenodd" clip-rule="evenodd" fill="#8E8E8E" d="M167.729,51.243c-0.098-0.674-0.195-1.349-0.293-2.023
	c1.635-2.401,4.251-2.406,6.688-2.521c2.235-0.104,2.678-0.814,2.397-3.064c-0.943-7.561,6.941-14.083,14.731-12.33
	c-0.227,1.946-1.876,1.434-3.011,1.73c-7.366,1.927-9.421,4.652-9.67,12.394c-0.063,1.936-0.368,4.28-3.328,3.736
	C172.348,48.633,170.177,50.361,167.729,51.243z"/>
<path fill-rule="evenodd" clip-rule="evenodd" fill="#5C5C5C" d="M212.553,287.15c-0.012,1.351-0.851,1.847-2.044,1.977
	c-8.141-7.841-10.189-18.628-13.8-28.65c-0.234-0.649-0.502-1.836,0.549-2.135c1.632-0.464,1.142,0.967,1.456,1.805
	c2.201,5.878,4.408,11.757,6.779,17.567C207.012,281.437,209.165,284.78,212.553,287.15z"/>
<path fill-rule="evenodd" clip-rule="evenodd" fill="#8E8E8E" d="M61.805,72.895c-0.434,0.06-0.868,0.119-1.302,0.179
	c-0.836-0.927-2.897-0.451-2.889-2.224c0.01-1.966,1.819-1.741,3-1.787c4.855-0.188,5.263-2.735,4.578-6.903
	c-0.856-5.206-0.872-10.551-1.22-15.838c-0.059-0.892,0.226-1.638,1.323-1.688c1.915,6.279,2.281,12.689,2.577,19.175
	c0.175,3.846-0.038,6.571-4.538,7.029C62.148,70.958,61.574,71.657,61.805,72.895z"/>
<path fill-rule="evenodd" clip-rule="evenodd" fill="#5C5C5C" d="M247.64,236.159c4.385,0.347,7.463-2.762,11.104-4.32
	c3.768-1.613,7.288-3.804,10.916-5.741c1.418-1.354,3.672-1.455,4.816-3.217c0.807-1.604,2.718-0.543,3.873-1.388
	c-7.985,9.062-18.987,13.021-29.754,17.379c-0.146-0.594-0.294-1.187-0.441-1.779c-0.158-0.344-0.315-0.688-0.474-1.032
	L247.64,236.159z"/>
<path fill-rule="evenodd" clip-rule="evenodd" fill="#8E8E8E" d="M203.662,148.1c-0.006-0.166-0.069-0.354-0.011-0.493
	c2.037-4.854,5.683,0.854,8.041-1.2c2.23-1.941,4.098-4.879,7.266-1.257c0.384,0.439,1.304,0.921,1.714,0.751
	c6.112-2.528,6.006,4.452,9.341,6.217c1.239,0.655-0.09,2.304-1.426,2.922l0.039,0.039c-2.757-2.31-3.329-6.5-8.411-7.06
	c-3.4-0.374-5.7-1.55-8.615,1.427c-1.342,1.37-3.973-1.869-6.406-1.353C204.682,148.095,204.172,148.098,203.662,148.1z"/>
<path fill-rule="evenodd" clip-rule="evenodd" fill="#8E8E8E" d="M54.691,207.141c-1.874,2.04-3.234,3.429-5.762,0.104
	c-1.937-2.547-5.601,0.582-8.751-0.879c-3.389-1.572-8-1.274-3.772-6.741c0.234-0.303,0.264-1.121,0.034-1.365
	c-1.296-1.376-1.281-2.428,0.759-2.546c1.516-0.088,2.34,0.969,2.328,2.582c-0.043,6.044,0.386,6.639,7.179,5.337
	c3.065-0.587,4.063,2.863,6.703,2.245C53.836,206.299,54.264,206.72,54.691,207.141z"/>
<path fill-rule="evenodd" clip-rule="evenodd" fill="#8E8E8E" d="M358.132,53.507c1.835-1.134,3.688-0.473,5.465-0.488
	c3.631-0.032,5.641,0.976,4.843,5.452c-0.688,3.861-0.175,7.936-0.209,11.915c-0.015,1.777-0.108,3.542-1.624,5.602
	c-1.789-4.85-1.264-9.33-0.932-13.609c0.334-4.298-0.319-6.961-5.234-7.021C359.593,55.346,358.353,55.347,358.132,53.507z"/>
<path fill-rule="evenodd" clip-rule="evenodd" fill="#8E8E8E" d="M265.335,149.305c-2.845-3.578-9.028-3.057-9.863-1.812
	c-2.127,3.172-11.619-1.178-7.18,7.704c-2.785-0.178-3.54-1.685-3.656-3.572c-0.129-2.088,1.133-3.547,2.938-4.224
	c4.848-1.818,9.767-3.494,15.066-3.145c2.034,0.134,3.338,1.307,3.838,3.314C266.097,148.148,265.716,148.727,265.335,149.305z"/>
<path fill-rule="evenodd" clip-rule="evenodd" fill="#8E8E8E" d="M259.74,353.819c-0.06-0.566-0.119-1.134-0.18-1.7
	c9.948-1.944,19.897-3.89,29.846-5.834c0.086,0.418,0.171,0.836,0.257,1.254C280.311,352.315,269.743,351.851,259.74,353.819z"/>
<path fill-rule="evenodd" clip-rule="evenodd" fill="#8E8E8E" d="M260.58,118.539c-1.34-8.945-0.935-17.882,0.24-26.815
	C262.917,95.324,262.822,114.212,260.58,118.539z"/>
<path fill-rule="evenodd" clip-rule="evenodd" fill="#8E8E8E" d="M211.426,159.26c-1.814,0-3.629,0-5.93,0
	c5.718-4.532,12.798-5.953,18.956-4.326c1.306,0.346,2.749,1.396,4.173,0.146c0-0.001-0.039-0.04-0.039-0.04
	c-0.485,2.183-1.51,3.293-3.951,2.335c-2.63-1.033-4.666-0.597-5.125,2.682c-1.908-0.446-4.017,0.563-5.555-2.053
	C212.625,155.738,211.701,157.581,211.426,159.26z"/>
<path fill-rule="evenodd" clip-rule="evenodd" fill="#8E8E8E" d="M182.563,243.104c-1.406-0.076-2.601,1.227-4.087,0.624
	c0.037-0.579,0.074-1.159,0.11-1.739c0.455-0.17,0.922-0.313,1.363-0.515c2.478-1.129,3.31-5.728,7.382-3.497
	c2.45,1.342,4.9,2.686,7.35,4.028l-0.066-0.062c-1.409,2.799,0.979,5.25,0.91,7.99c-1.317-2.473-1.581-5.691-5.429-5.588
	c-1.971,0.054-2.009-1.803-2.826-2.948c-1.386-1.945-2.569-2.104-2.844,0.737C183.617,242.098,182.964,242.359,182.563,243.104z"/>
<path fill-rule="evenodd" clip-rule="evenodd" fill="#5C5C5C" d="M196.632,169.813c-1.359,9.537,1.797,18.213,5.334,27.786
	C194.92,191.802,192.102,176.038,196.632,169.813z"/>
<path fill-rule="evenodd" clip-rule="evenodd" fill="#8E8E8E" d="M350.656,163.364c2.774-11.231,8.232-20.946,16.712-28.984
	c-6.107,9.45-12.048,18.967-15.581,29.719C351.41,163.854,351.033,163.609,350.656,163.364z"/>
<path fill-rule="evenodd" clip-rule="evenodd" fill="#8E8E8E" d="M270.745,89.283c-0.563,9.32-1.125,18.64-1.688,27.96
	c-0.638-0.046-1.274-0.093-1.911-0.139c-1.227-9.427,0.842-18.631,2.203-27.883C269.814,89.242,270.279,89.263,270.745,89.283z"/>
<path fill-rule="evenodd" clip-rule="evenodd" fill="#8E8E8E" d="M127.575,170.72l-0.029-0.095c0.68-1.665,0.517-3.998-0.928-4.218
	c-3.482-0.528-3.38-2.86-3.255-5.631c-1.871,0.953-3.281,1.671-4.691,2.39c0.011-1.413,0.021-2.825,0.032-4.238
	c5.921-1.427,8.277,3.323,11.023,6.811c1.25,1.588,1.906,2.21,3.771,1.507c0.83-0.313,2.174-0.39,2.329,0.968
	c0.138,1.211-1.023,1.595-1.978,1.745C131.771,170.286,129.668,170.475,127.575,170.72z"/>
<path fill-rule="evenodd" clip-rule="evenodd" fill="#5C5C5C" d="M401.542,51.113c-7.998-4.88-13.609-12.381-20.183-18.86
	c8.364,4.409,14.386,11.635,21.132,17.985C402.175,50.529,401.859,50.821,401.542,51.113z"/>
<path fill-rule="evenodd" clip-rule="evenodd" fill="#5C5C5C" d="M276.084,240.7c-7.739,4.984-15.319,10.331-24.198,13.332
	C259.164,248.211,267.201,243.734,276.084,240.7z"/>
<path fill-rule="evenodd" clip-rule="evenodd" fill="#5C5C5C" d="M188.537,187.106c1.31,0.491,2.046-0.908,3.175-0.965
	c0.607-0.031,1.47-0.159,1.781,0.17c0.631,0.668,0.346,1.81-0.292,2.161c-2.206,1.216-3.447,2.111-0.826,4.463
	c1.11,0.995-2.222,1.883-1.414,3.841c2.642,0.767,5.902-0.438,8.775,2.492c-3.615,1.266-7.038,1.435-9.974-0.067
	c-3.919-2.006-0.665-5.981-1.581-8.953c-0.293-0.948,1.243-1.981,0.414-3.204C188.595,187.045,188.537,187.106,188.537,187.106z"/>
<path fill-rule="evenodd" clip-rule="evenodd" fill="#8E8E8E" d="M204.36,124.384c-1.063-7.889-2.126-15.777-3.267-24.242
	C204.7,103.629,207.187,118.503,204.36,124.384z"/>
<path fill-rule="evenodd" clip-rule="evenodd" fill="#5C5C5C" d="M211.426,159.26c0.275-1.679,1.199-3.521,2.53-1.257
	c1.538,2.615,3.647,1.606,5.555,2.053c-0.089,0.648-0.179,1.297-0.269,1.945c-0.708,0.639-0.574,0.987,0.365,1.057
	c1.679,0.196,3.454-1.435,5.11,0.224c-3.439,2.469-10.844,2.705-13.816,0.729C207.768,161.929,213.167,161.035,211.426,159.26z"/>
<path fill-rule="evenodd" clip-rule="evenodd" fill="#8E8E8E" d="M244.126,119.388c-1.98-8.354-2.15-16.884-2.637-26.466
	C244.776,97.979,246.343,114.358,244.126,119.388z"/>
<path fill-rule="evenodd" clip-rule="evenodd" fill="#5C5C5C" d="M178.586,241.989c-0.037,0.58-0.073,1.16-0.11,1.739
	c-9.062,0.662-18.038,1.85-26.89,4.021C159.872,242.663,169.05,241.545,178.586,241.989z"/>
<path fill-rule="evenodd" clip-rule="evenodd" fill="#5C5C5C" d="M285.767,261.916c-0.408-7.401,4.053-14.505,0.42-22.689
	C291.371,243.239,290.986,253.497,285.767,261.916z"/>
<path fill-rule="evenodd" clip-rule="evenodd" fill="#8E8E8E" d="M275.942,86.629c0.782,8.82-0.1,17.51-1.283,26.189
	C272.89,103.991,273.684,95.259,275.942,86.629z"/>
<path fill-rule="evenodd" clip-rule="evenodd" fill="#5C5C5C" d="M182.563,243.104c0.401-0.745,1.054-1.007,1.863-0.969
	c1.857,7.841,1.434,15.611-0.408,23.339c-0.485,0.007-0.97,0.014-1.455,0.021C182.563,258.031,182.563,250.567,182.563,243.104z"/>
<path fill-rule="evenodd" clip-rule="evenodd" fill="#5C5C5C" d="M240.336,288.083c-0.531-0.029-1.062-0.059-1.592-0.089
	c-2.727-7.523-3.604-15.151-1.221-23C238.068,272.761,239.109,280.434,240.336,288.083z"/>
<path fill-rule="evenodd" clip-rule="evenodd" fill="#5C5C5C" d="M106.758,200.144c0.569,0.241,1.139,0.483,1.708,0.725
	c-1.261,5.313-4.56,7.857-10.056,8.453c-1.699,0.184-3.171,2.646-4.707,4.106c-1.442,1.371-3.163,2.988-5.04,2.384
	c-2.473-0.796,0.477-3.168-0.651-4.639c0.6-0.091,1.2-0.181,1.799-0.271c1.143,3.68,3.281,1.104,3.918,0.149
	c2.087-3.124,5.031-4.51,8.455-5.062C105.656,205.431,105.004,201.9,106.758,200.144z"/>
<path fill-rule="evenodd" clip-rule="evenodd" fill="#8E8E8E" d="M230.73,101.51c0.451-0.16,0.901-0.32,1.352-0.48
	c2.004,7.236,0.301,14.594,0.687,21.911C229.619,116.019,231.065,108.678,230.73,101.51z"/>
<path fill-rule="evenodd" clip-rule="evenodd" fill="#8E8E8E" d="M400.462,108.694c0.464-1.579,1.333-2.673,3.15-2.631
	c9.456-0.058,13.794,2.664,15.847,10.49C414.481,110.438,408.313,107.392,400.462,108.694z"/>
<path fill-rule="evenodd" clip-rule="evenodd" fill="#5C5C5C" d="M392.198,76.268c-2.278-4.075-2.586-8.721-2.452-13.37
	c0.067-2.329-1.102-6.68,1.035-6.583c3.385,0.152,1.619,4.292,1.694,6.614C392.623,67.494,393.444,72.147,392.198,76.268z"/>
<path fill-rule="evenodd" clip-rule="evenodd" fill="#8E8E8E" d="M196.321,100.211c3.792,6.941,3.425,14.331,2.424,21.792
	C195.85,114.996,197.628,107.423,196.321,100.211z"/>
<path fill-rule="evenodd" clip-rule="evenodd" fill="#5C5C5C" d="M267.285,56.027c3.427,0.222,6.402,2.004,9.316,3.495
	c2.063,1.056,1.503,3.734,0.648,5.364c-1.185,2.258-2.354,5.02-5.068,5.753c-1.352,0.366-1.033-1.138-0.596-2.091
	c1.072-2.336,4.766-4.098,3.455-6.585c-0.992-1.881-4.4-2.479-6.722-3.671C267.564,57.905,266.881,57.425,267.285,56.027z"/>
<path fill-rule="evenodd" clip-rule="evenodd" fill="#8E8E8E" d="M261.33,55.213c1.37-6.745,7.137-12.896,0.408-19.852
	c4.014,1.741,5.842,4.152,5.721,7.807C267.297,48.033,265.172,52.095,261.33,55.213z"/>
<path fill-rule="evenodd" clip-rule="evenodd" fill="#8E8E8E" d="M357.434,51.01c3.9-6.71,9.713-11.567,15.647-16.319
	C369.431,41.604,363.141,46.038,357.434,51.01z"/>
<path fill-rule="evenodd" clip-rule="evenodd" fill="#8E8E8E" d="M202.883,226.205c5.018,5.137,10.988,8.676,18.175,10.876
	C215.38,239.821,205.781,234.186,202.883,226.205z"/>
<path fill-rule="evenodd" clip-rule="evenodd" fill="#5C5C5C" d="M131.875,271.944c1.558-6.61,4.393-12.682,7.995-18.39
	c0.759-1.203,1.901-2.367,3.63-2.323c-0.001,0.551-0.002,1.102-0.003,1.653c-5.142,5.415-6.255,12.966-10.101,19.068
	C132.888,271.95,132.381,271.947,131.875,271.944z"/>
<path fill-rule="evenodd" clip-rule="evenodd" fill="#5C5C5C" d="M244.521,58.238c-0.023,2.118-1.746,1.518-2.907,1.815
	c-4.833-2.328-11.267-0.523-14.11,3.958c-0.378-0.389-0.757-0.778-1.135-1.167c0.542-2.805,0.398-6.359,5.087-4.615
	c0.277,0.104,0.779,0.095,0.949-0.081C236.488,53.918,240.499,56.629,244.521,58.238z"/>
<path fill-rule="evenodd" clip-rule="evenodd" fill="#8E8E8E" d="M209.025,89.38c-1.108-1.353-0.576-3.098-2.172-3.164
	c-4.719-0.196-4.494-2.527-2.2-5.36c1.984-2.451,0.127-3.387-2.059-4.418c2.222-1.822,3.913-1.469,5.324-0.243
	c1.392,1.208,0.638,2.66-0.05,4.063c-1.032,2.104-4.766,4.883,1.771,4.918C211.952,85.187,209.631,87.604,209.025,89.38z"/>
<path fill-rule="evenodd" clip-rule="evenodd" fill="#8E8E8E" d="M274.476,222.881c-1.145,1.762-3.398,1.862-4.816,3.217
	c-0.104-6.317,0.762-12.643-0.155-18.954c0.356-0.48,0.714-0.961,1.071-1.441c0.699-0.169,1.398-0.338,2.099-0.506
	c0.023,0.905,0.167,1.746,1.154,2.129c-2.97,5.029-1.213,10.301-0.733,15.497C273.101,222.884,273.997,222.863,274.476,222.881z"/>
<path fill-rule="evenodd" clip-rule="evenodd" fill="#8E8E8E" d="M225.378,174.148c-5.779,2.706-11.712,2.328-17.659,0.513
	c-0.725-0.222-1.625-0.589-1.547-1.65c0.067-0.911,0.933-1.081,1.456-0.886C213.374,174.264,219.477,172.421,225.378,174.148z"/>
<path fill-rule="evenodd" clip-rule="evenodd" fill="#5C5C5C" d="M265.335,149.305c0.381-0.578,0.762-1.156,1.143-1.733
	c4.942-0.794,7.651,2.393,10.186,5.793c1.04,1.396,0.881,3.222-0.53,3.909c-2.404,1.17-1.564-1.964-1.655-1.964
	c-3.049,0.003-2.301-7.702-7.463-3.636C266.012,152.464,265.588,150.377,265.335,149.305z"/>
<path fill-rule="evenodd" clip-rule="evenodd" fill="#8E8E8E" d="M92.551,68.383c-0.305,0.227-0.609,0.453-0.914,0.681
	c-3.272-6.732-1.87-13.787-2.326-20.713c0.534-0.049,1.068-0.097,1.602-0.146C91.459,54.931,92.005,61.657,92.551,68.383z"/>
<path fill-rule="evenodd" clip-rule="evenodd" fill="#5C5C5C" d="M307.616,334.095c6.236-4.479,13.111-4.534,20.263-2.854
	c-6.292,2.003-13.049,1.61-19.274,3.832C308.274,334.747,307.945,334.421,307.616,334.095z"/>
<path fill-rule="evenodd" clip-rule="evenodd" fill="#8E8E8E" d="M131.875,271.944c0.507,0.003,1.014,0.006,1.521,0.009
	c-3.499,10.931-5.517,14.459-11.056,18.307C124.086,283.454,131.387,279.366,131.875,271.944z"/>
<path fill-rule="evenodd" clip-rule="evenodd" fill="#5C5C5C" d="M279.72,67.077c6.27,2.184,7.084,8.57,2.024,15.609
	C283.123,77.204,283.198,71.924,279.72,67.077z"/>
<path fill-rule="evenodd" clip-rule="evenodd" fill="#8E8E8E" d="M248.154,237.093c0.147,0.593,0.295,1.186,0.441,1.779
	c-2.458,1.661-5.25,1.394-8.149,1.448c4.819-3.229,5.366-8.874,8.081-13.212c0.604-0.051,1.207-0.102,1.811-0.152
	c0.923,3.602-2.689,5.874-2.697,9.203c0,0,0.04-0.099,0.04-0.098c-0.202,0.165-0.405,0.331-0.606,0.496
	C247.433,236.736,247.794,236.914,248.154,237.093z"/>
<path fill-rule="evenodd" clip-rule="evenodd" fill="#8E8E8E" d="M323.662,338.555c4.106,1.146,8.541,1.423,12.046,4.18
	c1.302,1.024,2.666,2.873,1.173,4.229c-2.154,1.956-1.779-1.035-2.614-1.814c-2.946-2.749-6.801-3.096-10.532-3.721
	c-0.998-0.167-2.122-0.348-1.926-1.694C321.936,338.85,322.698,338.407,323.662,338.555z"/>
<path fill-rule="evenodd" clip-rule="evenodd" fill="#8E8E8E" d="M278.546,177.35c1.881,7.375-2.36,12.566-7.163,18.825
	C273.449,188.976,277.223,183.628,278.546,177.35z"/>
<path fill-rule="evenodd" clip-rule="evenodd" fill="#8E8E8E" d="M331.072,248.684c3.042-0.967,5.301,0.834,5.467,2.176
	c0.576,4.632,3.824,7.078,6.718,10.084c-3.102-1.662-9.182,0.689-7.794-6.606C335.919,251.936,332.527,251.057,331.072,248.684z"/>
<path fill-rule="evenodd" clip-rule="evenodd" fill="#5C5C5C" d="M350.656,163.364c0.377,0.245,0.754,0.49,1.131,0.734
	c-0.258,0.58-0.515,1.16-0.772,1.74c-0.455,0.063-0.91,0.126-1.365,0.188c-1.77,0.289-4.647-1.169-4.162,2.813
	c0.713-1.965-0.046-3.48-0.858-5.04c-1.094-2.098-0.651-4.177,0.444-6.125c0.59-1.049,1.556-1.994,2.815-1.446
	c1.554,0.676,0.807,2.01,0.23,2.916C346.073,162.359,347.714,163.221,350.656,163.364z"/>
<path fill-rule="evenodd" clip-rule="evenodd" fill="#8E8E8E" d="M369.658,121.356c-0.894,0.929-1.787,1.857-2.681,2.786
	c-0.651-6.109-5.66-7.951-10.151-10.207c-1.554-0.78-3.352-1.075-4.932-1.843c6.434-0.097,11.819,2.009,15.518,7.546
	C367.979,120.487,368.498,121.319,369.658,121.356z"/>
<path fill-rule="evenodd" clip-rule="evenodd" fill="#5C5C5C" d="M278.433,135.1c-0.708,0.98-1.229,2.502-2.808,0.973
	c0.053-4.441,0.104-8.883,0.157-13.325c0,0.001,0.015-0.337,0.015-0.337c0.156-1.384,0.313-2.769,0.47-4.153
	c0.731-0.045,1.463-0.09,2.193-0.135C278.452,123.781,278.442,129.44,278.433,135.1z"/>
<path fill-rule="evenodd" clip-rule="evenodd" fill="#8E8E8E" d="M273.607,169.694c-4.417,5.975-10.538,7.474-15.55,3.758
	C263.93,174.84,268.583,171.744,273.607,169.694z"/>
<path fill-rule="evenodd" clip-rule="evenodd" fill="#8E8E8E" d="M229.73,177.398c1.152-6.986,3-12.531,3.165-19.543
	C236.048,164.173,234.719,172.345,229.73,177.398z"/>
<path fill-rule="evenodd" clip-rule="evenodd" fill="#8E8E8E" d="M29.632,190.131c0.018-0.333-0.004-0.664-0.065-0.992
	c2.747-3.65-1.462-5.613-2.052-8.455c0.665-0.781,1.385-1.539,1.136-2.704c2.216,0.002,2.68-3.016,4.97-2.885
	c0.342,0.552,0.684,1.104,1.025,1.656c-3.454,2.396-4.721,4.934-1.771,8.902C35.743,189.512,32.414,189.844,29.632,190.131z"/>
<path fill-rule="evenodd" clip-rule="evenodd" fill="#8E8E8E" d="M307.616,334.095c0.329,0.326,0.658,0.652,0.988,0.978
	c-0.593,0.689-1.056,2.254-2.151,1.288c-1.37-1.207-3.28-2.222-2.815-4.79c0.459-2.541,1.18-5.613-3.232-5.4l0.129-0.039
	c0.504-0.982-0.255-0.838-0.795-0.89c0.313-0.927,0.627-1.854,0.941-2.781c4.429,1.523,6.883,4.29,5.986,9.282
	C306.511,332.607,306.187,333.766,307.616,334.095z"/>
<path fill-rule="evenodd" clip-rule="evenodd" fill="#5C5C5C" d="M237.047,251.585c1.11,0.384,1.887,1.173,0.813,2.086
	c-1.078,0.915-2.5,1.764-4.068,0.885c-1.186-0.665-2.262-1.634-1.873-3.109c0.279-1.06,0.972-2.081,1.698-2.935
	c1.223-1.438,3.238-2.934,4.582-1.28c1.842,2.268-2.304,1.524-2.349,3.218c-0.292,0.359-0.897,0.945-0.827,1.043
	C235.607,252.302,236.347,251.909,237.047,251.585z"/>
<path fill-rule="evenodd" clip-rule="evenodd" fill="#8E8E8E" d="M229.223,239.959c-5.679-1.699-7.814-6.307-9.279-11.468
	C224.424,231.123,225.66,236.505,229.223,239.959z"/>
<path fill-rule="evenodd" clip-rule="evenodd" fill="#8E8E8E" d="M178.613,303.237c-3.021-3.461-2.659-10.064,1.194-15.844
	c1.258,5.714-1.435,10.672-1.149,15.787C178.658,303.183,178.613,303.237,178.613,303.237z"/>
<path fill-rule="evenodd" clip-rule="evenodd" fill="#8E8E8E" d="M222.642,170.137c-5.788,2.857-9.615,2.353-13.127-1.564
	C213.815,170.197,218.417,168.71,222.642,170.137z"/>
<path fill-rule="evenodd" clip-rule="evenodd" fill="#8E8E8E" d="M276.233,225.004c4.771,2.748,6.228,8.403,4.326,13.983
	C278.17,234.748,278.248,230.002,276.233,225.004z"/>
<path fill-rule="evenodd" clip-rule="evenodd" fill="#5C5C5C" d="M203.662,148.1c0.51-0.002,1.02-0.005,1.531-0.007
	c-0.507,1.696,0.305,4.401-2.879,4.124c-4.928-0.43-5.014,1.649-1.987,5.882c-3.177-0.6-4.515-1.705-4.651-4.102
	c-0.139-2.442,1.325-3.58,3.538-3.897C200.906,149.856,202.973,150.542,203.662,148.1z"/>
<path fill-rule="evenodd" clip-rule="evenodd" fill="#8E8E8E" d="M189.855,176.182c-1.667-4.671-1.506-9.323-3.713-13.298
	C191.396,166.666,192.576,170.785,189.855,176.182z"/>
<path fill-rule="evenodd" clip-rule="evenodd" fill="#5C5C5C" d="M194.681,242.006c0.835-3.465,0.959-7.107,2.611-10.371
	c0.478-0.944,0.354-2.681,2.071-2.074c1.304,0.461,0.651,1.784,0.296,2.582c-1.495,3.359-0.553,7.993-5.044,9.803
	C194.615,241.944,194.681,242.006,194.681,242.006z"/>
<path fill-rule="evenodd" clip-rule="evenodd" fill="#8E8E8E" d="M368.67,162.624c0.007,0.756,0.015,1.513,0.021,2.269
	c-4.392-1.668-6.197-5.681-8.438-9.301c-0.432-0.699-1.076-1.505-0.179-2.147c1.094-0.784,1.882,0.053,2.332,0.96
	C363.972,157.553,366.42,160.009,368.67,162.624z"/>
<path fill-rule="evenodd" clip-rule="evenodd" fill="#5C5C5C" d="M265.612,85.09c-0.427,2.595-2.919,3.329-4.484,4.884
	c-0.503,0.499-1.513,0.872-2.13-0.026c-0.425-0.618-0.066-1.233,0.51-1.646c2.981-2.138,5.741-4.305,1.906-8.08
	c-0.196-0.193-0.079-0.955,0.146-1.273c0.47-0.668,1.163-0.438,1.732-0.074c1.459,0.932,2.387,2.212,2.456,4.007
	C265.703,83.616,265.658,84.353,265.612,85.09z"/>
<path fill-rule="evenodd" clip-rule="evenodd" fill="#5C5C5C" d="M230.688,210.863c0.096-0.247,0.13-0.501,0.101-0.76
	c4.768-1.663,9.676-2.089,14.68-1.662c0.034,0.598,0.068,1.195,0.103,1.792C240.644,211.245,235.686,211.522,230.688,210.863z"/>
<path fill-rule="evenodd" clip-rule="evenodd" fill="#8E8E8E" d="M253.582,166.836c4.24,0.964,8.154,3.052,12.71,2.279
	C261.923,172.231,257.871,171.46,253.582,166.836z"/>
<path fill-rule="evenodd" clip-rule="evenodd" fill="#5C5C5C" d="M310.323,329.429c1.026-5.099,4.922-6.33,8.939-7.318
	c0.731-0.18,1.788-0.123,1.956,0.963c0.164,1.064-0.773,1.447-1.555,1.55C316.034,325.102,312.714,326.141,310.323,329.429z"/>
<path fill-rule="evenodd" clip-rule="evenodd" fill="#8E8E8E" d="M132.179,112.133c4.333,0.995,7.06,3.772,9.397,8.729
	C137.118,118.276,134.498,115.393,132.179,112.133z"/>
<path fill-rule="evenodd" clip-rule="evenodd" fill="#8E8E8E" d="M226.551,195.873c0.347-0.579,0.694-1.159,1.041-1.738
	c0.804-0.854,2.814,0.067,2.84-1.932c1.298,0.253,2.595,0.507,3.893,0.76c0.252,1.674,2.736,2.067,2.246,4.753
	C233.464,195.298,229.9,196.496,226.551,195.873z"/>
<path fill-rule="evenodd" clip-rule="evenodd" fill="#5C5C5C" d="M20.823,117.119c2.401-3.531,5.586-5.64,10.028-5.436
	C28.063,114.451,24.726,116.271,20.823,117.119z"/>
<path fill-rule="evenodd" clip-rule="evenodd" fill="#8E8E8E" d="M43.093,182.879c1.324-0.084,1.309-1.298,1.775-2.106
	c0.576,0.437,1.152,0.872,1.728,1.309c0.175,1.483,1.132,1.103,2.154,1.075c1.184-0.031,3.04-0.847,3.374,0.861
	c0.265,1.357-0.51,2.947-2.468,3.045c-1.407-0.904-2.516-2.386-4.607-1.714C42.512,186.163,43.094,184.227,43.093,182.879z"/>
<path fill-rule="evenodd" clip-rule="evenodd" fill="#5C5C5C" d="M256.275,162.375c0.955-3.345,3.753,1.05,5.71-1.584
	c2.128-2.862,3.229,0.957,4.588,2.244C263.071,163.907,259.462,166.417,256.275,162.375z"/>
<path fill-rule="evenodd" clip-rule="evenodd" fill="#8E8E8E" d="M89.812,210.901c-0.6,0.091-1.199,0.181-1.799,0.271
	c-4.346-2.174-3.652,2.916-5.747,3.987c-0.571-0.045-1.143-0.089-1.715-0.133c-0.063-1.587,0.917-2.752,1.625-4.027
	C84.669,206.508,86.263,206.487,89.812,210.901z"/>
<path fill-rule="evenodd" clip-rule="evenodd" fill="#8E8E8E" d="M265.612,85.09c0.046-0.737,0.091-1.474,0.136-2.21
	c2.368,0.948,4.465,0.843,6.157-1.384c0.529-0.697,1.077-2.128,2.206-1.26c1.107,0.852,0.382,2.039-0.213,3.099
	C271.783,87.106,268.47,84.979,265.612,85.09z"/>
<path fill-rule="evenodd" clip-rule="evenodd" fill="#8E8E8E" d="M122.261,92.625c3.522-2.687,6.125-4.109,9.239-4.651
	C129.825,91.028,127.563,93.12,122.261,92.625z"/>
<path fill-rule="evenodd" clip-rule="evenodd" fill="#5C5C5C" d="M243.38,190.979c2.029-1.396,4.058-2.793,6.086-4.189
	c0.309,0.434,0.617,0.866,0.926,1.3C249.026,190.468,247.27,192.32,243.38,190.979z"/>
<path fill-rule="evenodd" clip-rule="evenodd" fill="#8E8E8E" d="M204.81,138.742c0.005,0.531,0.01,1.063,0.015,1.593
	c-3.267,0.264-6.38-0.163-10.104-2.346C198.771,137.194,201.778,138.223,204.81,138.742z"/>
<path fill-rule="evenodd" clip-rule="evenodd" fill="#8E8E8E" d="M408.62,94.986c-0.452,0.894-1.267,1.015-2.143,1.006
	c-0.02-1.47-0.001-2.941-0.07-4.408c-0.066-1.382-1.618-2.534-0.528-4.384C409.396,88.967,409.358,91.843,408.62,94.986z"/>
<path fill-rule="evenodd" clip-rule="evenodd" fill="#8E8E8E" d="M132.592,190.063c2.891-3.979,4.198-3.751,8.093,1.457
	c-2.514,2.018-3.581-1.706-5.628-1.411C134.235,190.094,133.414,190.079,132.592,190.063z"/>
<path fill-rule="evenodd" clip-rule="evenodd" fill="#5C5C5C" d="M20.75,103.689c3.979-0.969,6.385-0.296,8.504,1.497
	c0.122,0.104-0.242,1.155-0.403,1.161C26.235,106.452,23.769,106.008,20.75,103.689z"/>
<path fill-rule="evenodd" clip-rule="evenodd" fill="#8E8E8E" d="M26.372,90.411c4.691-0.297,6.177,1.955,7.313,4.763
	C30.794,95.076,29.093,93.048,26.372,90.411z"/>
<path fill-rule="evenodd" clip-rule="evenodd" fill="#5C5C5C" d="M404.582,55.049c-3.678,1.46-7.327,1.355-12.166-0.079
	c4.047-1.859,7.225-1.301,10.288-1.497C403.33,53.998,403.956,54.523,404.582,55.049z"/>
<path fill-rule="evenodd" clip-rule="evenodd" fill="#5C5C5C" d="M234.325,192.963c-1.298-0.253-2.595-0.507-3.893-0.76
	c-1.709-0.039-3.17-0.771-2.505-2.588c0.593-1.62,2.153-0.696,3.377-0.304c1.064,0.342,2.232,0.383,3.27,0.779
	C237.658,191.27,234.961,192.047,234.325,192.963z"/>
<path fill-rule="evenodd" clip-rule="evenodd" fill="#8E8E8E" d="M76.999,122.073c-0.728,0.026-1.455,0.054-2.183,0.08
	c-0.191-2.355-0.714-4.77,1.237-7.195C77.793,117.405,77.532,119.719,76.999,122.073z"/>
<path fill-rule="evenodd" clip-rule="evenodd" fill="#5C5C5C" d="M132.592,190.063c0.822,0.016,1.643,0.03,2.465,0.046
	c-1.807,2.825-4.3,4.798-7.429,5.982c-0.321-0.624-0.642-1.248-0.962-1.872c0.644-0.051,1.288-0.103,1.931-0.153
	c0.793-0.144,0.982-0.6,0.676-1.31C128.895,190.03,131.835,191.392,132.592,190.063z"/>
<path fill-rule="evenodd" clip-rule="evenodd" fill="#8E8E8E" d="M365.609,88.09c-0.055-0.535-0.109-1.07-0.163-1.604
	c2.21-0.771,4.474-1.024,7.718-0.664C370.496,87.905,368.046,87.98,365.609,88.09z"/>
<path fill-rule="evenodd" clip-rule="evenodd" fill="#8E8E8E" d="M143.496,252.885c0.001-0.552,0.002-1.103,0.003-1.653
	c2.028-1.062,4.056-2.121,6.083-3.182c0.381,0.38,0.763,0.761,1.145,1.141C148.78,251.328,146.379,252.578,143.496,252.885z"/>
<path fill-rule="evenodd" clip-rule="evenodd" fill="#8E8E8E" d="M152.676,311.261c-0.027,0.543-0.054,1.087-0.082,1.63
	c-1.854,1.217-3.722,2.372-6.843,1.453C148.164,312.434,150.068,311.127,152.676,311.261z"/>
<path fill-rule="evenodd" clip-rule="evenodd" fill="#8E8E8E" d="M275.797,122.41c0,0-0.015,0.338-0.015,0.337
	c-2.898,0.155-5.055,2.726-8.075,2.483c-0.036-0.5-0.072-1-0.108-1.501C270.125,121.999,273.076,122.918,275.797,122.41z"/>
<path fill-rule="evenodd" clip-rule="evenodd" fill="#8E8E8E" d="M404.582,55.049c-0.626-0.525-1.252-1.051-1.878-1.576
	c-0.387-0.786-0.774-1.573-1.161-2.359c0.316-0.292,0.633-0.584,0.949-0.875C404.847,51.121,407.421,51.909,404.582,55.049z"/>
<path fill-rule="evenodd" clip-rule="evenodd" fill="#8E8E8E" d="M147.356,372.273c-0.006-0.442-0.012-0.884-0.018-1.326
	c1.723-0.705,3.321-0.548,5.13,0.451C150.699,373.166,149.072,373.048,147.356,372.273z"/>
<path fill-rule="evenodd" clip-rule="evenodd" fill="#8E8E8E" d="M41.45,103.632c-0.841,0.363-1.683,0.727-2.523,1.09
	c-1.154-1.84,0.149-4.004,1.138-4.167C42.543,100.146,40.831,102.604,41.45,103.632z"/>
<path fill-rule="evenodd" clip-rule="evenodd" fill="#8E8E8E" d="M98.305,120.176c-0.702,0.026-1.403,0.053-2.105,0.079
	c-0.39-1.695-1.048-4.162,1.27-4.153C99.225,116.109,98.449,118.66,98.305,120.176z"/>
<path fill-rule="evenodd" clip-rule="evenodd" fill="#8E8E8E" d="M65.571,117.077c-0.654-0.038-1.307-0.076-1.961-0.115
	c-0.276-1.319-1.384-3.451,0.531-3.594C66.528,113.19,65.486,115.634,65.571,117.077z"/>
<path fill-rule="evenodd" clip-rule="evenodd" fill="#8E8E8E" d="M87.609,119.059c-0.6,0.031-1.2,0.062-1.8,0.093
	c-0.383-1.529-0.443-3.003,0.626-4.715C88.013,115.994,87.727,117.548,87.609,119.059z"/>
<path fill-rule="evenodd" clip-rule="evenodd" fill="#8E8E8E" d="M369.626,133.145c0.552-1.309,1.443-2.33,2.919-2.325
	c1.104,0.003,1.024,1.053,1.058,1.865C372.459,134.415,370.956,133.029,369.626,133.145z"/>
<path fill-rule="evenodd" clip-rule="evenodd" fill="#8E8E8E" d="M39.102,104.807c0.864,0.001,1.756-0.085,2.362,0.741
	c-0.289,0.839-0.577,1.679-0.865,2.518c-0.439,0.076-0.878,0.152-1.316,0.229C39.223,107.132,39.162,105.969,39.102,104.807z"/>
<path fill-rule="evenodd" clip-rule="evenodd" fill="#8E8E8E" d="M104.42,168.06c0.645-0.03,1.29-0.061,1.935-0.09
	c0.181,1.137,0.342,2.674-1.086,2.661C103.763,170.617,103.879,169.213,104.42,168.06z"/>
<path fill-rule="evenodd" clip-rule="evenodd" fill="#8E8E8E" d="M38.603,175.06c-1.659,0.011-3.318,0.021-4.978,0.032
	C35.275,173.596,36.924,172.005,38.603,175.06z"/>
<path fill-rule="evenodd" clip-rule="evenodd" fill="#8E8E8E" d="M278.46,118.122c-0.73,0.045-1.462,0.09-2.193,0.135
	c-0.211-1.281-0.271-2.844,1.383-2.766C279.138,115.563,278.614,117.086,278.46,118.122z"/>
<path fill-rule="evenodd" clip-rule="evenodd" fill="#5C5C5C" d="M115.699,311.215c0.423-0.813,0.749-1.774,2.053-1.328
	c-0.196,1.378-1.764,0.273-2.13,1.242C115.625,311.132,115.699,311.215,115.699,311.215z"/>
<path fill-rule="evenodd" clip-rule="evenodd" fill="#5C5C5C" d="M123.106,182.468c0.628,0.534,1.441,1.192,0.506,1.926
	c-0.783,0.614-1.483-0.023-1.894-0.827C122.181,183.2,122.644,182.834,123.106,182.468z"/>
<path fill-rule="evenodd" clip-rule="evenodd" fill="#8E8E8E" d="M349.649,166.027c0.455-0.063,0.91-0.125,1.365-0.188
	c-0.16,0.395-0.32,0.789-0.479,1.184C350.239,166.691,349.944,166.359,349.649,166.027z"/>
<polygon fill-rule="evenodd" clip-rule="evenodd" fill="#5C5C5C" points="401.541,136.859 401.778,137.065 401.49,137.163 "/>
<path fill-rule="evenodd" clip-rule="evenodd" fill="#5C5C5C" d="M252.584,92.966c-0.024-0.679-0.05-1.357-0.074-2.036
	c0.954-0.215,2.321-1.134,2.491,0.613C255.145,93.032,253.583,92.782,252.584,92.966z"/>
<path fill-rule="evenodd" clip-rule="evenodd" fill="#8E8E8E" d="M97.157,70.567c0.596-0.051,1.634-0.299,1.714-0.119
	c0.429,0.962-0.317,1.387-1.109,1.687C98.118,71.397,97.521,71.027,97.157,70.567z"/>
<path fill-rule="evenodd" clip-rule="evenodd" fill="#8E8E8E" d="M188.603,148.996c0.31-0.317,0.62-0.634,0.93-0.951
	C189.805,148.932,189.637,149.387,188.603,148.996z"/>
<path fill-rule="evenodd" clip-rule="evenodd" fill="#8E8E8E" d="M129.272,192.757c0.306,0.71,0.117,1.166-0.676,1.31
	C128.822,193.63,129.047,193.193,129.272,192.757z"/>
<path fill-rule="evenodd" clip-rule="evenodd" fill="#8E8E8E" d="M80.558,215.021c-0.284,0.365-0.568,0.73-0.852,1.096
	C79.99,215.752,80.274,215.387,80.558,215.021z"/>
<path fill-rule="evenodd" clip-rule="evenodd" fill="#5C5C5C" d="M54.691,207.141c-0.427-0.421-0.855-0.842-1.282-1.263
	c0.077-0.216,0.225-0.36,0.439-0.437c0.4,0.348,0.803,0.695,1.206,1.044C55.049,206.769,54.928,206.986,54.691,207.141z"/>
<path fill-rule="evenodd" clip-rule="evenodd" fill="#5C5C5C" d="M257.597,90.57c-0.221,0.112-0.438,0.259-0.673,0.308
	c-0.085,0.018-0.218-0.201-0.329-0.313c0.223-0.111,0.436-0.261,0.672-0.313C257.349,90.234,257.484,90.454,257.597,90.57z"/>
<path fill-rule="evenodd" clip-rule="evenodd" fill="#5C5C5C" d="M150.728,249.19c-0.381-0.38-0.763-0.761-1.145-1.141
	C150.636,247.757,151.342,247.811,150.728,249.19z"/>
<path fill-rule="evenodd" clip-rule="evenodd" fill="#5C5C5C" d="M270.576,205.702c-0.357,0.48-0.715,0.961-1.071,1.441
	C269.266,206.222,269.181,205.412,270.576,205.702z"/>
<path fill-rule="evenodd" clip-rule="evenodd" fill="#8E8E8E" d="M219.607,163.058c-0.939-0.069-1.073-0.418-0.365-1.057
	C219.364,162.354,219.486,162.705,219.607,163.058z"/>
<path fill-rule="evenodd" clip-rule="evenodd" fill="#5C5C5C" d="M121.718,183.566c-0.44-0.473-0.854-0.996-0.19-1.551
	c0.684-0.572,1.089,0.16,1.578,0.453C122.644,182.834,122.181,183.2,121.718,183.566z"/>
</svg>
